<svg xmlns="http://www.w3.org/2000/svg" xmlns:xlink="http://www.w3.org/1999/xlink" width="1920" zoomAndPan="magnify" viewBox="0 0 1440 809.999993" height="1080" preserveAspectRatio="xMidYMid meet" version="1.0"><defs><clipPath id="470d448e38"><path d="M 699.117188 82.226562 L 740.96875 82.226562 L 740.96875 124.078125 L 699.117188 124.078125 Z M 699.117188 82.226562 " clip-rule="nonzero"/></clipPath><clipPath id="e2284abb73"><path d="M 51 625 L 210 625 L 210 759 L 51 759 Z M 51 625 " clip-rule="nonzero"/></clipPath><clipPath id="33c467df6c"><path d="M 87.367188 608.792969 L 221.933594 673.351562 L 173.269531 774.78125 L 38.707031 710.222656 Z M 87.367188 608.792969 " clip-rule="nonzero"/></clipPath><clipPath id="f4152e4330"><path d="M 87.367188 608.792969 L 221.933594 673.351562 L 173.269531 774.78125 L 38.707031 710.222656 Z M 87.367188 608.792969 " clip-rule="nonzero"/></clipPath><clipPath id="77c6dfd0a0"><path d="M 114 663 L 140 663 L 140 693 L 114 693 Z M 114 663 " clip-rule="nonzero"/></clipPath><clipPath id="2812f1eb78"><path d="M 87.367188 608.792969 L 221.933594 673.351562 L 173.269531 774.78125 L 38.707031 710.222656 Z M 87.367188 608.792969 " clip-rule="nonzero"/></clipPath><clipPath id="966862ef67"><path d="M 87.367188 608.792969 L 221.933594 673.351562 L 173.269531 774.78125 L 38.707031 710.222656 Z M 87.367188 608.792969 " clip-rule="nonzero"/></clipPath><clipPath id="334d90fee3"><path d="M 118 668 L 136 668 L 136 687 L 118 687 Z M 118 668 " clip-rule="nonzero"/></clipPath><clipPath id="83cd9fe108"><path d="M 87.367188 608.792969 L 221.933594 673.351562 L 173.269531 774.78125 L 38.707031 710.222656 Z M 87.367188 608.792969 " clip-rule="nonzero"/></clipPath><clipPath id="2526e93b29"><path d="M 87.367188 608.792969 L 221.933594 673.351562 L 173.269531 774.78125 L 38.707031 710.222656 Z M 87.367188 608.792969 " clip-rule="nonzero"/></clipPath><clipPath id="50ba4a2183"><path d="M 117 695 L 137 695 L 137 716 L 117 716 Z M 117 695 " clip-rule="nonzero"/></clipPath><clipPath id="f07e60802a"><path d="M 87.367188 608.792969 L 221.933594 673.351562 L 173.269531 774.78125 L 38.707031 710.222656 Z M 87.367188 608.792969 " clip-rule="nonzero"/></clipPath><clipPath id="0a1e3d4257"><path d="M 87.367188 608.792969 L 221.933594 673.351562 L 173.269531 774.78125 L 38.707031 710.222656 Z M 87.367188 608.792969 " clip-rule="nonzero"/></clipPath><clipPath id="c8d656ac63"><path d="M 87 699 L 108 699 L 108 720 L 87 720 Z M 87 699 " clip-rule="nonzero"/></clipPath><clipPath id="71fc06b489"><path d="M 87.367188 608.792969 L 221.933594 673.351562 L 173.269531 774.78125 L 38.707031 710.222656 Z M 87.367188 608.792969 " clip-rule="nonzero"/></clipPath><clipPath id="ca2ddee668"><path d="M 87.367188 608.792969 L 221.933594 673.351562 L 173.269531 774.78125 L 38.707031 710.222656 Z M 87.367188 608.792969 " clip-rule="nonzero"/></clipPath><clipPath id="30f66ddede"><path d="M 549.753906 236 L 889.960938 236 L 889.960938 576.449219 L 549.753906 576.449219 Z M 549.753906 236 " clip-rule="nonzero"/></clipPath><clipPath id="ac14aa785e"><path d="M 640 211.199219 L 700 211.199219 L 700 238 L 640 238 Z M 640 211.199219 " clip-rule="nonzero"/></clipPath><clipPath id="54e715e53b"><path d="M 1257.621094 613.328125 L 1389.621094 613.328125 L 1389.621094 770.078125 L 1257.621094 770.078125 Z M 1257.621094 613.328125 " clip-rule="nonzero"/></clipPath></defs><rect x="-144" width="1728" fill="#ffffff" y="-80.999999" height="971.999992" fill-opacity="1"/><rect x="-144" width="1728" fill="#ffffff" y="-80.999999" height="971.999992" fill-opacity="1"/><rect x="-144" width="1728" fill="#000000" y="-80.999999" height="971.999992" fill-opacity="1"/><g clip-path="url(#470d448e38)"><path fill="#ffffff" d="M 730.757812 112.175781 L 730.757812 103.980469 L 739.261719 103.980469 C 738.859375 108.417969 735.234375 111.933594 730.757812 112.175781 Z M 720.871094 122.371094 L 720.871094 113.867188 L 729.066406 113.867188 C 728.824219 118.34375 725.308594 121.96875 720.871094 122.371094 Z M 711.011719 113.867188 L 719.207031 113.867188 L 719.207031 122.371094 C 714.777344 121.96875 711.261719 118.34375 711.011719 113.867188 Z M 700.824219 103.980469 L 709.328125 103.980469 L 709.328125 112.175781 C 704.851562 111.933594 701.226562 108.417969 700.824219 103.980469 Z M 709.328125 94.121094 L 709.328125 102.316406 L 700.824219 102.316406 C 701.226562 97.886719 704.851562 94.371094 709.328125 94.121094 Z M 719.214844 83.933594 L 719.214844 92.4375 L 711.019531 92.4375 C 711.261719 87.960938 714.777344 84.335938 719.214844 83.933594 Z M 729.066406 92.4375 L 720.871094 92.4375 L 720.871094 83.933594 C 725.308594 84.335938 728.824219 87.960938 729.066406 92.4375 Z M 726.957031 102.324219 C 726.011719 102.046875 724.65625 101.480469 723.398438 100.324219 C 721.902344 98.941406 721.207031 97.359375 720.878906 96.246094 L 720.878906 94.113281 L 729.097656 94.113281 L 729.097656 102.332031 L 726.957031 102.332031 Z M 720.058594 107.582031 C 719.617188 106.695312 718.980469 105.746094 718.058594 104.859375 C 717.296875 104.125 716.492188 103.589844 715.742188 103.195312 C 716.660156 102.75 717.65625 102.089844 718.570312 101.101562 C 719.273438 100.339844 719.773438 99.535156 720.125 98.773438 C 720.613281 99.679688 721.296875 100.648438 722.269531 101.539062 C 722.945312 102.164062 723.71875 102.699219 724.539062 103.128906 C 723.660156 103.570312 722.722656 104.199219 721.84375 105.101562 C 721.054688 105.921875 720.476562 106.777344 720.058594 107.582031 Z M 710.984375 94.097656 L 719.207031 94.097656 L 719.207031 96.273438 C 719.003906 97.261719 718.527344 98.675781 717.332031 99.980469 C 715.867188 101.570312 714.117188 102.132812 713.152344 102.324219 L 710.976562 102.324219 L 710.976562 94.097656 Z M 710.984375 103.980469 L 713.144531 103.980469 C 714.148438 104.234375 715.597656 104.792969 716.914062 106.058594 C 718.402344 107.488281 718.988281 109.136719 719.214844 110.050781 L 719.214844 112.203125 L 710.992188 112.203125 L 710.992188 103.980469 Z M 729.097656 112.210938 L 720.878906 112.210938 L 720.878906 110.066406 C 721.15625 109.054688 721.75 107.597656 723.039062 106.285156 C 724.386719 104.902344 725.894531 104.28125 726.949219 104 L 729.089844 104 L 729.089844 112.210938 Z M 739.261719 102.324219 L 730.757812 102.324219 L 730.757812 94.128906 C 735.234375 94.371094 738.859375 97.886719 739.261719 102.324219 Z M 740.96875 103.152344 C 740.96875 97.402344 736.414062 92.714844 730.730469 92.464844 C 730.480469 86.78125 725.785156 82.226562 720.042969 82.226562 C 714.300781 82.226562 709.605469 86.78125 709.355469 92.464844 C 703.671875 92.714844 699.117188 97.402344 699.117188 103.152344 C 699.117188 108.902344 703.671875 113.589844 709.355469 113.84375 C 709.605469 119.527344 714.300781 124.078125 720.042969 124.078125 C 725.785156 124.078125 730.480469 119.527344 730.730469 113.84375 C 736.414062 113.589844 740.96875 108.894531 740.96875 103.152344 " fill-opacity="1" fill-rule="nonzero"/></g><g clip-path="url(#e2284abb73)"><g clip-path="url(#33c467df6c)"><g clip-path="url(#f4152e4330)"><path fill="#ffffff" d="M 209.882812 694.125 C 209.824219 691.277344 208.511719 688.269531 206.195312 685.664062 C 201.398438 680.285156 175.675781 662.757812 174.585938 662.015625 C 174.535156 661.984375 174.488281 661.960938 174.433594 661.941406 C 174.496094 660.957031 174.414062 660 174.167969 659.097656 C 173.242188 655.707031 170.160156 653.367188 167.910156 651.660156 L 159.792969 645.492188 C 158.183594 644.273438 156.527344 643.007812 154.550781 642.265625 C 152.296875 641.414062 149.628906 641.542969 147.257812 642.535156 C 144.949219 641.046875 142.546875 639.425781 140.222656 637.855469 C 139.234375 637.191406 138.234375 636.515625 137.230469 635.84375 C 137.136719 635.714844 137 635.617188 136.835938 635.578125 C 135.496094 634.683594 134.15625 633.796875 132.84375 632.957031 C 131.949219 632.382812 131.019531 631.707031 130.035156 630.996094 C 126.90625 628.730469 123.363281 626.160156 119.605469 625.960938 C 117.371094 625.839844 115.097656 625.804688 112.851562 625.855469 C 110.90625 625.902344 108.957031 626.015625 107.011719 626.191406 C 106.824219 626.121094 106.613281 626.121094 106.425781 626.230469 C 106.417969 626.234375 106.414062 626.242188 106.410156 626.246094 C 104.066406 626.472656 101.734375 626.792969 99.429688 627.203125 C 99.019531 627.277344 98.296875 627.480469 97.597656 627.675781 C 97.105469 627.8125 96.636719 627.941406 96.316406 628.019531 C 95.445312 628.171875 94.539062 628.445312 93.582031 628.867188 C 89.640625 630.617188 87.652344 633.730469 85.546875 637.027344 C 85.304688 637.40625 85.058594 637.789062 84.8125 638.167969 C 83.003906 640.945312 80.898438 643.652344 78.859375 646.269531 C 77.777344 647.652344 76.660156 649.089844 75.605469 650.511719 L 56.253906 676.589844 C 54.414062 679.070312 52.328125 681.882812 51.753906 685.242188 C 51.097656 689.078125 52.523438 693.332031 55.671875 696.914062 C 58.082031 699.660156 61.097656 701.59375 64.015625 703.46875 C 65.246094 704.257812 66.523438 705.078125 67.730469 705.945312 L 67.746094 705.953125 C 67.746094 705.953125 67.746094 705.957031 67.746094 705.957031 L 70.582031 707.992188 C 74.558594 710.84375 74.558594 710.84375 80.40625 715.183594 L 81.664062 716.117188 C 88.628906 721.289062 95.640625 726.621094 102.421875 731.78125 C 110.402344 737.851562 118.59375 744.078125 126.851562 750.152344 C 126.859375 750.160156 126.863281 750.167969 126.871094 750.171875 C 126.878906 750.175781 126.890625 750.179688 126.898438 750.1875 C 129.109375 751.816406 131.328125 753.4375 133.550781 755.035156 C 134.898438 756.011719 136.289062 756.96875 137.746094 757.664062 C 139.355469 758.4375 141.039062 758.890625 142.8125 758.703125 C 142.875 758.769531 142.945312 758.828125 143.027344 758.867188 C 143.128906 758.917969 143.246094 758.941406 143.367188 758.933594 L 164.539062 757.589844 C 166.863281 757.441406 169.292969 757.144531 171.125 755.300781 C 172.53125 753.890625 173.65625 752.117188 174.742188 750.402344 C 175.179688 749.714844 175.613281 749.03125 176.058594 748.386719 L 186.097656 733.78125 C 192.777344 724.058594 199.316406 714.386719 205.523438 705.027344 C 207.503906 702.039062 209.96875 698.320312 209.882812 694.125 Z M 208.273438 692.277344 C 203.71875 691.878906 199.140625 691.820312 194.585938 692.113281 C 191.332031 687.769531 185.839844 685.136719 180.414062 685.324219 C 180.199219 685.15625 179.992188 684.992188 179.785156 684.832031 C 178.753906 684.035156 177.71875 683.242188 176.6875 682.449219 C 183.621094 680.558594 189.96875 679.082031 196.40625 679.230469 C 200.40625 682.261719 203.75 684.976562 205.171875 686.570312 C 206.761719 688.355469 207.824219 690.328125 208.273438 692.277344 Z M 188.546875 703.769531 C 187.367188 704.535156 186.027344 704.765625 184.550781 704.476562 C 185.589844 702.785156 187.644531 698.746094 186.867188 694.34375 C 189.058594 694.003906 191.261719 693.75 193.472656 693.574219 C 192.941406 697.511719 191.277344 701.992188 188.546875 703.769531 Z M 151.421875 756.765625 C 151.347656 756.851562 151.300781 756.957031 151.277344 757.0625 L 145.117188 757.453125 C 146.894531 756.019531 149.277344 753.4375 151.996094 750.148438 C 152.648438 750.226562 153.300781 750.753906 153.5625 751.464844 C 153.847656 752.242188 153.746094 753.238281 153.285156 754.199219 C 152.835938 755.132812 152.117188 755.960938 151.421875 756.765625 Z M 140.46875 745.9375 C 136.632812 746.363281 132.960938 748.199219 130.3125 751 C 129.617188 750.492188 128.921875 749.980469 128.226562 749.46875 C 132.578125 743.457031 136.875 737.328125 141.035156 731.398438 C 145.320312 725.292969 149.75 718.976562 154.230469 712.796875 L 175.59375 683.332031 C 176.710938 684.191406 177.832031 685.046875 178.945312 685.90625 C 179.027344 685.972656 179.109375 686.035156 179.191406 686.101562 C 176.933594 688.140625 175.585938 690.402344 175.308594 692.679688 C 175.023438 694.996094 175.535156 698.449219 177.058594 700.574219 C 178.195312 702.152344 181.214844 704.242188 182.5 705.09375 C 173.175781 719.222656 160.265625 737.824219 151.546875 748.59375 C 148.367188 746.507812 144.273438 745.515625 140.46875 745.9375 Z M 119.296875 742.839844 L 166.539062 676.414062 C 169.171875 678.410156 171.792969 680.414062 174.40625 682.421875 C 174.421875 682.464844 174.441406 682.507812 174.46875 682.546875 L 153.121094 711.992188 C 148.636719 718.183594 144.203125 724.503906 139.914062 730.613281 C 135.757812 736.539062 131.464844 742.65625 127.121094 748.65625 C 124.503906 746.730469 121.894531 744.785156 119.296875 742.839844 Z M 187.453125 672.667969 C 189.832031 674.371094 192.28125 676.148438 194.585938 677.867188 C 188.300781 678.003906 182.097656 679.539062 175.328125 681.40625 C 172.984375 679.605469 170.632812 677.808594 168.277344 676.019531 C 171.140625 675.597656 174.085938 675.027344 176.953125 674.46875 C 180.4375 673.789062 184.039062 673.089844 187.441406 672.675781 C 187.445312 672.671875 187.449219 672.671875 187.453125 672.667969 Z M 183.265625 703.960938 C 182.050781 703.15625 179.167969 701.171875 178.171875 699.78125 C 176.867188 697.960938 176.421875 694.851562 176.667969 692.847656 C 176.972656 690.359375 178.742188 688.300781 180.269531 686.957031 C 181.609375 688.058594 182.910156 689.273438 183.917969 690.730469 C 187.71875 696.210938 184.460938 702.136719 183.265625 703.960938 Z M 185.046875 689.953125 C 184.199219 688.734375 183.15625 687.667969 182.082031 686.714844 C 186.234375 687.03125 190.265625 689.070312 192.953125 692.246094 C 190.808594 692.425781 188.671875 692.675781 186.542969 693.007812 C 186.226562 691.992188 185.746094 690.964844 185.046875 689.953125 Z M 154.070312 643.542969 C 155.851562 644.214844 157.4375 645.417969 158.964844 646.578125 L 167.085938 652.746094 C 169.796875 654.804688 172.101562 656.734375 172.847656 659.457031 C 173.347656 661.296875 173.054688 663.542969 172.039062 665.613281 C 171.554688 666.597656 170.917969 667.515625 170.199219 668.269531 C 169.414062 669.089844 168.496094 669.5625 167.613281 669.597656 C 166.59375 669.644531 165.472656 669.125 164.179688 668.015625 C 163.714844 667.617188 163.097656 667.011719 163.105469 666.390625 C 163.109375 665.933594 163.445312 665.464844 163.796875 664.972656 L 163.980469 664.714844 C 164.765625 663.585938 166.027344 661.308594 166.289062 659.660156 C 166.605469 657.621094 164.570312 656.136719 163.589844 655.425781 L 157.335938 650.867188 C 156.691406 650.394531 155.980469 649.875 155.199219 649.5 C 154.128906 648.988281 152.921875 648.742188 151.570312 649.273438 C 150.476562 649.699219 149.710938 650.546875 148.96875 651.367188 C 148.238281 652.175781 147.542969 652.941406 146.640625 653.152344 C 144.910156 653.558594 142.40625 651.765625 141.367188 650.300781 C 141.320312 650.230469 141.1875 650.046875 141.175781 649.929688 C 141.089844 649.0625 143.496094 646.640625 145.800781 644.925781 C 148.195312 643.136719 151.519531 642.582031 154.070312 643.542969 Z M 144.976562 643.828125 C 144.078125 644.5 139.601562 647.953125 139.816406 650.0625 C 139.855469 650.480469 140.058594 650.8125 140.25 651.085938 C 141.46875 652.804688 144.441406 655.074219 146.957031 654.484375 C 148.277344 654.175781 149.144531 653.210938 149.988281 652.28125 C 150.652344 651.546875 151.28125 650.851562 152.074219 650.542969 C 153.707031 649.90625 155.078125 650.90625 156.53125 651.96875 L 162.785156 656.527344 C 164 657.414062 165.101562 658.378906 164.933594 659.445312 C 164.746094 660.65625 163.726562 662.679688 162.855469 663.9375 L 162.683594 664.175781 C 162.246094 664.789062 161.746094 665.484375 161.738281 666.375 C 161.722656 667.5625 162.613281 668.46875 163.285156 669.050781 C 163.996094 669.660156 164.675781 670.121094 165.339844 670.441406 C 166.144531 670.824219 166.917969 670.996094 167.675781 670.964844 C 168.914062 670.910156 170.160156 670.289062 171.191406 669.210938 C 172.003906 668.363281 172.722656 667.324219 173.265625 666.214844 C 173.265625 666.214844 173.265625 666.214844 173.269531 666.214844 C 173.71875 665.296875 174.042969 664.359375 174.238281 663.433594 C 175.6875 664.421875 180.433594 667.675781 185.828125 671.507812 C 182.820312 671.933594 179.710938 672.539062 176.6875 673.128906 C 173.386719 673.773438 169.980469 674.433594 166.738281 674.851562 C 153.449219 664.785156 139.949219 654.867188 126.347656 645.203125 C 132.414062 643.738281 138.253906 642.835938 144.546875 642.398438 C 144.984375 642.683594 145.417969 642.96875 145.851562 643.25 C 145.550781 643.429688 145.257812 643.621094 144.976562 643.828125 Z M 142.703125 641.171875 C 136.597656 641.6875 130.859375 642.648438 124.871094 644.160156 C 122.207031 642.273438 119.542969 640.390625 116.875 638.523438 C 123.296875 637.3125 129.851562 636.769531 136.386719 636.921875 C 137.414062 637.609375 138.445312 638.304688 139.457031 638.988281 C 140.527344 639.710938 141.617188 640.445312 142.703125 641.171875 Z M 112.890625 627.222656 C 115.097656 627.171875 117.335938 627.203125 119.535156 627.324219 C 122.886719 627.503906 126.257812 629.945312 129.230469 632.101562 C 130.234375 632.824219 131.179688 633.507812 132.105469 634.105469 C 132.828125 634.566406 133.558594 635.046875 134.292969 635.53125 C 127.921875 635.523438 121.546875 636.160156 115.304688 637.429688 C 113.164062 635.933594 111.023438 634.4375 108.878906 632.957031 C 108.519531 632.710938 108.164062 632.460938 107.808594 632.210938 C 108.394531 630.707031 108.394531 629 107.832031 627.488281 C 109.515625 627.351562 111.203125 627.261719 112.890625 627.222656 Z M 106.414062 627.617188 C 106.953125 628.796875 107.042969 630.167969 106.652344 631.402344 C 104.792969 630.117188 102.945312 628.953125 100.949219 628.335938 C 102.757812 628.039062 104.582031 627.796875 106.414062 627.617188 Z M 94.140625 630.117188 C 94.9375 629.761719 95.695312 629.527344 96.425781 629.390625 C 96.433594 629.390625 96.4375 629.390625 96.445312 629.390625 C 96.457031 629.386719 96.46875 629.382812 96.480469 629.382812 C 100.011719 628.746094 102.871094 630.449219 105.960938 632.585938 C 104.085938 634.9375 100.769531 636.902344 97.398438 637.597656 C 94.203125 638.253906 90.683594 637.628906 87.894531 635.929688 C 89.511719 633.523438 91.285156 631.382812 94.140625 630.117188 Z M 53.101562 685.476562 C 53.402344 683.71875 54.195312 682.085938 55.144531 680.5625 C 57.65625 682.144531 59.351562 684.996094 59.824219 688.492188 C 60.277344 691.824219 59.367188 694.359375 58.203125 697.542969 C 57.683594 697.0625 57.179688 696.558594 56.699219 696.015625 C 53.828125 692.746094 52.515625 688.902344 53.101562 685.476562 Z M 59.300781 698.507812 C 59.3125 698.484375 59.328125 698.460938 59.335938 698.4375 L 59.449219 698.121094 C 60.699219 694.710938 61.6875 692.019531 61.183594 688.3125 C 60.652344 684.421875 58.742188 681.226562 55.898438 679.421875 C 56.378906 678.726562 56.875 678.054688 57.355469 677.40625 L 76.703125 651.328125 C 77.753906 649.914062 78.863281 648.488281 79.941406 647.109375 C 81.996094 644.46875 84.125 641.742188 85.960938 638.914062 C 86.210938 638.527344 86.457031 638.144531 86.699219 637.761719 C 86.851562 637.527344 87 637.296875 87.148438 637.066406 C 87.574219 637.328125 88.007812 637.574219 88.457031 637.789062 C 91.304688 639.15625 94.570312 639.574219 97.679688 638.933594 C 100.789062 638.292969 104.757812 636.347656 107.085938 633.371094 C 107.421875 633.609375 107.761719 633.84375 108.101562 634.082031 C 110.125 635.480469 112.144531 636.890625 114.164062 638.300781 C 111.601562 642.050781 101.140625 656.980469 91.003906 671.445312 C 81.011719 685.710938 70.699219 700.425781 67.953125 704.433594 C 66.894531 703.695312 65.808594 702.996094 64.753906 702.316406 C 62.835938 701.085938 60.988281 699.894531 59.300781 698.507812 Z M 69.070312 705.226562 C 71.785156 701.265625 82.113281 686.523438 92.125 672.230469 C 102.253906 657.78125 112.703125 642.863281 115.289062 639.082031 C 118.058594 641.019531 120.824219 642.96875 123.589844 644.925781 C 119.386719 653.019531 83.578125 703.683594 77.660156 711.449219 C 75.097656 709.546875 74.328125 708.996094 71.382812 706.882812 Z M 82.480469 715.023438 L 81.222656 714.089844 C 80.257812 713.371094 79.453125 712.777344 78.761719 712.261719 C 84.710938 704.453125 120.050781 654.4375 124.71875 645.722656 C 138.433594 655.457031 152.046875 665.441406 165.445312 675.589844 L 118.199219 742.015625 C 113.160156 738.230469 108.164062 734.433594 103.25 730.695312 C 96.464844 725.535156 89.449219 720.195312 82.480469 715.023438 Z M 142.726562 757.339844 C 139.808594 757.679688 136.992188 755.84375 134.351562 753.929688 C 133.378906 753.226562 132.40625 752.519531 131.429688 751.8125 C 133.847656 749.316406 137.164062 747.679688 140.625 747.292969 C 144.070312 746.910156 147.78125 747.789062 150.679688 749.660156 C 146.894531 754.253906 144.003906 757.191406 142.726562 757.339844 Z M 204.378906 704.269531 C 198.175781 713.625 191.644531 723.292969 184.96875 733.007812 L 174.929688 747.613281 C 174.476562 748.269531 174.035156 748.96875 173.585938 749.671875 C 172.539062 751.324219 171.453125 753.03125 170.152344 754.339844 C 168.65625 755.839844 166.515625 756.09375 164.449219 756.226562 L 153.066406 756.949219 C 153.613281 756.292969 154.136719 755.597656 154.523438 754.789062 C 155.152344 753.480469 155.265625 752.132812 154.847656 751 C 154.507812 750.074219 153.777344 749.359375 152.933594 749.007812 C 164.238281 735.085938 180.523438 710.574219 183.75 705.6875 C 185.789062 706.234375 187.65625 705.980469 189.296875 704.914062 C 192.664062 702.722656 194.371094 697.519531 194.867188 693.46875 C 199.398438 693.183594 203.949219 693.25 208.476562 693.664062 C 208.488281 693.828125 208.511719 693.992188 208.515625 694.152344 C 208.585938 697.636719 206.683594 700.796875 204.378906 704.269531 Z M 204.378906 704.269531 " fill-opacity="1" fill-rule="nonzero"/></g></g></g><g clip-path="url(#77c6dfd0a0)"><g clip-path="url(#2812f1eb78)"><g clip-path="url(#966862ef67)"><path fill="#ffffff" d="M 134.394531 692.148438 C 134.578125 692.210938 134.78125 692.191406 134.949219 692.097656 C 135.117188 692 135.238281 691.839844 135.28125 691.648438 C 136.042969 688.207031 136.832031 684.726562 137.621094 681.246094 C 138.414062 677.761719 139.203125 674.277344 139.964844 670.832031 C 140.03125 670.535156 139.890625 670.230469 139.625 670.085938 C 134.191406 667.097656 127.972656 665.128906 120.054688 663.90625 C 119.707031 663.851562 119.378906 664.066406 119.289062 664.40625 L 114.027344 684.414062 C 113.945312 684.734375 114.101562 685.066406 114.394531 685.203125 C 114.421875 685.21875 114.445312 685.226562 114.472656 685.238281 C 117.734375 686.347656 121.082031 687.519531 124.425781 688.691406 C 127.777344 689.863281 131.128906 691.035156 134.394531 692.148438 Z M 115.515625 684.152344 L 120.457031 665.351562 C 127.707031 666.523438 133.480469 668.347656 138.515625 671.039062 C 137.789062 674.316406 137.039062 677.628906 136.285156 680.941406 C 135.554688 684.171875 134.820312 687.40625 134.109375 690.609375 C 131.078125 689.570312 127.976562 688.484375 124.875 687.402344 C 121.734375 686.300781 118.589844 685.203125 115.515625 684.152344 Z M 115.515625 684.152344 " fill-opacity="1" fill-rule="nonzero"/></g></g></g><g clip-path="url(#334d90fee3)"><g clip-path="url(#83cd9fe108)"><g clip-path="url(#2526e93b29)"><path fill="#ffffff" d="M 133.921875 679.601562 C 134.398438 677.496094 134.886719 675.316406 135.175781 673.300781 C 135.222656 672.972656 135.019531 672.652344 134.707031 672.554688 C 132.742188 671.914062 130.933594 671.3125 129.121094 670.710938 C 127.328125 670.117188 125.53125 669.519531 123.585938 668.886719 C 123.40625 668.828125 123.214844 668.84375 123.050781 668.933594 C 122.886719 669.019531 122.765625 669.171875 122.714844 669.351562 C 121.609375 673.347656 120.394531 677.59375 119.011719 681.574219 C 118.945312 681.753906 118.964844 681.957031 119.054688 682.125 C 119.125 682.25 119.230469 682.351562 119.359375 682.414062 C 119.402344 682.433594 119.449219 682.453125 119.496094 682.460938 C 121.511719 682.953125 123.59375 683.683594 125.609375 684.394531 C 127.65625 685.113281 129.769531 685.859375 131.855469 686.363281 C 132.039062 686.410156 132.238281 686.375 132.398438 686.269531 C 132.558594 686.160156 132.664062 685.992188 132.691406 685.800781 C 132.972656 683.835938 133.457031 681.683594 133.921875 679.601562 Z M 126.0625 683.105469 C 124.253906 682.46875 122.390625 681.816406 120.546875 681.320312 C 121.761719 677.742188 122.847656 673.984375 123.84375 670.40625 C 125.53125 670.957031 127.113281 671.484375 128.691406 672.007812 C 130.335938 672.554688 131.976562 673.097656 133.734375 673.671875 C 133.445312 675.476562 133.011719 677.417969 132.585938 679.300781 C 132.171875 681.148438 131.746094 683.050781 131.453125 684.851562 C 129.664062 684.375 127.835938 683.730469 126.0625 683.105469 Z M 126.0625 683.105469 " fill-opacity="1" fill-rule="nonzero"/></g></g></g><g clip-path="url(#50ba4a2183)"><g clip-path="url(#f07e60802a)"><g clip-path="url(#0a1e3d4257)"><path fill="#ffffff" d="M 132.757812 711.945312 C 133.894531 710.78125 135.066406 709.578125 136.304688 708.382812 C 136.574219 708.121094 136.582031 707.6875 136.320312 707.414062 C 134.371094 705.414062 132.570312 703.550781 130.765625 701.6875 C 128.964844 699.820312 127.160156 697.957031 125.210938 695.953125 C 125.082031 695.820312 124.90625 695.746094 124.722656 695.746094 C 124.535156 695.742188 124.359375 695.816406 124.230469 695.949219 L 117.8125 702.503906 C 117.550781 702.765625 117.550781 703.191406 117.8125 703.457031 C 121.792969 707.519531 125.316406 711.222656 128.140625 715.421875 C 128.210938 715.523438 128.304688 715.605469 128.414062 715.65625 C 128.484375 715.691406 128.558594 715.710938 128.636719 715.71875 C 128.839844 715.742188 129.039062 715.671875 129.1875 715.53125 C 130.433594 714.324219 131.617188 713.113281 132.757812 711.945312 Z M 128.8125 713.984375 C 126.125 710.132812 122.882812 706.691406 119.257812 702.980469 L 124.71875 697.40625 C 126.480469 699.21875 128.132812 700.925781 129.78125 702.632812 C 131.4375 704.34375 133.09375 706.058594 134.863281 707.875 C 133.789062 708.925781 132.769531 709.972656 131.773438 710.992188 C 130.820312 711.96875 129.835938 712.976562 128.8125 713.984375 Z M 128.8125 713.984375 " fill-opacity="1" fill-rule="nonzero"/></g></g></g><g clip-path="url(#c8d656ac63)"><g clip-path="url(#71fc06b489)"><g clip-path="url(#ca2ddee668)"><path fill="#ffffff" d="M 106.179688 711.542969 L 103.9375 708.417969 L 106.976562 704.125 C 107.136719 703.894531 107.140625 703.589844 106.984375 703.355469 C 106.832031 703.117188 106.546875 703.003906 106.269531 703.0625 L 101.871094 703.996094 L 98.554688 699.871094 C 98.40625 699.683594 98.175781 699.589844 97.941406 699.617188 C 97.707031 699.644531 97.503906 699.789062 97.402344 700 L 95.457031 704.078125 C 94.378906 703.625 92.160156 702.683594 91.425781 702.269531 C 91.136719 702.121094 90.824219 702.167969 90.605469 702.382812 C 90.390625 702.597656 90.34375 702.933594 90.496094 703.199219 L 92.367188 706.507812 L 88.027344 706.496094 C 87.726562 706.496094 87.457031 706.695312 87.371094 706.984375 C 87.285156 707.273438 87.402344 707.585938 87.65625 707.753906 L 91.257812 710.078125 L 89.332031 712.902344 C 89.1875 713.113281 89.175781 713.394531 89.304688 713.621094 C 89.433594 713.847656 89.683594 713.984375 89.941406 713.96875 L 93.414062 713.761719 L 93.578125 718.375 C 93.589844 718.628906 93.738281 718.855469 93.96875 718.96875 C 93.980469 718.972656 93.992188 718.980469 94.003906 718.984375 C 94.257812 719.085938 94.542969 719.03125 94.738281 718.84375 L 98.453125 715.292969 L 102.042969 716.847656 C 102.269531 716.949219 102.535156 716.917969 102.730469 716.769531 C 102.925781 716.621094 103.027344 716.378906 102.996094 716.132812 L 102.582031 713.085938 L 105.726562 712.613281 C 105.960938 712.578125 106.160156 712.421875 106.253906 712.207031 C 106.347656 711.988281 106.316406 711.734375 106.179688 711.542969 Z M 101.710938 711.835938 C 101.339844 711.890625 101.082031 712.230469 101.132812 712.601562 L 101.476562 715.117188 L 98.578125 713.859375 C 98.324219 713.75 98.03125 713.800781 97.832031 713.992188 L 94.890625 716.804688 L 94.757812 713.015625 C 94.75 712.832031 94.667969 712.65625 94.53125 712.53125 C 94.484375 712.488281 94.429688 712.453125 94.367188 712.421875 C 94.265625 712.371094 94.148438 712.351562 94.03125 712.355469 L 91.25 712.523438 L 92.785156 710.273438 C 92.890625 710.121094 92.929688 709.933594 92.890625 709.753906 C 92.855469 709.570312 92.746094 709.414062 92.589844 709.3125 L 90.355469 707.867188 L 93.539062 707.878906 C 93.785156 707.878906 94.007812 707.75 94.132812 707.539062 C 94.253906 707.332031 94.257812 707.070312 94.136719 706.859375 L 92.746094 704.402344 C 94.046875 704.972656 95.441406 705.550781 95.535156 705.589844 C 95.875 705.726562 96.257812 705.578125 96.414062 705.253906 L 98.171875 701.574219 L 101.066406 705.175781 C 101.230469 705.378906 101.492188 705.472656 101.746094 705.417969 L 104.847656 704.761719 L 102.539062 708.027344 C 102.371094 708.261719 102.375 708.582031 102.542969 708.816406 L 104.414062 711.429688 Z M 101.710938 711.835938 " fill-opacity="1" fill-rule="nonzero"/></g></g></g><g clip-path="url(#30f66ddede)"><path fill="#ffffff" d="M 731.09375 576.449219 C 631.101562 576.449219 549.753906 495.078125 549.753906 395.058594 C 549.753906 329.21875 585.523438 268.429688 643.109375 236.40625 C 643.511719 236.183594 644.027344 236.328125 644.253906 236.734375 C 644.476562 237.140625 644.332031 237.652344 643.925781 237.875 C 586.875 269.601562 551.433594 329.828125 551.433594 395.058594 C 551.433594 494.148438 632.027344 574.765625 731.09375 574.765625 C 796.433594 574.765625 856.703125 539.210938 888.382812 481.972656 C 888.605469 481.566406 889.121094 481.421875 889.523438 481.644531 C 889.929688 481.867188 890.078125 482.378906 889.851562 482.785156 C 857.878906 540.558594 797.046875 576.449219 731.09375 576.449219 " fill-opacity="1" fill-rule="nonzero"/></g><g clip-path="url(#ac14aa785e)"><path fill="#ffffff" d="M 699.3125 212.714844 C 698.976562 212.234375 698.3125 211.886719 697.847656 211.925781 C 697.765625 211.851562 697.679688 211.785156 697.585938 211.726562 C 696.738281 211.175781 695.355469 211.214844 693.675781 211.535156 C 691.804688 211.894531 688.695312 213.070312 686.433594 213.894531 C 684.175781 214.722656 679.304688 216.714844 676.398438 217.921875 C 675.960938 218.101562 675.328125 218.355469 674.582031 218.652344 C 673.3125 218.597656 670.816406 218.492188 669.855469 218.460938 C 668.550781 218.414062 658.851562 218.179688 658.292969 218.265625 C 657.734375 218.351562 656.964844 218.699219 656.902344 218.863281 C 656.839844 219.023438 657.039062 218.996094 657.460938 219.121094 C 657.886719 219.25 660.667969 219.765625 661.0625 219.878906 C 661.402344 219.976562 665.90625 221.050781 667.402344 221.480469 C 664.023438 222.8125 660.683594 224.136719 659.101562 224.816406 C 658.695312 224.992188 658.207031 225.207031 657.664062 225.457031 C 655.773438 225.375 654.164062 224.835938 652.980469 224.316406 C 651.695312 223.753906 644.589844 220.707031 644.09375 220.601562 C 643.601562 220.496094 641.671875 221.078125 640.546875 221.714844 C 640.984375 222.3125 645.132812 226.75 646.878906 228.714844 C 646.023438 228.710938 644.546875 228.703125 644.121094 228.757812 C 643.65625 228.824219 642.910156 229.0625 641.957031 229.570312 C 641.882812 229.609375 641.886719 229.714844 641.964844 229.746094 C 642.753906 230.089844 644.757812 230.855469 645.953125 231.269531 C 645.425781 231.558594 644.957031 231.824219 644.558594 232.058594 C 644.449219 232.105469 644.488281 232.433594 644.644531 232.785156 C 644.800781 233.136719 645.011719 233.378906 645.121094 233.339844 C 646.132812 233.285156 647.40625 233.171875 648.785156 233.011719 C 648.605469 233.453125 647.648438 235.851562 647.648438 235.851562 C 647.648438 235.851562 649.671875 235.347656 650.390625 234.980469 C 651.308594 234.515625 653.835938 233.015625 655.214844 232.148438 C 657.757812 231.757812 659.972656 231.367188 661 231.132812 C 663.441406 230.570312 671.082031 227.570312 672.351562 227.097656 C 672.710938 226.960938 673.929688 226.460938 675.496094 225.8125 C 675.714844 225.929688 675.855469 226.113281 675.917969 226.324219 C 675.945312 226.417969 675.960938 226.515625 675.953125 226.613281 L 674.523438 236.8125 L 674.441406 237.40625 C 674.433594 237.53125 674.558594 237.621094 674.671875 237.570312 L 676.464844 236.824219 C 676.613281 236.761719 676.746094 236.664062 676.851562 236.535156 C 677.226562 236.066406 678.472656 233.621094 679.796875 230.960938 C 680.363281 230.792969 680.933594 230.628906 681.496094 230.445312 C 681.851562 230.328125 682.207031 230.214844 682.546875 230.097656 C 683.152344 229.894531 683.726562 229.695312 684.238281 229.515625 C 684.464844 229.433594 684.625 229.230469 684.640625 228.996094 C 684.679688 228.460938 684.605469 227.835938 684.402344 227.199219 C 684.152344 226.425781 683.761719 225.777344 683.332031 225.355469 C 683.171875 225.195312 682.933594 225.160156 682.730469 225.25 C 682.695312 225.265625 682.652344 225.285156 682.617188 225.300781 C 683.140625 224.269531 683.53125 223.53125 683.660156 223.363281 C 683.988281 222.9375 684.496094 222.417969 684.953125 221.890625 C 685.707031 221.574219 686.269531 221.34375 686.5 221.253906 C 687.820312 220.730469 690.558594 219.53125 692.113281 218.792969 C 694.859375 217.492188 696.941406 216.183594 698.074219 215.324219 C 699.207031 214.460938 699.644531 213.195312 699.3125 212.714844 " fill-opacity="1" fill-rule="nonzero"/></g><g clip-path="url(#54e715e53b)"><path fill="#ffffff" d="M 1389.175781 743.300781 C 1388.917969 742.75 1388.726562 742.195312 1388.578125 741.621094 C 1387.109375 736.015625 1385.734375 730.378906 1384.164062 724.796875 C 1380.179688 710.632812 1376.082031 696.488281 1372.066406 682.332031 C 1371.0625 678.800781 1370.605469 675.148438 1369.878906 671.554688 C 1368.425781 664.304688 1366.613281 657.144531 1364.875 649.96875 C 1363.527344 644.386719 1362.238281 638.789062 1360.867188 633.214844 C 1360.289062 630.90625 1360.21875 630.921875 1357.976562 631.574219 C 1357.882812 631.597656 1357.765625 631.550781 1357.640625 631.535156 C 1357.425781 630.753906 1357.238281 629.960938 1356.984375 629.183594 C 1356.589844 627.980469 1356.3125 627.832031 1355.042969 627.996094 C 1354.828125 628.027344 1354.617188 628.089844 1354.394531 628.128906 C 1353.320312 628.339844 1353.335938 628.332031 1353.023438 627.203125 C 1352.523438 625.410156 1351.972656 623.632812 1351.484375 621.832031 C 1351.277344 621.09375 1350.890625 620.835938 1350.164062 621.101562 C 1349.960938 621.179688 1349.746094 621.234375 1349.542969 621.3125 C 1348.855469 621.574219 1348.429688 621.488281 1348.238281 620.644531 C 1347.914062 619.207031 1347.195312 617.886719 1346.882812 616.433594 C 1346.738281 615.773438 1346.367188 615.410156 1345.5625 615.742188 C 1344.925781 616 1344.285156 616.386719 1343.488281 616.328125 C 1343.425781 616.0625 1343.371094 615.796875 1343.304688 615.535156 C 1343.242188 615.269531 1343.179688 615 1343.101562 614.742188 C 1342.730469 613.554688 1342.351562 613.3125 1341.167969 613.757812 C 1336.242188 615.636719 1331.144531 617.070312 1326.335938 619.238281 C 1314.222656 624.703125 1301.863281 629.558594 1289.660156 634.820312 C 1281.476562 638.347656 1273.523438 642.296875 1265.898438 646.902344 C 1263.347656 648.441406 1261.058594 650.3125 1259.054688 652.53125 C 1258.273438 653.386719 1257.894531 654.386719 1257.816406 655.5 C 1257.714844 656.871094 1257.714844 658.246094 1257.933594 659.597656 C 1259.363281 668.292969 1261.203125 676.90625 1263.410156 685.4375 C 1267.546875 701.378906 1271.746094 717.304688 1276.355469 733.121094 C 1279.269531 743.097656 1281.871094 753.175781 1285.273438 763.011719 C 1285.683594 764.195312 1286.132812 765.382812 1286.449219 766.59375 C 1287.105469 769.117188 1288.089844 769.925781 1290.679688 770 C 1293.0625 770.070312 1295.390625 769.644531 1297.695312 769.164062 C 1303.125 768.039062 1308.539062 766.832031 1313.96875 765.722656 C 1320.640625 764.355469 1327.371094 763.292969 1333.96875 761.585938 C 1344.394531 758.882812 1354.59375 755.441406 1364.90625 752.382812 C 1372.585938 750.101562 1380.03125 747.066406 1387.84375 745.21875 C 1388 745.179688 1388.160156 745.117188 1388.308594 745.054688 C 1389.238281 744.695312 1389.5625 744.167969 1389.160156 743.300781 Z M 1350.859375 622.988281 C 1351.386719 624.585938 1351.640625 626.257812 1351.925781 627.917969 C 1352.066406 628.75 1351.402344 628.757812 1350.898438 628.867188 C 1348.484375 629.402344 1346.070312 629.898438 1343.660156 630.449219 C 1328.238281 633.96875 1312.96875 638.042969 1297.824219 642.585938 C 1289.464844 645.09375 1280.980469 647.175781 1272.691406 649.929688 C 1272.605469 649.960938 1272.488281 649.914062 1272.386719 649.898438 C 1275.449219 647.828125 1345.390625 623.828125 1350.867188 622.980469 Z M 1344.261719 617.910156 C 1346.046875 617.25 1346.035156 617.226562 1346.511719 618.988281 C 1346.636719 619.457031 1346.761719 619.9375 1346.898438 620.410156 C 1347.03125 620.882812 1347.164062 621.34375 1347.316406 621.863281 C 1319.90625 630.605469 1293.183594 641.101562 1266.324219 651.226562 C 1267.707031 650.265625 1269.253906 649.652344 1270.75 648.945312 C 1284.304688 642.5625 1298.089844 636.746094 1311.917969 630.992188 C 1322.652344 626.527344 1333.339844 621.941406 1344.253906 617.910156 Z M 1266.578125 648.378906 C 1275.3125 642.632812 1284.632812 638.003906 1294.238281 633.875 C 1305.074219 629.214844 1316.117188 625.03125 1326.929688 620.308594 C 1328.585938 619.585938 1330.324219 619.042969 1332.019531 618.421875 C 1335.199219 617.25 1338.5 616.378906 1341.5625 614.84375 C 1341.6875 615.0625 1341.816406 615.191406 1341.839844 615.332031 C 1342.195312 617.390625 1342.175781 617.007812 1340.511719 617.660156 C 1317.300781 626.738281 1294.335938 636.390625 1271.984375 647.429688 C 1268.351562 649.21875 1264.769531 651.089844 1261.164062 652.929688 C 1262.703125 651.097656 1264.597656 649.691406 1266.570312 648.394531 Z M 1262.976562 653.960938 C 1270.5625 651.1875 1278.367188 649.148438 1286.195312 647.214844 C 1297.917969 644.316406 1309.457031 640.761719 1321.136719 637.71875 C 1331.808594 634.9375 1342.523438 632.335938 1353.3125 630.0625 C 1353.683594 629.984375 1354.078125 629.960938 1354.449219 629.898438 C 1355.832031 629.671875 1355.761719 629.679688 1356.09375 631 C 1356.3125 631.878906 1355.824219 632.050781 1355.207031 632.210938 C 1351.964844 633.042969 1348.71875 633.859375 1345.476562 634.695312 C 1335.4375 637.28125 1325.40625 639.921875 1315.351562 642.453125 C 1300.5625 646.179688 1285.738281 649.761719 1270.824219 652.976562 C 1268.304688 653.519531 1265.8125 654.179688 1263.300781 654.792969 C 1262.574219 654.976562 1261.839844 655.085938 1260.816406 654.910156 C 1261.636719 654.339844 1262.324219 654.195312 1262.96875 653.960938 Z M 1385.980469 743.484375 C 1381.339844 745.355469 1376.523438 746.699219 1371.757812 748.167969 C 1358.648438 752.207031 1345.570312 756.375 1332.304688 759.890625 C 1325.824219 761.601562 1319.203125 762.664062 1312.644531 764.023438 C 1307.214844 765.148438 1301.863281 766.632812 1296.457031 767.84375 C 1295.226562 768.121094 1293.988281 768.371094 1292.738281 768.582031 C 1291.816406 768.742188 1290.886719 768.796875 1289.953125 768.605469 C 1288.824219 768.378906 1288.164062 767.757812 1287.808594 766.625 C 1285.28125 758.648438 1282.867188 750.628906 1280.65625 742.554688 C 1278.953125 736.328125 1277.222656 730.109375 1275.375 723.925781 C 1271.589844 711.230469 1268.550781 698.34375 1265.164062 685.546875 C 1263.4375 679.039062 1262.300781 672.402344 1260.855469 665.832031 C 1260.308594 663.371094 1259.820312 660.902344 1259.324219 658.441406 C 1259.179688 657.75 1259.023438 657.058594 1259.261719 656.289062 C 1261.683594 656.765625 1263.996094 656.097656 1266.253906 655.523438 C 1275.09375 653.285156 1284.074219 651.679688 1292.929688 649.527344 C 1307.703125 645.925781 1322.503906 642.414062 1337.191406 638.472656 C 1344.238281 636.589844 1351.386719 635.078125 1358.414062 633.066406 C 1359.445312 632.765625 1359.515625 632.800781 1359.785156 633.828125 C 1360.425781 636.320312 1360.859375 638.851562 1361.433594 641.359375 C 1362.957031 647.90625 1364.332031 654.496094 1365.800781 661.058594 C 1367.242188 667.519531 1368.4375 674.03125 1369.832031 680.5 C 1371.007812 685.949219 1372.59375 691.316406 1374.394531 696.597656 C 1375.964844 701.222656 1377.140625 705.9375 1378.261719 710.679688 C 1379.738281 716.914062 1381.796875 722.988281 1383.359375 729.191406 C 1384.417969 733.390625 1385.726562 737.5 1386.902344 741.660156 C 1387.289062 743.011719 1387.257812 743.003906 1386.003906 743.507812 Z M 1385.980469 743.484375 " fill-opacity="1" fill-rule="nonzero"/></g><path fill="#ffffff" d="M 1346.109375 696.246094 C 1343.023438 692.511719 1338.910156 690.789062 1334.402344 689.769531 C 1331.5 689.109375 1328.546875 689.109375 1325.597656 689.785156 C 1322.660156 690.460938 1319.613281 690.828125 1316.835938 692.007812 C 1309.921875 694.941406 1305.390625 700.136719 1303.015625 707.203125 C 1302.34375 709.191406 1302.101562 711.285156 1302.21875 713.351562 C 1302.613281 720.042969 1305.019531 726.015625 1309.109375 731.3125 C 1311.808594 734.8125 1315.28125 737.164062 1319.628906 738.207031 C 1321.832031 738.734375 1324.058594 739.003906 1326.296875 739.003906 C 1333.882812 739.113281 1340.394531 736.691406 1345.683594 731.125 C 1350.441406 726.117188 1353.140625 720.308594 1352.792969 713.382812 C 1352.476562 706.992188 1350.234375 701.261719 1346.101562 696.253906 Z M 1335.832031 692.347656 C 1335.105469 693.351562 1334.167969 693.785156 1333.332031 694.335938 C 1333.078125 694.5 1332.792969 694.460938 1332.574219 694.257812 C 1331.492188 693.273438 1330.261719 692.488281 1329.070312 691.59375 C 1331.332031 691.527344 1333.496094 691.914062 1335.839844 692.347656 Z M 1317.5 716.386719 C 1320.433594 715.695312 1323.386719 715.058594 1326.320312 714.324219 C 1327.101562 714.128906 1327.402344 714.359375 1327.617188 715.066406 C 1328.421875 717.683594 1329.265625 720.285156 1330.085938 722.894531 C 1330.132812 723.050781 1330.171875 723.210938 1330.210938 723.375 C 1330.332031 723.824219 1330.03125 723.925781 1329.691406 724.027344 C 1327.214844 724.757812 1324.789062 725.628906 1322.453125 726.746094 C 1321.839844 727.046875 1321.5625 726.792969 1321.269531 726.3125 C 1319.605469 723.539062 1318.042969 720.71875 1316.835938 717.707031 C 1316.425781 716.675781 1316.449219 716.636719 1317.5 716.386719 Z M 1315.582031 714.089844 C 1314.648438 710.796875 1314.160156 707.472656 1314.609375 704.042969 C 1314.671875 703.589844 1314.71875 703.15625 1315.296875 703.09375 C 1317.8125 702.839844 1320.292969 702.425781 1322.738281 701.703125 C 1323.371094 701.589844 1323.402344 702.109375 1323.535156 702.511719 C 1324.183594 704.484375 1324.824219 706.457031 1325.46875 708.429688 C 1325.753906 709.3125 1326.046875 710.199219 1326.3125 711.085938 C 1326.621094 712.117188 1326.589844 712.179688 1325.578125 712.441406 C 1323.347656 713.003906 1321.113281 713.546875 1318.878906 714.113281 C 1318.183594 714.285156 1317.507812 714.492188 1316.820312 714.695312 C 1316.203125 714.882812 1315.792969 714.820312 1315.582031 714.089844 Z M 1328.769531 711.644531 C 1328.175781 711.683594 1328.113281 711.175781 1327.972656 710.789062 C 1327.03125 708.273438 1326.109375 705.757812 1325.183594 703.242188 C 1324.695312 701.90625 1325.09375 700.953125 1326.378906 700.386719 C 1328.335938 699.523438 1330.253906 698.558594 1332.058594 697.410156 C 1332.839844 696.914062 1333.179688 697.132812 1333.597656 697.808594 C 1335.609375 701.058594 1336.84375 704.617188 1337.949219 708.242188 C 1338.082031 708.683594 1338.144531 709.097656 1337.527344 709.261719 C 1334.671875 710.035156 1331.816406 710.828125 1328.949219 711.605469 C 1328.894531 711.621094 1328.839844 711.628906 1328.769531 711.644531 Z M 1325.878906 691.671875 C 1326.457031 691.59375 1326.945312 691.765625 1327.433594 692.054688 C 1328.902344 692.921875 1330.269531 693.902344 1331.414062 695.144531 C 1331.347656 695.664062 1330.921875 695.75 1330.609375 695.914062 C 1328.617188 696.953125 1326.613281 697.953125 1324.507812 698.746094 C 1323.84375 698.996094 1323.535156 698.894531 1323.257812 698.242188 C 1322.445312 696.324219 1322.179688 694.28125 1321.460938 692.203125 C 1323.078125 692.007812 1324.484375 691.851562 1325.886719 691.664062 Z M 1320.054688 692.355469 C 1320.84375 694.632812 1321.546875 696.679688 1322.265625 698.722656 C 1322.382812 699.066406 1322.445312 699.40625 1322.027344 699.53125 C 1319.84375 700.175781 1317.648438 700.78125 1315.128906 701.082031 C 1316.132812 697.675781 1317.152344 694.632812 1320.054688 692.355469 Z M 1317.449219 693.597656 C 1315.738281 695.984375 1314.578125 698.242188 1313.859375 700.71875 C 1313.726562 701.183594 1313.394531 701.441406 1312.90625 701.480469 C 1311.390625 701.605469 1309.875 701.828125 1308.328125 701.703125 C 1308.992188 699.34375 1313.859375 694.933594 1317.457031 693.605469 Z M 1304.484375 710.90625 C 1304.6875 708.375 1305.421875 705.984375 1306.660156 703.753906 C 1307.277344 702.636719 1307.269531 702.652344 1308.523438 702.839844 C 1309.714844 703.015625 1310.90625 703.21875 1312.125 703.164062 C 1312.839844 703.132812 1313.203125 703.28125 1313.078125 704.175781 C 1312.589844 707.574219 1312.914062 710.929688 1313.773438 714.238281 C 1314.082031 715.410156 1314.058594 715.441406 1312.851562 715.796875 C 1310.332031 716.527344 1307.804688 717.234375 1305.179688 717.980469 C 1304.4375 715.574219 1304.292969 713.25 1304.476562 710.90625 Z M 1311.546875 730.898438 C 1309.867188 728.925781 1308.539062 726.722656 1307.417969 724.402344 C 1306.613281 722.730469 1305.886719 721.023438 1305.453125 719.160156 C 1306.1875 718.585938 1306.945312 718.753906 1307.632812 718.59375 C 1309.605469 718.148438 1311.609375 717.777344 1313.574219 717.289062 C 1314.300781 717.109375 1314.65625 717.164062 1314.933594 717.917969 C 1316.070312 721.070312 1317.703125 723.980469 1319.457031 726.824219 C 1320.070312 727.832031 1320.054688 727.839844 1319.070312 728.398438 C 1317.347656 729.371094 1315.628906 730.324219 1313.921875 731.3125 C 1312.589844 732.09375 1312.597656 732.125 1311.546875 730.898438 Z M 1313.480469 732.660156 C 1315.675781 731.394531 1317.972656 730.394531 1320.246094 729.339844 C 1320.726562 729.113281 1321.074219 729.246094 1321.375 729.664062 C 1323.558594 732.660156 1326.566406 734.664062 1329.753906 736.496094 C 1324.910156 737.964844 1316.675781 736.21875 1313.480469 732.667969 Z M 1333.589844 736.179688 C 1333.140625 736.257812 1332.714844 736.304688 1332.3125 736.09375 C 1328.800781 734.152344 1325.453125 731.996094 1322.96875 728.757812 C 1322.90625 728.679688 1322.898438 728.554688 1322.839844 728.382812 C 1324.308594 727.539062 1325.941406 727.140625 1327.546875 726.644531 C 1328.429688 726.371094 1329.34375 726.1875 1330.246094 725.960938 C 1330.765625 725.828125 1331.035156 726.015625 1331.207031 726.535156 C 1332.179688 729.425781 1333.15625 732.320312 1334.175781 735.199219 C 1334.402344 735.851562 1334.230469 736.078125 1333.582031 736.1875 Z M 1340.179688 725.90625 C 1339.976562 727.910156 1339.722656 729.914062 1339.398438 731.902344 C 1339.074219 733.851562 1338.175781 735.125 1335.894531 735.371094 C 1334.941406 732.382812 1333.835938 729.480469 1333 726.480469 C 1332.800781 725.765625 1332.808594 725.347656 1333.703125 725.269531 C 1335.5 725.105469 1337.292969 724.851562 1339.089844 724.703125 C 1340.203125 724.609375 1340.300781 724.773438 1340.1875 725.90625 Z M 1339.582031 722.359375 C 1337.332031 722.460938 1335.105469 722.761719 1332.921875 723.273438 C 1332.273438 723.421875 1332.035156 723.121094 1331.863281 722.582031 C 1331.003906 719.875 1330.132812 717.171875 1329.257812 714.476562 C 1329.085938 713.949219 1329.195312 713.65625 1329.746094 713.507812 C 1332.4375 712.753906 1335.121094 712 1337.796875 711.214844 C 1338.53125 711 1338.800781 711.339844 1338.925781 711.953125 C 1339.527344 714.835938 1340.09375 717.722656 1340.269531 720.671875 C 1340.269531 721 1340.269531 721.324219 1340.269531 721.652344 C 1340.269531 722.117188 1340.0625 722.335938 1339.582031 722.359375 Z M 1339.660156 707.597656 C 1338.878906 704.632812 1337.882812 701.742188 1336.34375 699.066406 C 1335.933594 698.359375 1335.484375 697.675781 1335.027344 696.992188 C 1334.371094 696.027344 1334.363281 696.035156 1335.207031 695.355469 C 1335.980469 694.746094 1336.746094 694.125 1337.511719 693.511719 C 1337.765625 693.304688 1337.980469 693.039062 1338.515625 693.101562 C 1339.351562 693.40625 1340.355469 693.730469 1341.183594 694.375 C 1344.625 697.046875 1347.195312 700.394531 1348.933594 704.390625 C 1349.121094 704.828125 1349.429688 705.285156 1348.65625 705.546875 C 1346.070312 706.433594 1343.480469 707.335938 1340.914062 708.273438 C 1340.164062 708.546875 1339.875 708.382812 1339.667969 707.597656 Z M 1341.007812 732.800781 C 1340.597656 732.648438 1340.710938 732.398438 1340.75 732.226562 C 1341.167969 730.144531 1341.402344 728.027344 1341.5625 725.90625 C 1341.625 725.03125 1341.941406 724.820312 1342.792969 724.898438 C 1344.425781 725.039062 1346.035156 725.285156 1347.90625 725.589844 C 1345.980469 728.679688 1343.660156 730.929688 1341.007812 732.800781 Z M 1349.507812 722.507812 C 1349.3125 722.980469 1349.132812 723.40625 1348.453125 723.234375 C 1346.480469 722.738281 1344.441406 722.613281 1342.429688 722.390625 C 1341.75 722.3125 1341.632812 722.023438 1341.65625 721.449219 C 1341.78125 718.089844 1341.207031 714.804688 1340.589844 711.535156 C 1340.425781 710.640625 1340.671875 710.300781 1341.5 710.011719 C 1343.96875 709.121094 1346.421875 708.171875 1348.855469 707.171875 C 1349.605469 706.867188 1349.9375 706.992188 1350.148438 707.753906 C 1350.773438 709.980469 1350.984375 712.257812 1351.199219 714.398438 C 1351.007812 717.28125 1350.597656 719.96875 1349.507812 722.515625 Z M 1349.507812 722.507812 " fill-opacity="1" fill-rule="nonzero"/><path fill="#ffffff" d="M 1358.105469 669.429688 C 1356.746094 668.953125 1355.507812 669.085938 1354.449219 670.125 C 1354 670.5625 1353.582031 670.949219 1352.878906 670.617188 C 1351.492188 669.964844 1350.332031 670.257812 1349.40625 671.492188 C 1349.050781 671.96875 1348.570312 672.207031 1347.96875 671.875 C 1346.296875 670.949219 1344.875 671.523438 1343.644531 672.703125 C 1342.675781 673.636719 1341.664062 673.914062 1340.355469 673.457031 C 1339.140625 673.03125 1337.941406 673.203125 1337.046875 674.265625 C 1336.351562 675.097656 1335.445312 675.242188 1334.507812 674.980469 C 1332.613281 674.460938 1331.050781 675.027344 1329.660156 676.277344 C 1329.011719 676.859375 1328.289062 677.136719 1327.394531 677.007812 C 1325.675781 676.765625 1324.136719 677.191406 1322.808594 678.355469 C 1322.273438 678.824219 1321.648438 679.226562 1320.867188 679.046875 C 1319.15625 678.644531 1317.726562 679.210938 1316.480469 680.34375 C 1315.636719 681.113281 1314.742188 681.355469 1313.625 680.964844 C 1312.667969 680.632812 1311.648438 680.59375 1310.804688 681.316406 C 1309.804688 682.183594 1308.683594 682.332031 1307.417969 682.105469 C 1305.945312 681.835938 1304.554688 682.039062 1303.527344 683.28125 C 1303.046875 683.863281 1302.441406 684.039062 1301.761719 683.816406 C 1300.144531 683.296875 1298.847656 683.847656 1297.710938 684.949219 C 1296.851562 685.773438 1295.855469 686.074219 1294.6875 685.804688 C 1293.417969 685.507812 1292.296875 685.789062 1291.34375 686.695312 C 1290.878906 687.132812 1290.308594 687.371094 1289.6875 687.125 C 1288.296875 686.578125 1287.339844 687.160156 1286.601562 688.273438 C 1286.179688 688.910156 1285.636719 689.125 1284.902344 688.933594 C 1284.640625 688.871094 1284.359375 688.863281 1284.160156 688.832031 C 1283.144531 688.839844 1282.210938 688.917969 1281.453125 689.570312 C 1281.28125 689.722656 1281.210938 689.949219 1281.304688 690.167969 C 1281.414062 690.414062 1281.636719 690.414062 1281.855469 690.328125 C 1282.765625 689.988281 1283.742188 689.972656 1284.617188 690.207031 C 1285.953125 690.570312 1286.859375 690.253906 1287.53125 689.09375 C 1287.941406 688.375 1288.550781 688.140625 1289.347656 688.40625 C 1290.339844 688.738281 1291.183594 688.449219 1291.894531 687.722656 C 1292.699219 686.90625 1293.671875 686.671875 1294.769531 686.9375 C 1296.007812 687.246094 1297.074219 686.914062 1297.941406 686.042969 C 1299.09375 684.886719 1300.371094 684.40625 1301.972656 684.949219 C 1302.730469 685.199219 1303.417969 685.011719 1303.90625 684.40625 C 1304.910156 683.179688 1306.203125 683.015625 1307.632812 683.320312 C 1308.949219 683.605469 1310.132812 683.394531 1311.167969 682.488281 C 1311.753906 681.976562 1312.414062 681.804688 1313.15625 682.105469 C 1314.777344 682.757812 1316.132812 682.363281 1317.363281 681.175781 C 1318.183594 680.382812 1319.195312 679.996094 1320.386719 680.25 C 1321.546875 680.492188 1322.558594 680.160156 1323.425781 679.367188 C 1324.46875 678.425781 1325.699219 678.046875 1327.078125 678.242188 C 1328.320312 678.425781 1329.367188 678.09375 1330.238281 677.214844 C 1331.429688 676.011719 1332.832031 675.632812 1334.457031 676.097656 C 1335.714844 676.453125 1336.753906 676.113281 1337.5625 675.136719 C 1338.246094 674.296875 1339.132812 674.046875 1340.0625 674.414062 C 1341.847656 675.121094 1343.265625 674.722656 1344.5 673.332031 C 1344.671875 673.132812 1344.933594 673 1345.160156 672.851562 C 1345.808594 672.425781 1346.449219 672.402344 1347.179688 672.734375 C 1348.957031 673.527344 1348.972656 673.496094 1350.265625 672.144531 C 1351.144531 671.230469 1351.417969 671.105469 1352.546875 671.726562 C 1353.488281 672.246094 1354.191406 672.199219 1354.835938 671.351562 C 1355.46875 670.523438 1356.3125 670.273438 1357.316406 670.398438 C 1357.527344 670.429688 1357.757812 670.414062 1357.96875 670.421875 C 1358.269531 670.421875 1358.5625 670.320312 1358.59375 670.019531 C 1358.632812 669.730469 1358.363281 669.558594 1358.097656 669.464844 Z M 1358.105469 669.429688 " fill-opacity="1" fill-rule="nonzero"/><path fill="#ffffff" d="M 1334.679688 660.351562 C 1334.476562 663.558594 1335.167969 666.65625 1335.886719 669.738281 C 1335.996094 670.226562 1336.023438 670.910156 1336.769531 670.902344 C 1337.253906 670.902344 1338.066406 669.886719 1338.050781 669.351562 C 1338.035156 668.976562 1337.890625 668.605469 1337.84375 668.230469 C 1337.742188 667.488281 1337.285156 666.796875 1337.480469 665.996094 C 1338.375 666.097656 1339.035156 666.632812 1339.785156 666.949219 C 1340.75 667.347656 1341.679688 667.8125 1342.660156 668.164062 C 1343.226562 668.371094 1344.183594 667.75 1344.324219 667.175781 C 1344.480469 666.546875 1343.992188 666.304688 1343.558594 666.082031 C 1343.125 665.855469 1342.652344 665.691406 1342.210938 665.46875 C 1341.230469 664.996094 1340.164062 664.699219 1339.210938 664.039062 C 1340.117188 662.945312 1341.027344 661.925781 1341.4375 660.585938 C 1341.996094 658.773438 1341.269531 657.246094 1339.445312 656.742188 C 1338.328125 656.429688 1337.125 656.328125 1336.148438 657.128906 C 1335.628906 657.5625 1335.214844 657.453125 1334.601562 657.082031 C 1334.277344 658.300781 1334.742188 659.3125 1334.671875 660.34375 Z M 1336.351562 659.917969 C 1336.480469 658.472656 1337.449219 657.851562 1338.855469 658.285156 C 1339.890625 658.597656 1340.195312 659.273438 1339.746094 660.28125 C 1339.25 661.40625 1338.453125 662.285156 1337.425781 662.945312 C 1336.8125 663.347656 1336.542969 663.230469 1336.425781 662.515625 C 1336.335938 661.980469 1336.335938 661.4375 1336.296875 660.894531 C 1336.3125 660.894531 1336.328125 660.894531 1336.335938 660.894531 C 1336.335938 660.570312 1336.3125 660.242188 1336.335938 659.917969 Z M 1336.351562 659.917969 " fill-opacity="1" fill-rule="nonzero"/><path fill="#ffffff" d="M 1287.65625 682.457031 C 1288.25 682.511719 1288.582031 681.914062 1288.777344 681.402344 C 1288.886719 681.113281 1288.816406 680.757812 1288.816406 680.429688 C 1288.816406 679.5 1288.855469 678.566406 1288.792969 677.636719 C 1288.746094 676.890625 1289.046875 676.523438 1289.757812 676.386719 C 1290.617188 676.222656 1291.507812 676.128906 1292.320312 675.824219 C 1293.140625 675.507812 1293.394531 675.847656 1293.617188 676.515625 C 1294.035156 677.757812 1294.46875 679 1294.925781 680.226562 C 1295.066406 680.601562 1295.050781 681.199219 1295.636719 681.199219 C 1296.171875 681.199219 1296.480469 680.734375 1296.742188 680.320312 C 1297.027344 679.863281 1296.9375 679.367188 1296.789062 678.886719 C 1295.613281 675.289062 1294.121094 671.828125 1291.917969 668.714844 C 1291.636719 668.324219 1291.289062 667.945312 1290.894531 667.671875 C 1289.675781 666.820312 1288.691406 667.167969 1288.242188 668.566406 C 1288.074219 669.085938 1287.964844 669.628906 1287.878906 670.164062 C 1287.453125 672.695312 1287.167969 675.25 1287.167969 677.898438 C 1286.96875 678.96875 1287.167969 680.113281 1287.167969 681.261719 C 1287.167969 681.703125 1287.011719 682.402344 1287.664062 682.457031 Z M 1289.71875 669.28125 C 1290.964844 670.671875 1291.644531 672.011719 1292.226562 673.503906 C 1291.128906 673.953125 1290.089844 674.375 1288.855469 674.878906 C 1288.730469 672.90625 1289.179688 671.207031 1289.71875 669.28125 Z M 1289.71875 669.28125 " fill-opacity="1" fill-rule="nonzero"/><path fill="#ffffff" d="M 1315.976562 676.859375 C 1316.636719 676.875 1317.070312 676.207031 1317.386719 675.625 C 1317.664062 675.113281 1317.601562 674.566406 1317.484375 674.023438 C 1317.347656 673.378906 1317.214844 672.734375 1317.015625 672.113281 C 1316.726562 671.214844 1316.890625 670.640625 1317.765625 670.082031 C 1319.265625 669.132812 1320.464844 667.835938 1321.105469 666.136719 C 1321.792969 664.3125 1321.058594 662.773438 1319.203125 662.113281 C 1318.074219 661.710938 1316.953125 661.757812 1315.808594 662.066406 C 1315.128906 662.246094 1314.523438 662.664062 1313.75 662.53125 C 1313.164062 662.433594 1313.261719 662.960938 1313.238281 663.269531 C 1313.226562 663.953125 1314.824219 674.359375 1315.121094 675.460938 C 1315.273438 676.011719 1315.25 676.851562 1315.976562 676.867188 Z M 1315.785156 663.144531 C 1316.773438 663 1317.757812 662.960938 1318.667969 663.488281 C 1319.605469 664.03125 1319.753906 664.550781 1319.296875 665.515625 C 1318.738281 666.695312 1317.679688 667.671875 1316.132812 668.394531 C 1315.730469 666.964844 1315.335938 665.648438 1314.988281 664.335938 C 1314.75 663.441406 1314.863281 663.285156 1315.777344 663.152344 Z M 1315.785156 663.144531 " fill-opacity="1" fill-rule="nonzero"/><path fill="#ffffff" d="M 1344.363281 657.578125 C 1344.964844 657.484375 1345.5625 657.402344 1346.148438 657.253906 C 1346.96875 657.050781 1347.269531 657.261719 1347.386719 658.175781 C 1347.765625 660.996094 1347.882812 663.835938 1348.214844 666.65625 C 1348.277344 667.191406 1348.222656 667.898438 1348.839844 668.039062 C 1349.519531 668.199219 1349.871094 667.535156 1350.210938 667.050781 C 1350.496094 666.640625 1350.628906 666.152344 1350.621094 665.648438 C 1350.621094 664.941406 1350.644531 664.226562 1350.589844 663.519531 C 1350.457031 661.664062 1350.292969 659.816406 1349.96875 657.984375 C 1349.691406 656.429688 1349.722656 656.40625 1351.207031 655.941406 C 1352.003906 655.691406 1352.769531 655.40625 1353.34375 654.777344 C 1353.527344 654.582031 1353.660156 654.339844 1353.796875 654.140625 C 1353.738281 653.71875 1353.511719 653.480469 1353.1875 653.386719 C 1352.429688 653.160156 1351.671875 653.222656 1350.921875 653.464844 C 1348.886719 654.125 1346.851562 654.769531 1344.8125 655.429688 C 1344.449219 655.550781 1344.09375 655.707031 1343.773438 655.902344 C 1343.328125 656.175781 1343.3125 656.625 1343.457031 657.066406 C 1343.589844 657.492188 1343.9375 657.648438 1344.363281 657.578125 Z M 1344.363281 657.578125 " fill-opacity="1" fill-rule="nonzero"/><path fill="#ffffff" d="M 1281.4375 683.761719 C 1281.167969 682.820312 1280.980469 681.851562 1280.6875 680.917969 C 1280.453125 680.136719 1280.601562 679.597656 1281.265625 679.078125 C 1282.394531 678.195312 1283.339844 677.144531 1283.972656 675.832031 C 1284.632812 674.445312 1285.148438 673.03125 1284.027344 671.6875 C 1282.9375 670.382812 1281.421875 670.492188 1279.921875 670.746094 C 1279.8125 670.761719 1279.710938 670.800781 1279.605469 670.839844 C 1279.007812 671.082031 1278.460938 671.339844 1277.761719 670.957031 C 1277.269531 670.679688 1276.9375 671.027344 1276.949219 671.601562 C 1276.949219 671.820312 1276.949219 672.035156 1276.949219 672.316406 C 1277.183594 673.871094 1277.390625 675.5 1277.671875 677.113281 C 1278.140625 679.691406 1278.542969 682.277344 1279.257812 684.800781 C 1279.394531 685.265625 1279.488281 685.875 1280.058594 685.925781 C 1280.648438 685.980469 1280.988281 685.445312 1281.320312 685.003906 C 1281.621094 684.609375 1281.554688 684.203125 1281.429688 683.761719 Z M 1280.050781 677.820312 C 1279.386719 676.144531 1279.210938 674.453125 1278.730469 672.851562 C 1278.566406 672.292969 1278.890625 672.035156 1279.402344 671.976562 C 1279.945312 671.921875 1280.492188 671.84375 1281.035156 671.882812 C 1282.820312 672.011719 1283.332031 672.914062 1282.558594 674.535156 C 1281.976562 675.765625 1281.195312 676.859375 1280.050781 677.8125 Z M 1280.050781 677.820312 " fill-opacity="1" fill-rule="nonzero"/><path fill="#ffffff" d="M 1324.902344 672.617188 C 1326.117188 674.34375 1327.757812 674.605469 1329.40625 673.308594 C 1331.59375 671.585938 1332.476562 669.265625 1332.492188 666.554688 C 1332.484375 664.132812 1331.941406 662.417969 1330.726562 661.058594 C 1328.730469 658.8125 1325.539062 659.296875 1324.402344 662.035156 C 1323.300781 664.699219 1323.195312 667.441406 1323.820312 670.234375 C 1324.007812 671.097656 1324.378906 671.890625 1324.886719 672.617188 Z M 1324.964844 663.699219 C 1325.121094 662.386719 1325.949219 661.695312 1327.183594 661.40625 C 1328.253906 661.152344 1329.179688 661.578125 1329.960938 662.6875 C 1331.679688 665.117188 1331.261719 669.257812 1329.085938 671.300781 C 1327.8125 672.488281 1326.78125 672.378906 1325.878906 670.878906 C 1324.988281 669.375 1324.742188 667.710938 1324.734375 665.980469 C 1324.804688 665.21875 1324.871094 664.457031 1324.957031 663.699219 Z M 1324.964844 663.699219 " fill-opacity="1" fill-rule="nonzero"/><path fill="#ffffff" d="M 1307.160156 672.253906 C 1307.742188 672.550781 1308.367188 672.796875 1308.910156 673.148438 C 1309.765625 673.714844 1309.867188 674.132812 1309.519531 675.105469 C 1309.257812 675.832031 1308.863281 676.492188 1308.398438 677.105469 C 1308.058594 677.558594 1307.847656 678.046875 1307.957031 678.628906 C 1308.027344 678.976562 1308.167969 679.25 1308.722656 679.195312 C 1308.855469 679.109375 1309.101562 678.976562 1309.304688 678.808594 C 1310.488281 677.84375 1311.246094 676.601562 1311.691406 675.15625 C 1312.21875 673.417969 1311.664062 671.859375 1310.132812 670.894531 C 1309.582031 670.546875 1308.957031 670.3125 1308.367188 670.019531 C 1306.960938 669.328125 1306.71875 668.496094 1307.523438 667.121094 C 1307.886719 666.492188 1308.445312 666.050781 1308.980469 665.578125 C 1309.140625 665.4375 1309.265625 665.226562 1309.148438 664.996094 C 1309.039062 664.785156 1308.808594 664.753906 1308.585938 664.730469 C 1308.191406 664.699219 1307.832031 664.792969 1307.492188 665.003906 C 1306.449219 665.675781 1305.636719 666.53125 1305.257812 667.742188 C 1304.648438 669.691406 1305.328125 671.316406 1307.152344 672.238281 Z M 1307.160156 672.253906 " fill-opacity="1" fill-rule="nonzero"/><path fill="#ffffff" d="M 1299.898438 674.023438 C 1300.648438 674.171875 1301.398438 674.351562 1302.078125 674.730469 C 1302.566406 674.996094 1302.777344 675.34375 1302.535156 675.941406 C 1302.203125 676.75 1301.808594 677.527344 1301.335938 678.265625 C 1301.097656 678.636719 1300.820312 678.984375 1300.804688 679.445312 C 1300.789062 679.839844 1300.820312 680.242188 1301.183594 680.46875 C 1301.601562 680.726562 1301.902344 680.421875 1302.195312 680.175781 C 1303.332031 679.234375 1303.988281 677.984375 1304.460938 676.632812 C 1305.210938 674.492188 1304.585938 673.179688 1302.433594 672.386719 C 1301.714844 672.121094 1300.964844 671.953125 1300.222656 671.773438 C 1299.644531 671.632812 1299.21875 671.375 1299.078125 670.753906 C 1298.660156 669 1299.820312 667.371094 1301.738281 667.246094 C 1300.933594 665.996094 1300.277344 665.800781 1299.304688 666.515625 C 1298.144531 667.371094 1297.523438 668.574219 1297.316406 669.972656 C 1297.035156 671.988281 1297.765625 673.589844 1299.90625 674.023438 Z M 1299.898438 674.023438 " fill-opacity="1" fill-rule="nonzero"/></svg>
