<svg xmlns="http://www.w3.org/2000/svg" xmlns:xlink="http://www.w3.org/1999/xlink" width="1920" zoomAndPan="magnify" viewBox="0 0 1440 809.999993" height="1080" preserveAspectRatio="xMidYMid meet" version="1.0"><defs><clipPath id="9769ee7247"><path d="M 693.675781 28.347656 L 746.175781 28.347656 L 746.175781 80.847656 L 693.675781 80.847656 Z M 693.675781 28.347656 " clip-rule="nonzero"/></clipPath><clipPath id="a5ed64b8b3"><path d="M 401 28.347656 L 1039 28.347656 L 1039 728.847656 L 401 728.847656 Z M 401 28.347656 " clip-rule="nonzero"/></clipPath><clipPath id="f5ef1d43b3"><path d="M 1116.300781 593.324219 L 1252.050781 593.324219 L 1252.050781 729.074219 L 1116.300781 729.074219 Z M 1116.300781 593.324219 " clip-rule="nonzero"/></clipPath></defs><rect x="-144" width="1728" fill="#ffffff" y="-80.999999" height="971.999992" fill-opacity="1"/><rect x="-144" width="1728" fill="#ffffff" y="-80.999999" height="971.999992" fill-opacity="1"/><rect x="-144" width="1728" fill="#000000" y="-80.999999" height="971.999992" fill-opacity="1"/><g clip-path="url(#9769ee7247)"><path fill="#ffffff" d="M 733.363281 65.917969 L 733.363281 55.636719 L 744.03125 55.636719 C 743.527344 61.203125 738.980469 65.613281 733.363281 65.917969 Z M 720.964844 78.707031 L 720.964844 68.039062 L 731.242188 68.039062 C 730.9375 73.65625 726.527344 78.203125 720.964844 78.707031 Z M 708.59375 68.039062 L 718.875 68.039062 L 718.875 78.707031 C 713.320312 78.203125 708.910156 73.65625 708.59375 68.039062 Z M 695.816406 55.636719 L 706.484375 55.636719 L 706.484375 65.917969 C 700.867188 65.613281 696.320312 61.203125 695.816406 55.636719 Z M 706.484375 43.269531 L 706.484375 53.546875 L 695.816406 53.546875 C 696.320312 47.992188 700.867188 43.582031 706.484375 43.269531 Z M 718.882812 30.488281 L 718.882812 41.15625 L 708.605469 41.15625 C 708.910156 35.539062 713.320312 30.992188 718.882812 30.488281 Z M 731.242188 41.15625 L 720.964844 41.15625 L 720.964844 30.488281 C 726.527344 30.992188 730.9375 35.539062 731.242188 41.15625 Z M 728.597656 53.558594 C 727.410156 53.210938 725.710938 52.496094 724.132812 51.046875 C 722.253906 49.316406 721.382812 47.332031 720.972656 45.933594 L 720.972656 43.257812 L 731.285156 43.257812 L 731.285156 53.570312 L 728.597656 53.570312 Z M 719.945312 60.152344 C 719.386719 59.039062 718.589844 57.851562 717.433594 56.738281 C 716.480469 55.816406 715.472656 55.144531 714.527344 54.648438 C 715.683594 54.09375 716.929688 53.265625 718.074219 52.023438 C 718.957031 51.070312 719.589844 50.0625 720.027344 49.105469 C 720.636719 50.242188 721.5 51.457031 722.71875 52.570312 C 723.566406 53.359375 724.53125 54.03125 725.5625 54.566406 C 724.460938 55.121094 723.285156 55.910156 722.179688 57.042969 C 721.195312 58.074219 720.46875 59.144531 719.945312 60.152344 Z M 708.5625 43.238281 L 718.875 43.238281 L 718.875 45.96875 C 718.621094 47.207031 718.023438 48.980469 716.523438 50.617188 C 714.683594 52.613281 712.488281 53.316406 711.28125 53.558594 L 708.550781 53.558594 L 708.550781 43.238281 Z M 708.5625 55.636719 L 711.273438 55.636719 C 712.53125 55.953125 714.347656 56.65625 715.996094 58.242188 C 717.867188 60.035156 718.601562 62.105469 718.882812 63.25 L 718.882812 65.949219 L 708.574219 65.949219 L 708.574219 55.636719 Z M 731.285156 65.957031 L 720.972656 65.957031 L 720.972656 63.269531 C 721.320312 62 722.066406 60.171875 723.683594 58.523438 C 725.375 56.792969 727.261719 56.015625 728.585938 55.660156 L 731.273438 55.660156 L 731.273438 65.957031 Z M 744.03125 53.558594 L 733.363281 53.558594 L 733.363281 43.277344 C 738.980469 43.582031 743.527344 47.992188 744.03125 53.558594 Z M 746.175781 54.597656 C 746.175781 47.382812 740.460938 41.503906 733.332031 41.1875 C 733.015625 34.058594 727.128906 28.347656 719.925781 28.347656 C 712.71875 28.347656 706.832031 34.058594 706.515625 41.1875 C 699.386719 41.503906 693.675781 47.382812 693.675781 54.597656 C 693.675781 61.8125 699.386719 67.691406 706.515625 68.007812 C 706.832031 75.136719 712.71875 80.847656 719.925781 80.847656 C 727.128906 80.847656 733.015625 75.136719 733.332031 68.007812 C 740.460938 67.691406 746.175781 61.800781 746.175781 54.597656 " fill-opacity="1" fill-rule="nonzero"/></g><g clip-path="url(#a5ed64b8b3)"><path fill="#dadad9" d="M 1038.9375 728.847656 L 401.082031 728.847656 L 401.082031 350.269531 C 401.082031 302.546875 409.316406 257.894531 425.644531 217.425781 C 441.277344 178.632812 463.890625 144.445312 493.0625 115.980469 C 550.707031 59.464844 631.378906 28.347656 720.007812 28.347656 C 808.640625 28.347656 889.175781 59.464844 946.957031 115.980469 C 976.128906 144.445312 998.742188 178.632812 1014.375 217.566406 C 1030.703125 258.035156 1038.9375 302.6875 1038.9375 350.410156 Z M 403.871094 726.058594 L 1036.148438 726.058594 L 1036.148438 350.269531 C 1036.148438 302.964844 1027.914062 258.59375 1011.859375 218.542969 C 996.367188 180.03125 973.898438 146.261719 945.003906 117.933594 C 887.777344 61.976562 807.800781 31.136719 720.007812 31.136719 C 632.21875 31.136719 552.242188 61.976562 495.015625 117.933594 C 466.121094 146.121094 443.652344 180.03125 428.160156 218.542969 C 412.105469 258.59375 403.871094 302.964844 403.871094 350.269531 Z M 403.871094 726.058594 " fill-opacity="1" fill-rule="nonzero"/></g><g clip-path="url(#f5ef1d43b3)"><path fill="#ffffff" d="M 1245.480469 626.167969 L 1235.628906 626.167969 L 1235.628906 607.558594 L 1236.722656 607.558594 C 1236.867188 607.558594 1237.007812 607.53125 1237.140625 607.472656 C 1237.277344 607.417969 1237.394531 607.339844 1237.496094 607.238281 C 1237.597656 607.132812 1237.679688 607.015625 1237.734375 606.882812 C 1237.789062 606.746094 1237.816406 606.609375 1237.816406 606.464844 L 1237.816406 595.820312 C 1237.816406 595.492188 1237.753906 595.171875 1237.628906 594.867188 C 1237.5 594.5625 1237.320312 594.292969 1237.085938 594.058594 C 1236.851562 593.824219 1236.582031 593.644531 1236.277344 593.515625 C 1235.96875 593.390625 1235.652344 593.324219 1235.320312 593.324219 L 1205.28125 593.324219 C 1204.949219 593.324219 1204.632812 593.390625 1204.324219 593.515625 C 1204.019531 593.644531 1203.75 593.824219 1203.515625 594.058594 C 1203.28125 594.292969 1203.101562 594.5625 1202.976562 594.867188 C 1202.847656 595.171875 1202.785156 595.492188 1202.785156 595.820312 L 1202.785156 606.464844 C 1202.785156 606.609375 1202.8125 606.746094 1202.867188 606.882812 C 1202.921875 607.015625 1203.003906 607.132812 1203.105469 607.238281 C 1203.207031 607.339844 1203.328125 607.417969 1203.460938 607.472656 C 1203.59375 607.53125 1203.734375 607.558594 1203.878906 607.558594 L 1204.972656 607.558594 L 1204.972656 626.167969 L 1195.121094 626.167969 C 1194.691406 626.167969 1194.261719 626.210938 1193.839844 626.296875 C 1193.417969 626.378906 1193.007812 626.503906 1192.609375 626.667969 C 1192.210938 626.832031 1191.832031 627.035156 1191.472656 627.277344 C 1191.113281 627.515625 1190.78125 627.789062 1190.476562 628.09375 C 1190.171875 628.398438 1189.898438 628.730469 1189.660156 629.089844 C 1189.421875 629.445312 1189.21875 629.824219 1189.054688 630.222656 C 1188.886719 630.621094 1188.761719 631.03125 1188.679688 631.457031 C 1188.59375 631.878906 1188.554688 632.304688 1188.554688 632.738281 L 1188.554688 661.199219 L 1186.363281 661.199219 L 1186.363281 652.441406 C 1186.363281 652.011719 1186.320312 651.585938 1186.238281 651.160156 C 1186.152344 650.738281 1186.027344 650.328125 1185.863281 649.929688 C 1185.699219 649.53125 1185.496094 649.152344 1185.257812 648.792969 C 1185.015625 648.433594 1184.746094 648.101562 1184.441406 647.796875 C 1184.132812 647.492188 1183.804688 647.222656 1183.445312 646.980469 C 1183.085938 646.742188 1182.707031 646.539062 1182.308594 646.375 C 1181.910156 646.210938 1181.5 646.085938 1181.078125 646 C 1180.652344 645.917969 1180.226562 645.875 1179.796875 645.875 L 1153.519531 645.875 C 1153.089844 645.875 1152.664062 645.917969 1152.238281 646 C 1151.816406 646.085938 1151.40625 646.210938 1151.007812 646.375 C 1150.609375 646.539062 1150.230469 646.742188 1149.871094 646.980469 C 1149.511719 647.222656 1149.179688 647.492188 1148.875 647.796875 C 1148.570312 648.101562 1148.296875 648.433594 1148.058594 648.792969 C 1147.820312 649.152344 1147.617188 649.53125 1147.453125 649.929688 C 1147.289062 650.328125 1147.164062 650.738281 1147.078125 651.160156 C 1146.996094 651.585938 1146.953125 652.011719 1146.953125 652.441406 L 1146.953125 661.199219 L 1135.457031 661.199219 L 1135.457031 659.492188 C 1135.457031 659.140625 1135.390625 658.796875 1135.253906 658.472656 C 1135.117188 658.144531 1134.925781 657.855469 1134.675781 657.605469 C 1134.425781 657.355469 1134.136719 657.160156 1133.808594 657.023438 C 1133.480469 656.890625 1133.140625 656.820312 1132.785156 656.820312 L 1130.464844 656.820312 C 1130.109375 656.820312 1129.769531 656.890625 1129.441406 657.023438 C 1129.117188 657.160156 1128.828125 657.355469 1128.578125 657.605469 C 1128.324219 657.855469 1128.132812 658.144531 1127.996094 658.472656 C 1127.863281 658.796875 1127.792969 659.140625 1127.792969 659.492188 L 1127.792969 661.199219 L 1122.867188 661.199219 C 1122.4375 661.199219 1122.007812 661.242188 1121.585938 661.328125 C 1121.164062 661.410156 1120.753906 661.535156 1120.355469 661.699219 C 1119.957031 661.867188 1119.578125 662.070312 1119.21875 662.308594 C 1118.859375 662.546875 1118.527344 662.820312 1118.222656 663.125 C 1117.917969 663.429688 1117.644531 663.761719 1117.40625 664.121094 C 1117.167969 664.480469 1116.964844 664.859375 1116.800781 665.257812 C 1116.632812 665.65625 1116.507812 666.066406 1116.425781 666.488281 C 1116.339844 666.910156 1116.300781 667.339844 1116.300781 667.769531 L 1116.300781 722.507812 C 1116.300781 722.9375 1116.339844 723.367188 1116.425781 723.789062 C 1116.507812 724.210938 1116.632812 724.621094 1116.800781 725.019531 C 1116.964844 725.417969 1117.167969 725.796875 1117.40625 726.15625 C 1117.644531 726.515625 1117.917969 726.847656 1118.222656 727.152344 C 1118.527344 727.457031 1118.859375 727.730469 1119.21875 727.96875 C 1119.578125 728.207031 1119.957031 728.410156 1120.355469 728.574219 C 1120.753906 728.742188 1121.164062 728.867188 1121.585938 728.949219 C 1122.007812 729.035156 1122.4375 729.074219 1122.867188 729.074219 L 1210.449219 729.074219 C 1210.878906 729.074219 1211.304688 729.035156 1211.730469 728.949219 C 1212.152344 728.867188 1212.5625 728.742188 1212.960938 728.574219 C 1213.359375 728.410156 1213.738281 728.207031 1214.097656 727.96875 C 1214.457031 727.730469 1214.789062 727.457031 1215.09375 727.152344 C 1215.398438 726.847656 1215.671875 726.515625 1215.910156 726.15625 C 1216.148438 725.796875 1216.351562 725.417969 1216.515625 725.019531 C 1216.683594 724.621094 1216.804688 724.210938 1216.890625 723.789062 C 1216.976562 723.367188 1217.015625 722.9375 1217.015625 722.507812 L 1217.015625 720.316406 L 1234.53125 720.316406 C 1233.804688 721.292969 1233.4375 722.386719 1233.4375 723.601562 C 1233.4375 723.960938 1233.472656 724.316406 1233.542969 724.671875 C 1233.613281 725.023438 1233.71875 725.363281 1233.855469 725.695312 C 1233.992188 726.027344 1234.160156 726.34375 1234.359375 726.644531 C 1234.558594 726.941406 1234.789062 727.21875 1235.042969 727.472656 C 1235.296875 727.726562 1235.570312 727.953125 1235.871094 728.152344 C 1236.167969 728.351562 1236.484375 728.523438 1236.816406 728.660156 C 1237.148438 728.796875 1237.492188 728.902344 1237.84375 728.972656 C 1238.195312 729.039062 1238.550781 729.074219 1238.910156 729.074219 C 1239.269531 729.074219 1239.628906 729.039062 1239.980469 728.972656 C 1240.332031 728.902344 1240.675781 728.796875 1241.007812 728.660156 C 1241.339844 728.523438 1241.652344 728.351562 1241.953125 728.152344 C 1242.25 727.953125 1242.527344 727.726562 1242.78125 727.472656 C 1243.035156 727.21875 1243.261719 726.941406 1243.464844 726.644531 C 1243.664062 726.34375 1243.832031 726.027344 1243.96875 725.695312 C 1244.105469 725.363281 1244.210938 725.023438 1244.28125 724.671875 C 1244.351562 724.316406 1244.386719 723.960938 1244.386719 723.601562 C 1244.386719 722.386719 1244.019531 721.292969 1243.289062 720.316406 L 1245.480469 720.316406 C 1245.910156 720.316406 1246.339844 720.277344 1246.761719 720.191406 C 1247.183594 720.109375 1247.59375 719.984375 1247.992188 719.816406 C 1248.390625 719.652344 1248.769531 719.449219 1249.128906 719.210938 C 1249.488281 718.972656 1249.820312 718.699219 1250.125 718.394531 C 1250.429688 718.089844 1250.703125 717.757812 1250.941406 717.398438 C 1251.179688 717.039062 1251.382812 716.660156 1251.550781 716.261719 C 1251.714844 715.863281 1251.839844 715.453125 1251.921875 715.03125 C 1252.007812 714.609375 1252.050781 714.179688 1252.050781 713.75 L 1252.050781 632.738281 C 1252.050781 632.304688 1252.007812 631.878906 1251.921875 631.457031 C 1251.839844 631.03125 1251.714844 630.621094 1251.550781 630.222656 C 1251.382812 629.824219 1251.179688 629.445312 1250.941406 629.089844 C 1250.703125 628.730469 1250.429688 628.398438 1250.125 628.09375 C 1249.820312 627.789062 1249.488281 627.515625 1249.128906 627.277344 C 1248.769531 627.035156 1248.390625 626.832031 1247.992188 626.667969 C 1247.59375 626.503906 1247.183594 626.378906 1246.761719 626.296875 C 1246.339844 626.210938 1245.910156 626.167969 1245.480469 626.167969 Z M 1200.046875 661.199219 L 1200.046875 659.492188 C 1200.046875 659.359375 1200.09375 659.246094 1200.1875 659.152344 C 1200.28125 659.058594 1200.398438 659.011719 1200.53125 659.011719 L 1202.863281 659.011719 C 1202.996094 659.011719 1203.109375 659.058594 1203.203125 659.152344 C 1203.296875 659.246094 1203.34375 659.359375 1203.34375 659.492188 L 1203.34375 661.199219 Z M 1202.851562 656.820312 L 1200.53125 656.820312 C 1200.175781 656.820312 1199.835938 656.890625 1199.507812 657.023438 C 1199.179688 657.160156 1198.890625 657.355469 1198.640625 657.605469 C 1198.390625 657.855469 1198.199219 658.144531 1198.0625 658.472656 C 1197.925781 658.796875 1197.859375 659.140625 1197.859375 659.492188 L 1197.859375 661.199219 L 1190.742188 661.199219 L 1190.742188 648.0625 L 1249.859375 648.0625 L 1249.859375 669.960938 L 1217.015625 669.960938 L 1217.015625 667.769531 C 1217.015625 667.339844 1216.976562 666.910156 1216.890625 666.488281 C 1216.804688 666.066406 1216.683594 665.65625 1216.515625 665.257812 C 1216.351562 664.859375 1216.148438 664.480469 1215.910156 664.121094 C 1215.671875 663.761719 1215.398438 663.429688 1215.09375 663.125 C 1214.789062 662.820312 1214.457031 662.546875 1214.097656 662.308594 C 1213.738281 662.070312 1213.359375 661.867188 1212.960938 661.699219 C 1212.5625 661.535156 1212.152344 661.410156 1211.730469 661.328125 C 1211.304688 661.242188 1210.878906 661.199219 1210.449219 661.199219 L 1205.523438 661.199219 L 1205.523438 659.492188 C 1205.523438 659.140625 1205.453125 658.796875 1205.320312 658.472656 C 1205.183594 658.144531 1204.988281 657.855469 1204.738281 657.605469 C 1204.488281 657.355469 1204.199219 657.160156 1203.871094 657.023438 C 1203.546875 656.890625 1203.203125 656.820312 1202.851562 656.820312 Z M 1137.515625 710.890625 L 1140.132812 715.480469 L 1138.195312 720.394531 L 1133.136719 721.925781 L 1128.757812 718.925781 L 1128.386719 713.660156 L 1132.28125 710.082031 Z M 1139.289062 722.34375 C 1139.625 722.242188 1139.859375 722.027344 1139.988281 721.699219 L 1142.332031 715.808594 C 1142.464844 715.480469 1142.441406 715.160156 1142.265625 714.855469 L 1139.125 709.382812 C 1138.949219 709.078125 1138.691406 708.898438 1138.347656 708.84375 L 1138.171875 708.84375 L 1138.171875 663.390625 L 1142.550781 663.390625 L 1142.550781 686.960938 C 1142.285156 687.078125 1142.09375 687.273438 1141.980469 687.539062 L 1141.699219 688.230469 C 1141.640625 688.363281 1141.613281 688.503906 1141.609375 688.648438 C 1141.609375 688.792969 1141.636719 688.933594 1141.691406 689.066406 C 1141.746094 689.203125 1141.824219 689.320312 1141.925781 689.425781 C 1142.027344 689.527344 1142.144531 689.609375 1142.277344 689.664062 L 1142.574219 689.808594 L 1142.574219 726.886719 L 1138.195312 726.886719 L 1138.195312 722.683594 Z M 1144.761719 690.757812 L 1147.039062 691.800781 L 1149.140625 696.617188 C 1149.199219 696.753906 1149.28125 696.871094 1149.390625 696.972656 C 1149.496094 697.074219 1149.621094 697.152344 1149.757812 697.207031 C 1149.894531 697.257812 1150.039062 697.28125 1150.1875 697.277344 C 1150.332031 697.269531 1150.476562 697.238281 1150.609375 697.175781 L 1151.351562 696.835938 C 1151.703125 696.675781 1151.910156 696.40625 1151.976562 696.023438 L 1152.734375 691.515625 L 1159.980469 684.269531 L 1163.101562 691.363281 C 1163.183594 691.554688 1163.316406 691.714844 1163.492188 691.832031 C 1163.667969 691.949219 1163.863281 692.011719 1164.074219 692.019531 C 1164.523438 692.015625 1164.847656 691.816406 1165.046875 691.417969 L 1166.527344 688.484375 C 1166.867188 687.824219 1166.972656 687.132812 1166.84375 686.402344 C 1166.808594 686.191406 1166.753906 685.988281 1166.679688 685.789062 L 1166.515625 685.351562 L 1166.820312 685.042969 C 1166.992188 684.867188 1167.089844 684.652344 1167.117188 684.410156 C 1167.144531 684.164062 1167.09375 683.933594 1166.964844 683.722656 C 1166.835938 683.511719 1166.65625 683.363281 1166.429688 683.273438 C 1166.199219 683.183594 1165.964844 683.171875 1165.726562 683.238281 L 1165.488281 682.582031 L 1165.878906 682.1875 C 1166.066406 682.003906 1166.167969 681.78125 1166.195312 681.519531 C 1166.21875 681.261719 1166.160156 681.023438 1166.015625 680.804688 C 1165.871094 680.589844 1165.671875 680.445312 1165.421875 680.367188 C 1165.171875 680.292969 1164.929688 680.304688 1164.6875 680.402344 L 1164.46875 679.757812 L 1167.335938 676.890625 C 1167.914062 676.324219 1168.335938 675.664062 1168.601562 674.898438 C 1168.871094 674.136719 1168.949219 673.355469 1168.847656 672.554688 L 1168.738281 671.808594 C 1168.683594 671.386719 1168.507812 671.019531 1168.207031 670.71875 C 1167.902344 670.414062 1167.542969 670.234375 1167.117188 670.179688 L 1166.351562 670.070312 C 1165.558594 669.964844 1164.78125 670.039062 1164.023438 670.296875 C 1163.265625 670.554688 1162.601562 670.96875 1162.039062 671.535156 L 1159.160156 674.414062 L 1158.511719 674.175781 C 1158.613281 673.933594 1158.625 673.6875 1158.546875 673.4375 C 1158.472656 673.1875 1158.324219 672.992188 1158.109375 672.847656 C 1157.894531 672.703125 1157.65625 672.640625 1157.394531 672.667969 C 1157.136719 672.691406 1156.914062 672.796875 1156.726562 672.980469 L 1156.335938 673.375 L 1155.675781 673.132812 C 1155.808594 672.714844 1155.722656 672.351562 1155.414062 672.039062 C 1155.3125 671.9375 1155.195312 671.859375 1155.058594 671.804688 C 1154.925781 671.75 1154.789062 671.722656 1154.644531 671.722656 C 1154.5 671.722656 1154.359375 671.75 1154.226562 671.804688 C 1154.089844 671.859375 1153.972656 671.9375 1153.871094 672.039062 L 1153.566406 672.347656 L 1153.125 672.179688 C 1152.207031 671.84375 1151.308594 671.894531 1150.433594 672.335938 L 1147.5 673.8125 C 1147.308594 673.902344 1147.15625 674.039062 1147.042969 674.214844 C 1146.925781 674.394531 1146.871094 674.589844 1146.871094 674.804688 C 1146.871094 675.015625 1146.925781 675.210938 1147.042969 675.390625 C 1147.15625 675.570312 1147.308594 675.703125 1147.5 675.792969 L 1154.617188 678.914062 L 1147.378906 686.160156 L 1144.761719 686.578125 L 1144.761719 663.390625 L 1188.554688 663.390625 L 1188.554688 692.117188 L 1187.25 690.757812 C 1187.148438 690.65625 1187.03125 690.578125 1186.894531 690.523438 C 1186.761719 690.46875 1186.621094 690.441406 1186.476562 690.441406 C 1186.332031 690.441406 1186.195312 690.46875 1186.0625 690.523438 C 1185.925781 690.578125 1185.808594 690.65625 1185.707031 690.757812 L 1182.628906 693.835938 L 1172.558594 703.898438 L 1169.480469 706.972656 C 1169.378906 707.074219 1169.300781 707.195312 1169.246094 707.328125 C 1169.191406 707.460938 1169.164062 707.601562 1169.164062 707.746094 C 1169.164062 707.890625 1169.191406 708.027344 1169.246094 708.164062 C 1169.300781 708.296875 1169.378906 708.414062 1169.480469 708.515625 L 1175.625 714.84375 C 1175.726562 714.945312 1175.84375 715.023438 1175.976562 715.078125 C 1176.113281 715.136719 1176.25 715.164062 1176.394531 715.164062 C 1176.539062 715.164062 1176.679688 715.136719 1176.8125 715.078125 C 1176.945312 715.023438 1177.066406 714.945312 1177.167969 714.84375 L 1180.242188 711.769531 L 1188.554688 703.414062 L 1188.554688 726.886719 L 1144.761719 726.886719 Z M 1157.417969 676.089844 L 1156.324219 677.183594 L 1150.566406 674.65625 L 1151.429688 674.21875 C 1151.734375 674.066406 1152.050781 674.046875 1152.371094 674.164062 Z M 1163.546875 673.058594 C 1163.871094 672.730469 1164.25 672.496094 1164.679688 672.347656 C 1165.113281 672.199219 1165.558594 672.152344 1166.011719 672.214844 L 1166.558594 672.289062 L 1166.636719 672.828125 C 1166.695312 673.28125 1166.652344 673.726562 1166.503906 674.15625 C 1166.355469 674.589844 1166.117188 674.96875 1165.792969 675.289062 L 1150.914062 690.203125 C 1150.75 690.367188 1150.648438 690.5625 1150.609375 690.792969 L 1150.160156 693.484375 L 1148.878906 690.5625 C 1148.769531 690.304688 1148.585938 690.121094 1148.332031 690.003906 L 1145.441406 688.679688 L 1148.070312 688.261719 C 1148.300781 688.226562 1148.503906 688.125 1148.671875 687.957031 Z M 1164.25 685.449219 L 1164.65625 686.542969 C 1164.660156 686.613281 1164.660156 686.683594 1164.65625 686.753906 C 1164.699219 687.003906 1164.664062 687.246094 1164.546875 687.476562 L 1164.105469 688.339844 L 1161.621094 682.59375 L 1162.714844 681.496094 Z M 1178.699219 661.199219 L 1154.617188 661.199219 L 1154.617188 655.367188 C 1154.617188 655.125 1154.660156 654.890625 1154.753906 654.667969 C 1154.847656 654.441406 1154.980469 654.246094 1155.152344 654.074219 C 1155.324219 653.902344 1155.519531 653.769531 1155.742188 653.675781 C 1155.96875 653.585938 1156.203125 653.539062 1156.445312 653.539062 L 1176.871094 653.539062 C 1177.113281 653.539062 1177.347656 653.585938 1177.570312 653.675781 C 1177.796875 653.769531 1177.992188 653.902344 1178.164062 654.074219 C 1178.335938 654.246094 1178.46875 654.441406 1178.5625 654.667969 C 1178.652344 654.890625 1178.699219 655.125 1178.699219 655.367188 Z M 1190.742188 641.496094 L 1249.859375 641.496094 L 1249.859375 645.875 L 1190.742188 645.875 Z M 1173.3125 706.292969 L 1177.957031 710.9375 L 1176.414062 712.480469 L 1171.769531 707.835938 Z M 1179.5 709.371094 L 1174.859375 704.730469 L 1183.375 696.234375 L 1188.015625 700.875 Z M 1189.558594 699.308594 L 1184.917969 694.667969 L 1186.460938 693.125 L 1188.859375 695.523438 L 1191.050781 697.710938 Z M 1190.742188 701.226562 L 1193.4375 698.53125 C 1193.539062 698.429688 1193.617188 698.3125 1193.671875 698.179688 C 1193.726562 698.042969 1193.753906 697.90625 1193.753906 697.761719 C 1193.753906 697.617188 1193.726562 697.476562 1193.671875 697.34375 C 1193.617188 697.210938 1193.539062 697.089844 1193.4375 696.988281 L 1190.742188 694.304688 L 1190.742188 663.390625 L 1195.121094 663.390625 L 1195.121094 726.886719 L 1190.742188 726.886719 Z M 1217.015625 678.71875 L 1249.859375 678.71875 L 1249.859375 698.421875 L 1217.015625 698.421875 Z M 1217.015625 676.527344 L 1217.015625 672.148438 L 1249.859375 672.148438 L 1249.859375 676.527344 Z M 1217.015625 700.613281 L 1249.859375 700.613281 L 1249.859375 704.992188 L 1217.015625 704.992188 Z M 1249.859375 632.738281 L 1249.859375 634.925781 C 1249.429688 634.925781 1249 634.886719 1248.578125 634.800781 C 1248.15625 634.714844 1247.746094 634.59375 1247.347656 634.425781 C 1246.949219 634.261719 1246.570312 634.058594 1246.210938 633.820312 C 1245.851562 633.582031 1245.519531 633.308594 1245.214844 633.003906 C 1244.910156 632.699219 1244.636719 632.367188 1244.398438 632.007812 C 1244.160156 631.648438 1243.957031 631.269531 1243.789062 630.871094 C 1243.625 630.472656 1243.5 630.0625 1243.417969 629.640625 C 1243.332031 629.214844 1243.289062 628.789062 1243.289062 628.359375 L 1245.480469 628.359375 C 1245.769531 628.359375 1246.050781 628.386719 1246.335938 628.441406 C 1246.617188 628.5 1246.890625 628.582031 1247.15625 628.691406 C 1247.421875 628.800781 1247.675781 628.9375 1247.914062 629.097656 C 1248.152344 629.257812 1248.375 629.4375 1248.578125 629.640625 C 1248.78125 629.84375 1248.960938 630.066406 1249.121094 630.304688 C 1249.28125 630.542969 1249.417969 630.796875 1249.527344 631.0625 C 1249.636719 631.328125 1249.71875 631.601562 1249.773438 631.882812 C 1249.832031 632.164062 1249.859375 632.449219 1249.859375 632.738281 Z M 1249.859375 637.117188 L 1249.859375 639.304688 L 1190.742188 639.304688 L 1190.742188 637.117188 C 1191.316406 637.117188 1191.886719 637.058594 1192.449219 636.949219 C 1193.015625 636.835938 1193.5625 636.667969 1194.09375 636.449219 C 1194.625 636.230469 1195.128906 635.960938 1195.609375 635.640625 C 1196.085938 635.320312 1196.527344 634.957031 1196.933594 634.550781 C 1197.34375 634.144531 1197.707031 633.703125 1198.023438 633.222656 C 1198.34375 632.746094 1198.613281 632.242188 1198.832031 631.710938 C 1199.054688 631.179688 1199.21875 630.632812 1199.332031 630.066406 C 1199.445312 629.503906 1199.5 628.933594 1199.5 628.359375 L 1241.101562 628.359375 C 1241.101562 628.933594 1241.15625 629.503906 1241.269531 630.066406 C 1241.382812 630.632812 1241.546875 631.179688 1241.769531 631.710938 C 1241.988281 632.242188 1242.257812 632.746094 1242.578125 633.222656 C 1242.898438 633.703125 1243.261719 634.144531 1243.667969 634.550781 C 1244.074219 634.957031 1244.515625 635.320312 1244.992188 635.640625 C 1245.472656 635.960938 1245.976562 636.230469 1246.507812 636.449219 C 1247.039062 636.667969 1247.585938 636.835938 1248.152344 636.949219 C 1248.714844 637.058594 1249.285156 637.117188 1249.859375 637.117188 Z M 1204.972656 595.820312 C 1204.972656 595.738281 1205.003906 595.664062 1205.0625 595.605469 C 1205.125 595.546875 1205.195312 595.515625 1205.28125 595.515625 L 1235.320312 595.515625 C 1235.40625 595.515625 1235.476562 595.546875 1235.539062 595.605469 C 1235.597656 595.664062 1235.628906 595.738281 1235.628906 595.820312 L 1235.628906 605.367188 L 1233.4375 605.367188 L 1233.4375 600.199219 C 1233.4375 599.871094 1233.375 599.550781 1233.25 599.246094 C 1233.121094 598.941406 1232.941406 598.671875 1232.707031 598.4375 C 1232.472656 598.203125 1232.203125 598.023438 1231.898438 597.894531 C 1231.589844 597.769531 1231.273438 597.707031 1230.941406 597.707031 L 1209.660156 597.707031 C 1209.328125 597.707031 1209.011719 597.769531 1208.703125 597.894531 C 1208.398438 598.023438 1208.128906 598.203125 1207.894531 598.4375 C 1207.660156 598.671875 1207.480469 598.941406 1207.355469 599.246094 C 1207.226562 599.550781 1207.164062 599.871094 1207.164062 600.199219 L 1207.164062 605.367188 L 1204.972656 605.367188 Z M 1207.164062 607.558594 L 1208.257812 607.558594 C 1208.402344 607.558594 1208.542969 607.53125 1208.675781 607.472656 C 1208.8125 607.417969 1208.929688 607.339844 1209.03125 607.238281 C 1209.136719 607.132812 1209.214844 607.015625 1209.269531 606.882812 C 1209.324219 606.746094 1209.351562 606.609375 1209.351562 606.464844 L 1209.351562 600.199219 C 1209.351562 600.117188 1209.382812 600.042969 1209.441406 599.984375 C 1209.503906 599.925781 1209.574219 599.894531 1209.660156 599.894531 L 1230.941406 599.894531 C 1231.027344 599.894531 1231.097656 599.925781 1231.160156 599.984375 C 1231.21875 600.042969 1231.25 600.117188 1231.25 600.199219 L 1231.25 606.464844 C 1231.25 606.609375 1231.277344 606.746094 1231.332031 606.882812 C 1231.386719 607.015625 1231.464844 607.132812 1231.570312 607.238281 C 1231.671875 607.339844 1231.789062 607.417969 1231.925781 607.472656 C 1232.058594 607.53125 1232.199219 607.558594 1232.34375 607.558594 L 1233.4375 607.558594 L 1233.4375 626.167969 L 1207.164062 626.167969 Z M 1190.742188 632.738281 C 1190.742188 632.449219 1190.769531 632.164062 1190.828125 631.882812 C 1190.882812 631.601562 1190.964844 631.328125 1191.074219 631.0625 C 1191.1875 630.796875 1191.320312 630.542969 1191.480469 630.304688 C 1191.640625 630.066406 1191.820312 629.84375 1192.023438 629.640625 C 1192.226562 629.4375 1192.449219 629.257812 1192.6875 629.097656 C 1192.929688 628.9375 1193.179688 628.800781 1193.445312 628.691406 C 1193.710938 628.582031 1193.984375 628.5 1194.265625 628.441406 C 1194.550781 628.386719 1194.835938 628.359375 1195.121094 628.359375 L 1197.3125 628.359375 C 1197.3125 628.789062 1197.269531 629.214844 1197.183594 629.640625 C 1197.101562 630.0625 1196.976562 630.472656 1196.8125 630.871094 C 1196.644531 631.269531 1196.445312 631.648438 1196.203125 632.007812 C 1195.964844 632.367188 1195.691406 632.699219 1195.386719 633.003906 C 1195.082031 633.308594 1194.75 633.582031 1194.390625 633.820312 C 1194.03125 634.058594 1193.65625 634.261719 1193.257812 634.425781 C 1192.859375 634.59375 1192.445312 634.714844 1192.023438 634.800781 C 1191.601562 634.886719 1191.171875 634.925781 1190.742188 634.925781 Z M 1149.140625 652.441406 C 1149.140625 652.15625 1149.167969 651.871094 1149.226562 651.589844 C 1149.28125 651.308594 1149.363281 651.03125 1149.476562 650.765625 C 1149.585938 650.5 1149.71875 650.25 1149.878906 650.011719 C 1150.039062 649.769531 1150.222656 649.550781 1150.425781 649.347656 C 1150.628906 649.144531 1150.847656 648.960938 1151.089844 648.800781 C 1151.328125 648.640625 1151.578125 648.507812 1151.84375 648.398438 C 1152.109375 648.289062 1152.382812 648.203125 1152.667969 648.148438 C 1152.949219 648.09375 1153.234375 648.0625 1153.519531 648.0625 L 1179.796875 648.0625 C 1180.082031 648.0625 1180.367188 648.09375 1180.648438 648.148438 C 1180.929688 648.203125 1181.203125 648.289062 1181.472656 648.398438 C 1181.738281 648.507812 1181.988281 648.640625 1182.226562 648.800781 C 1182.46875 648.960938 1182.6875 649.144531 1182.890625 649.347656 C 1183.09375 649.550781 1183.277344 649.769531 1183.4375 650.011719 C 1183.597656 650.25 1183.730469 650.5 1183.839844 650.765625 C 1183.949219 651.03125 1184.035156 651.308594 1184.089844 651.589844 C 1184.144531 651.871094 1184.175781 652.15625 1184.175781 652.441406 L 1184.175781 661.199219 L 1180.890625 661.199219 L 1180.890625 655.367188 C 1180.890625 655.101562 1180.863281 654.839844 1180.8125 654.582031 C 1180.761719 654.324219 1180.683594 654.070312 1180.582031 653.828125 C 1180.484375 653.585938 1180.359375 653.351562 1180.210938 653.132812 C 1180.066406 652.914062 1179.898438 652.710938 1179.714844 652.523438 C 1179.527344 652.339844 1179.324219 652.171875 1179.105469 652.023438 C 1178.882812 651.878906 1178.652344 651.753906 1178.410156 651.652344 C 1178.164062 651.554688 1177.914062 651.476562 1177.65625 651.425781 C 1177.398438 651.375 1177.136719 651.347656 1176.871094 651.347656 L 1156.445312 651.347656 C 1156.179688 651.347656 1155.917969 651.375 1155.660156 651.425781 C 1155.402344 651.476562 1155.148438 651.554688 1154.90625 651.652344 C 1154.664062 651.753906 1154.429688 651.878906 1154.210938 652.023438 C 1153.992188 652.171875 1153.789062 652.339844 1153.601562 652.523438 C 1153.417969 652.710938 1153.25 652.914062 1153.101562 653.132812 C 1152.957031 653.351562 1152.832031 653.585938 1152.730469 653.828125 C 1152.632812 654.070312 1152.554688 654.324219 1152.503906 654.582031 C 1152.453125 654.839844 1152.425781 655.101562 1152.425781 655.367188 L 1152.425781 661.199219 L 1149.140625 661.199219 Z M 1129.984375 659.492188 C 1129.984375 659.359375 1130.03125 659.246094 1130.125 659.152344 C 1130.21875 659.058594 1130.332031 659.011719 1130.464844 659.011719 L 1132.796875 659.011719 C 1132.929688 659.011719 1133.042969 659.058594 1133.136719 659.152344 C 1133.230469 659.246094 1133.277344 659.359375 1133.277344 659.492188 L 1133.277344 661.199219 L 1129.996094 661.199219 Z M 1118.488281 722.507812 L 1118.488281 667.769531 C 1118.488281 667.480469 1118.515625 667.199219 1118.574219 666.914062 C 1118.628906 666.632812 1118.710938 666.359375 1118.820312 666.09375 C 1118.933594 665.828125 1119.066406 665.574219 1119.226562 665.335938 C 1119.386719 665.097656 1119.566406 664.875 1119.769531 664.671875 C 1119.972656 664.46875 1120.195312 664.289062 1120.433594 664.128906 C 1120.671875 663.96875 1120.925781 663.832031 1121.191406 663.722656 C 1121.457031 663.613281 1121.730469 663.53125 1122.011719 663.476562 C 1122.296875 663.417969 1122.578125 663.390625 1122.867188 663.390625 L 1136.003906 663.390625 L 1136.003906 708.441406 L 1132.105469 707.835938 C 1131.761719 707.785156 1131.457031 707.875 1131.199219 708.113281 L 1126.523438 712.402344 C 1126.265625 712.640625 1126.148438 712.9375 1126.171875 713.289062 L 1126.621094 719.605469 C 1126.648438 719.957031 1126.804688 720.230469 1127.09375 720.425781 L 1132.316406 724.027344 C 1132.605469 724.226562 1132.921875 724.277344 1133.257812 724.171875 L 1136.003906 723.339844 L 1136.003906 726.886719 L 1122.867188 726.886719 C 1122.578125 726.886719 1122.296875 726.859375 1122.011719 726.800781 C 1121.730469 726.746094 1121.457031 726.664062 1121.191406 726.554688 C 1120.925781 726.441406 1120.671875 726.308594 1120.433594 726.148438 C 1120.195312 725.988281 1119.972656 725.808594 1119.769531 725.605469 C 1119.566406 725.402344 1119.386719 725.179688 1119.226562 724.941406 C 1119.066406 724.703125 1118.933594 724.449219 1118.820312 724.183594 C 1118.710938 723.917969 1118.628906 723.644531 1118.574219 723.363281 C 1118.515625 723.078125 1118.488281 722.796875 1118.488281 722.507812 Z M 1214.828125 722.507812 C 1214.828125 722.796875 1214.800781 723.078125 1214.742188 723.363281 C 1214.6875 723.644531 1214.605469 723.917969 1214.492188 724.183594 C 1214.382812 724.449219 1214.25 724.703125 1214.089844 724.941406 C 1213.929688 725.179688 1213.746094 725.402344 1213.542969 725.605469 C 1213.339844 725.808594 1213.121094 725.988281 1212.882812 726.148438 C 1212.640625 726.308594 1212.390625 726.441406 1212.125 726.554688 C 1211.859375 726.664062 1211.585938 726.746094 1211.300781 726.800781 C 1211.019531 726.859375 1210.734375 726.886719 1210.449219 726.886719 L 1197.3125 726.886719 L 1197.3125 663.390625 L 1210.449219 663.390625 C 1210.734375 663.390625 1211.019531 663.417969 1211.300781 663.476562 C 1211.585938 663.53125 1211.859375 663.613281 1212.125 663.722656 C 1212.390625 663.832031 1212.640625 663.96875 1212.882812 664.128906 C 1213.121094 664.289062 1213.339844 664.46875 1213.542969 664.671875 C 1213.746094 664.875 1213.929688 665.097656 1214.089844 665.335938 C 1214.25 665.574219 1214.382812 665.828125 1214.492188 666.09375 C 1214.605469 666.359375 1214.6875 666.632812 1214.742188 666.914062 C 1214.800781 667.199219 1214.828125 667.480469 1214.828125 667.769531 Z M 1217.015625 707.179688 L 1249.859375 707.179688 L 1249.859375 709.371094 C 1249.285156 709.371094 1248.714844 709.425781 1248.152344 709.539062 C 1247.585938 709.652344 1247.039062 709.816406 1246.507812 710.035156 C 1245.976562 710.257812 1245.472656 710.527344 1244.992188 710.847656 C 1244.515625 711.164062 1244.074219 711.527344 1243.667969 711.9375 C 1243.261719 712.34375 1242.898438 712.785156 1242.578125 713.261719 C 1242.257812 713.742188 1241.988281 714.246094 1241.769531 714.777344 C 1241.546875 715.308594 1241.382812 715.855469 1241.269531 716.417969 C 1241.15625 716.984375 1241.101562 717.554688 1241.101562 718.128906 L 1217.015625 718.128906 Z M 1242 722.507812 L 1235.835938 722.507812 C 1235.953125 722.191406 1236.113281 721.902344 1236.316406 721.636719 C 1236.523438 721.371094 1236.761719 721.140625 1237.039062 720.949219 C 1237.3125 720.757812 1237.613281 720.609375 1237.933594 720.507812 C 1238.253906 720.410156 1238.582031 720.359375 1238.917969 720.359375 C 1239.253906 720.359375 1239.582031 720.410156 1239.902344 720.507812 C 1240.222656 720.609375 1240.519531 720.757812 1240.796875 720.949219 C 1241.070312 721.140625 1241.3125 721.371094 1241.515625 721.636719 C 1241.722656 721.902344 1241.882812 722.191406 1242 722.507812 Z M 1238.910156 726.886719 C 1238.574219 726.886719 1238.242188 726.832031 1237.917969 726.730469 C 1237.597656 726.625 1237.296875 726.476562 1237.019531 726.28125 C 1236.746094 726.085938 1236.503906 725.851562 1236.300781 725.582031 C 1236.097656 725.3125 1235.9375 725.015625 1235.824219 724.695312 L 1241.988281 724.695312 C 1241.875 725.015625 1241.71875 725.308594 1241.515625 725.578125 C 1241.3125 725.847656 1241.070312 726.082031 1240.796875 726.277344 C 1240.519531 726.472656 1240.222656 726.625 1239.902344 726.726562 C 1239.578125 726.832031 1239.25 726.882812 1238.910156 726.886719 Z M 1249.859375 713.75 C 1249.859375 714.035156 1249.832031 714.320312 1249.773438 714.605469 C 1249.71875 714.886719 1249.636719 715.160156 1249.527344 715.425781 C 1249.417969 715.691406 1249.28125 715.941406 1249.121094 716.183594 C 1248.960938 716.421875 1248.78125 716.640625 1248.578125 716.847656 C 1248.375 717.050781 1248.152344 717.230469 1247.914062 717.390625 C 1247.675781 717.550781 1247.421875 717.683594 1247.15625 717.796875 C 1246.890625 717.90625 1246.617188 717.988281 1246.335938 718.042969 C 1246.050781 718.101562 1245.769531 718.128906 1245.480469 718.128906 L 1243.289062 718.128906 C 1243.289062 717.695312 1243.332031 717.269531 1243.417969 716.847656 C 1243.5 716.425781 1243.625 716.011719 1243.789062 715.613281 C 1243.957031 715.214844 1244.160156 714.835938 1244.398438 714.480469 C 1244.636719 714.121094 1244.910156 713.789062 1245.214844 713.484375 C 1245.519531 713.179688 1245.851562 712.90625 1246.210938 712.667969 C 1246.570312 712.425781 1246.949219 712.226562 1247.347656 712.058594 C 1247.746094 711.894531 1248.15625 711.769531 1248.578125 711.6875 C 1249 711.601562 1249.429688 711.558594 1249.859375 711.558594 Z M 1249.859375 713.75 " fill-opacity="1" fill-rule="nonzero"/></g></svg>
