<svg xmlns="http://www.w3.org/2000/svg" xmlns:xlink="http://www.w3.org/1999/xlink" width="1920" zoomAndPan="magnify" viewBox="0 0 1440 809.999993" height="1080" preserveAspectRatio="xMidYMid meet" version="1.0"><defs><clipPath id="666f9fcb99"><path d="M 0 567 L 240.75 567 L 240.75 807.75 L 0 807.75 Z M 0 567 " clip-rule="nonzero"/></clipPath><clipPath id="7403cc17b1"><path d="M 1232.613281 567 L 1440 567 L 1440 807.75 L 1232.613281 807.75 Z M 1232.613281 567 " clip-rule="nonzero"/></clipPath><clipPath id="6419630976"><path d="M 276 458 L 284 458 L 284 461.589844 L 276 461.589844 Z M 276 458 " clip-rule="nonzero"/></clipPath></defs><rect x="-144" width="1728" fill="#ffffff" y="-80.999999" height="971.999992" fill-opacity="1"/><rect x="-144" width="1728" fill="#ffffff" y="-80.999999" height="971.999992" fill-opacity="1"/><rect x="-144" width="1728" fill="#000000" y="-80.999999" height="971.999992" fill-opacity="1"/><g clip-path="url(#666f9fcb99)"><path fill="#ffffff" d="M 229.101562 625.246094 L 211.628906 625.246094 L 211.628906 592.238281 L 213.570312 592.238281 C 213.824219 592.238281 214.074219 592.191406 214.3125 592.09375 C 214.550781 591.992188 214.757812 591.851562 214.941406 591.671875 C 215.125 591.488281 215.265625 591.277344 215.363281 591.042969 C 215.460938 590.804688 215.511719 590.554688 215.511719 590.296875 L 215.511719 571.425781 C 215.511719 571.136719 215.480469 570.847656 215.425781 570.5625 C 215.367188 570.277344 215.285156 570 215.171875 569.734375 C 215.0625 569.464844 214.925781 569.210938 214.765625 568.96875 C 214.601562 568.726562 214.417969 568.503906 214.214844 568.296875 C 214.007812 568.089844 213.785156 567.90625 213.542969 567.746094 C 213.300781 567.585938 213.046875 567.449219 212.777344 567.335938 C 212.507812 567.226562 212.230469 567.140625 211.945312 567.085938 C 211.660156 567.027344 211.375 567 211.082031 567 L 157.808594 567 C 157.515625 567 157.230469 567.027344 156.945312 567.085938 C 156.660156 567.140625 156.382812 567.226562 156.113281 567.335938 C 155.84375 567.449219 155.589844 567.585938 155.347656 567.746094 C 155.105469 567.90625 154.882812 568.089844 154.675781 568.296875 C 154.472656 568.503906 154.289062 568.726562 154.128906 568.96875 C 153.964844 569.210938 153.828125 569.464844 153.71875 569.734375 C 153.605469 570 153.523438 570.277344 153.464844 570.5625 C 153.410156 570.847656 153.382812 571.136719 153.382812 571.425781 L 153.382812 590.296875 C 153.382812 590.554688 153.429688 590.804688 153.527344 591.042969 C 153.628906 591.277344 153.769531 591.488281 153.949219 591.671875 C 154.132812 591.851562 154.339844 591.992188 154.578125 592.09375 C 154.816406 592.191406 155.066406 592.238281 155.324219 592.238281 L 157.265625 592.238281 L 157.265625 625.246094 L 139.789062 625.246094 C 139.027344 625.246094 138.269531 625.320312 137.519531 625.46875 C 136.765625 625.617188 136.039062 625.839844 135.332031 626.132812 C 134.625 626.425781 133.953125 626.785156 133.320312 627.210938 C 132.683594 627.632812 132.09375 628.117188 131.554688 628.65625 C 131.011719 629.199219 130.53125 629.789062 130.105469 630.421875 C 129.679688 631.058594 129.320312 631.730469 129.027344 632.4375 C 128.734375 633.144531 128.515625 633.871094 128.363281 634.621094 C 128.214844 635.371094 128.140625 636.128906 128.140625 636.894531 L 128.140625 687.375 L 124.257812 687.375 L 124.257812 671.84375 C 124.257812 671.078125 124.183594 670.320312 124.035156 669.570312 C 123.886719 668.820312 123.664062 668.089844 123.371094 667.386719 C 123.078125 666.679688 122.71875 666.007812 122.292969 665.371094 C 121.871094 664.734375 121.386719 664.144531 120.847656 663.605469 C 120.304688 663.066406 119.71875 662.582031 119.082031 662.15625 C 118.445312 661.730469 117.773438 661.371094 117.066406 661.082031 C 116.359375 660.789062 115.632812 660.566406 114.882812 660.417969 C 114.132812 660.269531 113.375 660.195312 112.609375 660.195312 L 66.011719 660.195312 C 65.246094 660.195312 64.488281 660.269531 63.738281 660.417969 C 62.988281 660.566406 62.261719 660.789062 61.554688 661.082031 C 60.847656 661.371094 60.175781 661.730469 59.539062 662.15625 C 58.902344 662.582031 58.316406 663.066406 57.773438 663.605469 C 57.234375 664.144531 56.75 664.734375 56.324219 665.371094 C 55.902344 666.007812 55.542969 666.679688 55.25 667.386719 C 54.957031 668.089844 54.734375 668.820312 54.585938 669.570312 C 54.4375 670.320312 54.363281 671.078125 54.363281 671.84375 L 54.363281 687.375 L 33.976562 687.375 L 33.976562 684.347656 C 33.976562 684.035156 33.945312 683.726562 33.886719 683.421875 C 33.824219 683.117188 33.734375 682.820312 33.617188 682.535156 C 33.496094 682.246094 33.351562 681.972656 33.179688 681.714844 C 33.003906 681.457031 32.808594 681.214844 32.589844 680.996094 C 32.371094 680.777344 32.128906 680.578125 31.871094 680.40625 C 31.613281 680.234375 31.339844 680.089844 31.050781 679.96875 C 30.765625 679.851562 30.46875 679.761719 30.164062 679.699219 C 29.859375 679.640625 29.550781 679.609375 29.238281 679.609375 L 25.125 679.609375 C 24.8125 679.609375 24.503906 679.640625 24.199219 679.699219 C 23.894531 679.761719 23.597656 679.851562 23.308594 679.96875 C 23.023438 680.089844 22.75 680.234375 22.492188 680.40625 C 22.234375 680.582031 21.992188 680.777344 21.773438 680.996094 C 21.554688 681.214844 21.355469 681.457031 21.183594 681.714844 C 21.011719 681.972656 20.867188 682.246094 20.746094 682.535156 C 20.628906 682.820312 20.539062 683.117188 20.476562 683.421875 C 20.417969 683.726562 20.386719 684.035156 20.386719 684.347656 L 20.386719 687.375 L 11.648438 687.375 C 10.882812 687.375 10.125 687.449219 9.375 687.597656 C 8.625 687.75 7.898438 687.96875 7.191406 688.261719 C 6.484375 688.554688 5.8125 688.914062 5.175781 689.339844 C 4.542969 689.761719 3.953125 690.246094 3.410156 690.785156 C 2.871094 691.328125 2.386719 691.917969 1.964844 692.550781 C 1.539062 693.1875 1.179688 693.859375 0.886719 694.566406 C 0.59375 695.273438 0.375 696 0.222656 696.75 C 0.0742188 697.5 0 698.257812 0 699.023438 L 0 796.101562 C 0 796.867188 0.0742188 797.625 0.222656 798.375 C 0.375 799.125 0.59375 799.851562 0.886719 800.558594 C 1.179688 801.265625 1.539062 801.9375 1.964844 802.574219 C 2.386719 803.207031 2.871094 803.796875 3.410156 804.339844 C 3.953125 804.878906 4.542969 805.363281 5.175781 805.785156 C 5.8125 806.210938 6.484375 806.570312 7.191406 806.863281 C 7.898438 807.15625 8.625 807.375 9.375 807.527344 C 10.125 807.675781 10.882812 807.75 11.648438 807.75 L 166.972656 807.75 C 167.738281 807.75 168.496094 807.675781 169.246094 807.527344 C 169.996094 807.375 170.722656 807.15625 171.429688 806.863281 C 172.136719 806.570312 172.808594 806.210938 173.445312 805.785156 C 174.078125 805.363281 174.667969 804.878906 175.207031 804.339844 C 175.75 803.796875 176.234375 803.207031 176.65625 802.574219 C 177.082031 801.9375 177.441406 801.265625 177.734375 800.558594 C 178.027344 799.851562 178.246094 799.125 178.398438 798.375 C 178.546875 797.625 178.621094 796.867188 178.621094 796.101562 L 178.621094 792.21875 L 209.683594 792.21875 C 208.390625 793.945312 207.742188 795.886719 207.742188 798.042969 C 207.742188 798.679688 207.804688 799.3125 207.929688 799.9375 C 208.054688 800.5625 208.238281 801.167969 208.484375 801.757812 C 208.726562 802.347656 209.027344 802.90625 209.378906 803.4375 C 209.734375 803.964844 210.136719 804.457031 210.585938 804.90625 C 211.039062 805.355469 211.527344 805.761719 212.058594 806.113281 C 212.589844 806.46875 213.148438 806.765625 213.738281 807.011719 C 214.324219 807.253906 214.933594 807.4375 215.558594 807.5625 C 216.183594 807.6875 216.8125 807.75 217.453125 807.75 C 218.089844 807.75 218.71875 807.6875 219.34375 807.5625 C 219.96875 807.4375 220.578125 807.253906 221.167969 807.011719 C 221.753906 806.765625 222.316406 806.46875 222.84375 806.113281 C 223.375 805.761719 223.867188 805.355469 224.316406 804.90625 C 224.765625 804.457031 225.167969 803.964844 225.523438 803.4375 C 225.878906 802.90625 226.175781 802.347656 226.421875 801.757812 C 226.664062 801.167969 226.847656 800.5625 226.972656 799.9375 C 227.097656 799.3125 227.160156 798.679688 227.160156 798.042969 C 227.160156 795.886719 226.511719 793.945312 225.21875 792.21875 L 229.101562 792.21875 C 229.867188 792.21875 230.625 792.144531 231.375 791.992188 C 232.125 791.84375 232.851562 791.625 233.558594 791.332031 C 234.265625 791.039062 234.9375 790.679688 235.574219 790.253906 C 236.207031 789.828125 236.796875 789.347656 237.339844 788.804688 C 237.878906 788.265625 238.363281 787.675781 238.785156 787.039062 C 239.210938 786.40625 239.570312 785.734375 239.863281 785.027344 C 240.15625 784.320312 240.375 783.589844 240.527344 782.839844 C 240.675781 782.089844 240.75 781.332031 240.75 780.570312 L 240.75 636.894531 C 240.75 636.128906 240.675781 635.371094 240.527344 634.621094 C 240.375 633.871094 240.15625 633.144531 239.863281 632.4375 C 239.570312 631.730469 239.210938 631.058594 238.785156 630.421875 C 238.363281 629.789062 237.878906 629.199219 237.339844 628.65625 C 236.796875 628.117188 236.207031 627.632812 235.574219 627.210938 C 234.9375 626.785156 234.265625 626.425781 233.558594 626.132812 C 232.851562 625.839844 232.125 625.617188 231.375 625.46875 C 230.625 625.320312 229.867188 625.246094 229.101562 625.246094 Z M 148.527344 687.375 L 148.527344 684.347656 C 148.527344 684.109375 148.609375 683.910156 148.777344 683.742188 C 148.945312 683.574219 149.144531 683.492188 149.382812 683.492188 L 153.515625 683.492188 C 153.753906 683.492188 153.953125 683.574219 154.121094 683.742188 C 154.289062 683.910156 154.371094 684.109375 154.371094 684.347656 L 154.371094 687.375 Z M 153.496094 679.609375 L 149.382812 679.609375 C 149.070312 679.609375 148.761719 679.640625 148.457031 679.699219 C 148.152344 679.761719 147.855469 679.851562 147.570312 679.96875 C 147.28125 680.089844 147.007812 680.234375 146.75 680.40625 C 146.492188 680.578125 146.25 680.777344 146.03125 680.996094 C 145.8125 681.214844 145.617188 681.457031 145.441406 681.714844 C 145.269531 681.972656 145.125 682.246094 145.003906 682.535156 C 144.886719 682.820312 144.796875 683.117188 144.734375 683.421875 C 144.675781 683.726562 144.644531 684.035156 144.644531 684.347656 L 144.644531 687.375 L 132.023438 687.375 L 132.023438 664.078125 L 236.867188 664.078125 L 236.867188 702.90625 L 178.621094 702.90625 L 178.621094 699.023438 C 178.621094 698.257812 178.546875 697.5 178.398438 696.75 C 178.246094 696 178.027344 695.273438 177.734375 694.566406 C 177.441406 693.859375 177.082031 693.1875 176.65625 692.550781 C 176.234375 691.917969 175.75 691.328125 175.207031 690.785156 C 174.667969 690.246094 174.078125 689.761719 173.445312 689.339844 C 172.808594 688.914062 172.136719 688.554688 171.429688 688.261719 C 170.722656 687.96875 169.996094 687.75 169.246094 687.597656 C 168.496094 687.449219 167.738281 687.375 166.972656 687.375 L 158.234375 687.375 L 158.234375 684.347656 C 158.234375 684.035156 158.203125 683.726562 158.144531 683.421875 C 158.082031 683.117188 157.992188 682.820312 157.875 682.535156 C 157.753906 682.246094 157.609375 681.972656 157.4375 681.714844 C 157.261719 681.457031 157.066406 681.214844 156.847656 680.996094 C 156.628906 680.777344 156.386719 680.578125 156.128906 680.40625 C 155.871094 680.234375 155.597656 680.089844 155.308594 679.96875 C 155.023438 679.851562 154.726562 679.761719 154.421875 679.699219 C 154.117188 679.640625 153.808594 679.609375 153.496094 679.609375 Z M 37.625 775.5 L 42.265625 783.636719 L 38.832031 792.355469 L 29.859375 795.070312 L 22.09375 789.753906 L 21.433594 780.414062 L 28.347656 774.0625 Z M 40.773438 795.808594 C 41.371094 795.628906 41.785156 795.246094 42.015625 794.664062 L 46.167969 784.21875 C 46.402344 783.636719 46.363281 783.074219 46.054688 782.53125 L 40.480469 772.820312 C 40.171875 772.285156 39.714844 771.96875 39.101562 771.871094 L 38.792969 771.871094 L 38.792969 691.257812 L 46.558594 691.257812 L 46.558594 733.058594 C 46.085938 733.269531 45.746094 733.609375 45.546875 734.089844 L 45.042969 735.3125 C 44.941406 735.546875 44.890625 735.796875 44.890625 736.050781 C 44.886719 736.308594 44.933594 736.558594 45.03125 736.796875 C 45.128906 737.035156 45.265625 737.246094 45.445312 737.429688 C 45.628906 737.613281 45.835938 737.753906 46.074219 737.855469 L 46.597656 738.105469 L 46.597656 803.867188 L 38.832031 803.867188 L 38.832031 796.410156 Z M 50.480469 739.796875 L 54.519531 741.640625 L 58.246094 750.183594 C 58.351562 750.425781 58.496094 750.636719 58.6875 750.816406 C 58.875 750.996094 59.09375 751.136719 59.335938 751.226562 C 59.582031 751.320312 59.835938 751.363281 60.097656 751.355469 C 60.359375 751.34375 60.609375 751.285156 60.847656 751.171875 L 62.167969 750.570312 C 62.789062 750.289062 63.160156 749.808594 63.273438 749.136719 L 64.613281 741.136719 L 77.46875 728.28125 L 83 740.863281 C 83.152344 741.210938 83.382812 741.488281 83.695312 741.699219 C 84.007812 741.910156 84.351562 742.019531 84.726562 742.027344 C 85.09375 742.027344 85.433594 741.929688 85.742188 741.738281 C 86.054688 741.546875 86.292969 741.289062 86.457031 740.960938 L 89.078125 735.757812 C 89.679688 734.59375 89.867188 733.363281 89.640625 732.070312 C 89.582031 731.695312 89.484375 731.335938 89.347656 730.980469 L 89.058594 730.207031 L 89.601562 729.660156 C 89.902344 729.34375 90.078125 728.96875 90.125 728.53125 C 90.171875 728.097656 90.082031 727.691406 89.855469 727.320312 C 89.628906 726.945312 89.308594 726.675781 88.902344 726.515625 C 88.496094 726.359375 88.082031 726.335938 87.660156 726.457031 L 87.234375 725.292969 L 87.933594 724.59375 C 88.089844 724.433594 88.21875 724.253906 88.3125 724.050781 C 88.410156 723.847656 88.46875 723.636719 88.488281 723.414062 C 88.511719 723.1875 88.492188 722.96875 88.4375 722.75 C 88.382812 722.535156 88.292969 722.332031 88.171875 722.144531 C 88.046875 721.957031 87.894531 721.796875 87.710938 721.664062 C 87.53125 721.53125 87.335938 721.433594 87.121094 721.367188 C 86.90625 721.300781 86.6875 721.273438 86.460938 721.285156 C 86.238281 721.296875 86.023438 721.34375 85.816406 721.429688 L 85.425781 720.285156 L 90.515625 715.195312 C 91.539062 714.199219 92.289062 713.023438 92.761719 711.667969 C 93.234375 710.316406 93.375 708.929688 93.195312 707.507812 L 93 706.1875 C 92.953125 705.824219 92.847656 705.472656 92.6875 705.140625 C 92.527344 704.8125 92.316406 704.515625 92.054688 704.253906 C 91.796875 703.992188 91.5 703.777344 91.171875 703.613281 C 90.839844 703.449219 90.492188 703.34375 90.125 703.296875 L 88.765625 703.101562 C 87.359375 702.914062 85.980469 703.050781 84.636719 703.507812 C 83.292969 703.964844 82.121094 704.695312 81.117188 705.703125 L 76.011719 710.808594 L 74.867188 710.382812 C 74.949219 710.175781 75 709.960938 75.011719 709.734375 C 75.019531 709.511719 74.992188 709.292969 74.929688 709.078125 C 74.863281 708.863281 74.765625 708.664062 74.628906 708.484375 C 74.496094 708.304688 74.335938 708.152344 74.148438 708.027344 C 73.964844 707.902344 73.761719 707.8125 73.542969 707.757812 C 73.328125 707.703125 73.105469 707.6875 72.882812 707.710938 C 72.660156 707.730469 72.445312 707.789062 72.242188 707.886719 C 72.039062 707.980469 71.859375 708.109375 71.699219 708.265625 L 71 708.964844 L 69.835938 708.539062 C 69.945312 708.195312 69.957031 707.851562 69.871094 707.503906 C 69.789062 707.152344 69.621094 706.851562 69.371094 706.597656 C 69.1875 706.414062 68.980469 706.277344 68.742188 706.179688 C 68.503906 706.082031 68.257812 706.03125 68.003906 706.03125 C 67.746094 706.03125 67.5 706.082031 67.261719 706.179688 C 67.023438 706.277344 66.816406 706.414062 66.632812 706.597656 L 66.089844 707.140625 L 65.3125 706.847656 C 64.53125 706.5625 63.726562 706.441406 62.898438 706.488281 C 62.066406 706.535156 61.28125 706.746094 60.535156 707.121094 L 55.332031 709.742188 C 54.992188 709.902344 54.722656 710.140625 54.519531 710.457031 C 54.320312 710.777344 54.21875 711.121094 54.21875 711.5 C 54.21875 711.875 54.320312 712.222656 54.519531 712.539062 C 54.722656 712.855469 54.992188 713.09375 55.332031 713.253906 L 67.953125 718.789062 L 55.121094 731.640625 L 50.480469 732.378906 L 50.480469 691.257812 L 128.140625 691.257812 L 128.140625 742.203125 L 125.832031 739.796875 C 125.648438 739.617188 125.4375 739.476562 125.203125 739.378906 C 124.964844 739.28125 124.71875 739.230469 124.460938 739.230469 C 124.207031 739.230469 123.957031 739.28125 123.722656 739.378906 C 123.484375 739.476562 123.273438 739.617188 123.09375 739.796875 L 117.636719 745.253906 L 99.773438 763.09375 L 94.320312 768.550781 C 94.140625 768.730469 94 768.941406 93.902344 769.179688 C 93.804688 769.414062 93.753906 769.664062 93.753906 769.917969 C 93.753906 770.175781 93.804688 770.421875 93.902344 770.660156 C 94 770.898438 94.140625 771.105469 94.320312 771.289062 L 105.210938 782.511719 C 105.394531 782.691406 105.601562 782.832031 105.839844 782.929688 C 106.078125 783.027344 106.324219 783.074219 106.582031 783.074219 C 106.835938 783.074219 107.082031 783.027344 107.320312 782.929688 C 107.558594 782.832031 107.765625 782.691406 107.949219 782.511719 L 113.40625 777.054688 L 128.140625 762.242188 L 128.140625 803.867188 L 50.480469 803.867188 Z M 72.925781 713.78125 L 70.984375 715.722656 L 60.769531 711.238281 L 62.304688 710.460938 C 62.847656 710.1875 63.402344 710.15625 63.972656 710.363281 Z M 83.796875 708.402344 C 84.367188 707.824219 85.035156 707.402344 85.804688 707.140625 C 86.574219 706.878906 87.359375 706.800781 88.164062 706.90625 L 89.136719 707.042969 L 89.273438 707.992188 C 89.375 708.800781 89.296875 709.585938 89.035156 710.351562 C 88.773438 711.121094 88.351562 711.789062 87.777344 712.363281 L 61.390625 738.804688 C 61.097656 739.097656 60.917969 739.449219 60.847656 739.855469 L 60.050781 744.628906 L 57.78125 739.445312 C 57.582031 738.992188 57.257812 738.664062 56.808594 738.457031 L 51.683594 736.109375 L 56.34375 735.371094 C 56.757812 735.304688 57.113281 735.121094 57.410156 734.824219 Z M 85.039062 730.378906 L 85.757812 732.320312 C 85.769531 732.445312 85.769531 732.566406 85.757812 732.691406 C 85.835938 733.140625 85.769531 733.566406 85.5625 733.972656 L 84.785156 735.503906 L 80.378906 725.3125 L 82.320312 723.371094 Z M 110.667969 687.375 L 67.953125 687.375 L 67.953125 677.027344 C 67.953125 676.597656 68.035156 676.183594 68.199219 675.785156 C 68.363281 675.386719 68.597656 675.039062 68.902344 674.734375 C 69.207031 674.429688 69.558594 674.195312 69.957031 674.03125 C 70.351562 673.867188 70.765625 673.785156 71.195312 673.785156 L 107.425781 673.785156 C 107.855469 673.785156 108.269531 673.867188 108.664062 674.03125 C 109.0625 674.195312 109.414062 674.429688 109.71875 674.734375 C 110.023438 675.039062 110.257812 675.386719 110.421875 675.785156 C 110.585938 676.183594 110.667969 676.597656 110.667969 677.027344 Z M 132.023438 652.425781 L 236.867188 652.425781 L 236.867188 660.195312 L 132.023438 660.195312 Z M 101.113281 767.347656 L 109.347656 775.578125 L 106.609375 778.316406 L 98.378906 770.085938 Z M 112.085938 772.800781 L 103.851562 764.570312 L 118.957031 749.503906 L 127.191406 757.734375 Z M 129.925781 754.960938 L 121.695312 746.726562 L 124.433594 743.988281 L 128.683594 748.242188 L 132.566406 752.125 Z M 132.023438 758.355469 L 136.800781 753.582031 C 136.980469 753.398438 137.121094 753.191406 137.21875 752.953125 C 137.316406 752.714844 137.363281 752.46875 137.363281 752.210938 C 137.363281 751.957031 137.316406 751.710938 137.21875 751.472656 C 137.121094 751.234375 136.980469 751.027344 136.800781 750.84375 L 132.023438 746.085938 L 132.023438 691.257812 L 139.789062 691.257812 L 139.789062 803.867188 L 132.023438 803.867188 Z M 178.621094 718.441406 L 236.867188 718.441406 L 236.867188 753.386719 L 178.621094 753.386719 Z M 178.621094 714.554688 L 178.621094 706.789062 L 236.867188 706.789062 L 236.867188 714.554688 Z M 178.621094 757.269531 L 236.867188 757.269531 L 236.867188 765.035156 L 178.621094 765.035156 Z M 236.867188 636.894531 L 236.867188 640.777344 C 236.101562 640.777344 235.34375 640.703125 234.59375 640.554688 C 233.84375 640.40625 233.117188 640.183594 232.410156 639.890625 C 231.703125 639.597656 231.03125 639.238281 230.394531 638.816406 C 229.757812 638.390625 229.171875 637.90625 228.628906 637.367188 C 228.089844 636.824219 227.605469 636.238281 227.179688 635.601562 C 226.757812 634.964844 226.398438 634.292969 226.105469 633.585938 C 225.8125 632.878906 225.589844 632.152344 225.441406 631.402344 C 225.292969 630.652344 225.21875 629.894531 225.21875 629.128906 L 229.101562 629.128906 C 229.609375 629.128906 230.117188 629.179688 230.617188 629.277344 C 231.117188 629.378906 231.601562 629.523438 232.074219 629.71875 C 232.542969 629.914062 232.992188 630.15625 233.414062 630.4375 C 233.839844 630.722656 234.230469 631.042969 234.59375 631.402344 C 234.953125 631.765625 235.273438 632.15625 235.558594 632.582031 C 235.839844 633.003906 236.082031 633.453125 236.277344 633.921875 C 236.472656 634.394531 236.617188 634.878906 236.71875 635.378906 C 236.816406 635.878906 236.867188 636.386719 236.867188 636.894531 Z M 236.867188 644.660156 L 236.867188 648.542969 L 132.023438 648.542969 L 132.023438 644.660156 C 133.042969 644.660156 134.054688 644.5625 135.054688 644.363281 C 136.054688 644.164062 137.027344 643.871094 137.96875 643.480469 C 138.910156 643.089844 139.804688 642.609375 140.652344 642.042969 C 141.5 641.476562 142.285156 640.832031 143.007812 640.113281 C 143.726562 639.390625 144.371094 638.605469 144.9375 637.757812 C 145.503906 636.910156 145.984375 636.015625 146.375 635.074219 C 146.765625 634.128906 147.058594 633.160156 147.257812 632.160156 C 147.457031 631.160156 147.554688 630.148438 147.554688 629.128906 L 221.335938 629.128906 C 221.335938 630.148438 221.433594 631.160156 221.632812 632.160156 C 221.832031 633.160156 222.125 634.128906 222.515625 635.074219 C 222.90625 636.015625 223.386719 636.910156 223.953125 637.757812 C 224.519531 638.605469 225.164062 639.390625 225.882812 640.113281 C 226.605469 640.832031 227.390625 641.476562 228.238281 642.042969 C 229.085938 642.609375 229.980469 643.089844 230.921875 643.480469 C 231.863281 643.871094 232.835938 644.164062 233.835938 644.363281 C 234.835938 644.5625 235.847656 644.660156 236.867188 644.660156 Z M 157.265625 571.425781 C 157.265625 571.277344 157.316406 571.148438 157.421875 571.042969 C 157.53125 570.9375 157.65625 570.882812 157.808594 570.882812 L 211.082031 570.882812 C 211.234375 570.882812 211.363281 570.9375 211.46875 571.042969 C 211.574219 571.148438 211.628906 571.277344 211.628906 571.425781 L 211.628906 588.355469 L 207.742188 588.355469 L 207.742188 579.191406 C 207.742188 578.902344 207.714844 578.613281 207.660156 578.328125 C 207.601562 578.042969 207.519531 577.765625 207.40625 577.5 C 207.296875 577.230469 207.160156 576.976562 206.996094 576.734375 C 206.835938 576.492188 206.652344 576.269531 206.449219 576.0625 C 206.242188 575.855469 206.019531 575.671875 205.777344 575.511719 C 205.535156 575.351562 205.28125 575.214844 205.011719 575.101562 C 204.742188 574.992188 204.464844 574.90625 204.179688 574.851562 C 203.894531 574.792969 203.609375 574.765625 203.316406 574.765625 L 165.574219 574.765625 C 165.28125 574.765625 164.996094 574.792969 164.710938 574.851562 C 164.425781 574.90625 164.148438 574.992188 163.878906 575.101562 C 163.609375 575.214844 163.355469 575.351562 163.113281 575.511719 C 162.871094 575.671875 162.648438 575.855469 162.445312 576.0625 C 162.238281 576.269531 162.054688 576.492188 161.894531 576.734375 C 161.730469 576.976562 161.59375 577.230469 161.484375 577.5 C 161.371094 577.765625 161.289062 578.042969 161.230469 578.328125 C 161.175781 578.613281 161.148438 578.902344 161.148438 579.191406 L 161.148438 588.355469 L 157.265625 588.355469 Z M 161.148438 592.238281 L 163.089844 592.238281 C 163.347656 592.238281 163.59375 592.191406 163.832031 592.09375 C 164.070312 591.992188 164.28125 591.851562 164.460938 591.671875 C 164.644531 591.488281 164.785156 591.277344 164.882812 591.042969 C 164.980469 590.804688 165.03125 590.554688 165.03125 590.296875 L 165.03125 579.191406 C 165.03125 579.042969 165.082031 578.914062 165.191406 578.808594 C 165.296875 578.703125 165.421875 578.648438 165.574219 578.648438 L 203.316406 578.648438 C 203.46875 578.648438 203.59375 578.703125 203.703125 578.808594 C 203.808594 578.914062 203.859375 579.042969 203.859375 579.191406 L 203.859375 590.296875 C 203.859375 590.554688 203.910156 590.804688 204.007812 591.042969 C 204.105469 591.277344 204.246094 591.488281 204.429688 591.671875 C 204.613281 591.851562 204.820312 591.992188 205.058594 592.09375 C 205.296875 592.191406 205.546875 592.238281 205.800781 592.238281 L 207.742188 592.238281 L 207.742188 625.246094 L 161.148438 625.246094 Z M 132.023438 636.894531 C 132.023438 636.386719 132.074219 635.878906 132.171875 635.378906 C 132.273438 634.878906 132.421875 634.394531 132.617188 633.921875 C 132.808594 633.453125 133.050781 633.003906 133.332031 632.582031 C 133.617188 632.15625 133.9375 631.765625 134.300781 631.402344 C 134.660156 631.042969 135.050781 630.722656 135.476562 630.4375 C 135.898438 630.15625 136.347656 629.914062 136.820312 629.71875 C 137.289062 629.523438 137.773438 629.378906 138.273438 629.277344 C 138.773438 629.179688 139.28125 629.128906 139.789062 629.128906 L 143.671875 629.128906 C 143.671875 629.894531 143.597656 630.652344 143.449219 631.402344 C 143.300781 632.152344 143.078125 632.878906 142.785156 633.585938 C 142.492188 634.292969 142.136719 634.964844 141.710938 635.601562 C 141.285156 636.238281 140.800781 636.824219 140.261719 637.367188 C 139.71875 637.90625 139.132812 638.390625 138.496094 638.816406 C 137.859375 639.238281 137.1875 639.597656 136.480469 639.890625 C 135.777344 640.183594 135.046875 640.40625 134.296875 640.554688 C 133.546875 640.703125 132.789062 640.777344 132.023438 640.777344 Z M 58.246094 671.84375 C 58.246094 671.332031 58.296875 670.828125 58.394531 670.328125 C 58.496094 669.828125 58.640625 669.34375 58.835938 668.871094 C 59.03125 668.398438 59.273438 667.953125 59.554688 667.527344 C 59.839844 667.105469 60.160156 666.710938 60.519531 666.351562 C 60.882812 665.992188 61.273438 665.667969 61.699219 665.386719 C 62.121094 665.101562 62.570312 664.863281 63.039062 664.667969 C 63.511719 664.472656 63.996094 664.324219 64.496094 664.226562 C 64.996094 664.125 65.503906 664.078125 66.011719 664.078125 L 112.609375 664.078125 C 113.117188 664.078125 113.625 664.125 114.125 664.226562 C 114.625 664.324219 115.109375 664.472656 115.582031 664.667969 C 116.050781 664.863281 116.5 665.101562 116.921875 665.386719 C 117.347656 665.667969 117.738281 665.992188 118.101562 666.351562 C 118.460938 666.710938 118.78125 667.105469 119.066406 667.527344 C 119.347656 667.953125 119.589844 668.398438 119.785156 668.871094 C 119.980469 669.34375 120.125 669.828125 120.226562 670.328125 C 120.324219 670.828125 120.375 671.332031 120.375 671.84375 L 120.375 687.375 L 114.550781 687.375 L 114.550781 677.027344 C 114.550781 676.558594 114.503906 676.09375 114.414062 675.636719 C 114.320312 675.175781 114.1875 674.730469 114.007812 674.300781 C 113.828125 673.867188 113.609375 673.457031 113.347656 673.066406 C 113.089844 672.679688 112.792969 672.320312 112.464844 671.988281 C 112.132812 671.65625 111.773438 671.363281 111.382812 671.101562 C 110.996094 670.84375 110.585938 670.621094 110.152344 670.445312 C 109.71875 670.265625 109.273438 670.128906 108.816406 670.039062 C 108.355469 669.945312 107.894531 669.902344 107.425781 669.902344 L 71.195312 669.902344 C 70.726562 669.902344 70.265625 669.945312 69.804688 670.039062 C 69.347656 670.128906 68.902344 670.265625 68.46875 670.445312 C 68.035156 670.621094 67.625 670.84375 67.238281 671.101562 C 66.847656 671.363281 66.488281 671.65625 66.15625 671.988281 C 65.828125 672.320312 65.53125 672.679688 65.269531 673.066406 C 65.011719 673.457031 64.792969 673.867188 64.613281 674.300781 C 64.433594 674.730469 64.296875 675.175781 64.207031 675.636719 C 64.117188 676.09375 64.070312 676.558594 64.070312 677.027344 L 64.070312 687.375 L 58.246094 687.375 Z M 24.269531 684.347656 C 24.269531 684.109375 24.351562 683.910156 24.519531 683.742188 C 24.6875 683.574219 24.886719 683.492188 25.125 683.492188 L 29.257812 683.492188 C 29.496094 683.492188 29.695312 683.574219 29.863281 683.742188 C 30.03125 683.910156 30.113281 684.109375 30.113281 684.347656 L 30.113281 687.375 L 24.289062 687.375 Z M 3.882812 796.101562 L 3.882812 699.023438 C 3.882812 698.515625 3.933594 698.007812 4.03125 697.507812 C 4.132812 697.007812 4.277344 696.523438 4.472656 696.050781 C 4.667969 695.582031 4.910156 695.132812 5.191406 694.710938 C 5.476562 694.285156 5.796875 693.894531 6.15625 693.53125 C 6.519531 693.171875 6.910156 692.851562 7.335938 692.566406 C 7.757812 692.285156 8.207031 692.042969 8.675781 691.847656 C 9.148438 691.652344 9.632812 691.507812 10.132812 691.40625 C 10.632812 691.308594 11.140625 691.257812 11.648438 691.257812 L 34.949219 691.257812 L 34.949219 771.152344 L 28.035156 770.085938 C 27.421875 769.988281 26.882812 770.148438 26.425781 770.570312 L 18.132812 778.179688 C 17.671875 778.605469 17.464844 779.128906 17.511719 779.753906 L 18.308594 790.957031 C 18.355469 791.574219 18.632812 792.058594 19.144531 792.410156 L 28.40625 798.800781 C 28.921875 799.152344 29.476562 799.238281 30.074219 799.050781 L 34.949219 797.578125 L 34.949219 803.867188 L 11.648438 803.867188 C 11.140625 803.867188 10.632812 803.816406 10.132812 803.71875 C 9.632812 803.617188 9.148438 803.472656 8.675781 803.277344 C 8.207031 803.082031 7.757812 802.839844 7.335938 802.558594 C 6.910156 802.273438 6.519531 801.953125 6.15625 801.59375 C 5.796875 801.230469 5.476562 800.839844 5.191406 800.414062 C 4.910156 799.992188 4.667969 799.542969 4.472656 799.074219 C 4.277344 798.601562 4.132812 798.117188 4.03125 797.617188 C 3.933594 797.117188 3.882812 796.609375 3.882812 796.101562 Z M 174.738281 796.101562 C 174.738281 796.609375 174.6875 797.117188 174.589844 797.617188 C 174.488281 798.117188 174.34375 798.601562 174.148438 799.074219 C 173.953125 799.542969 173.710938 799.992188 173.429688 800.414062 C 173.144531 800.839844 172.824219 801.230469 172.464844 801.59375 C 172.101562 801.953125 171.710938 802.273438 171.285156 802.558594 C 170.863281 802.839844 170.414062 803.082031 169.945312 803.277344 C 169.472656 803.472656 168.988281 803.617188 168.488281 803.71875 C 167.988281 803.816406 167.480469 803.867188 166.972656 803.867188 L 143.671875 803.867188 L 143.671875 691.257812 L 166.972656 691.257812 C 167.480469 691.257812 167.988281 691.308594 168.488281 691.40625 C 168.988281 691.507812 169.472656 691.652344 169.945312 691.847656 C 170.414062 692.042969 170.863281 692.285156 171.285156 692.566406 C 171.710938 692.851562 172.101562 693.171875 172.464844 693.53125 C 172.824219 693.894531 173.144531 694.285156 173.429688 694.710938 C 173.710938 695.132812 173.953125 695.582031 174.148438 696.050781 C 174.34375 696.523438 174.488281 697.007812 174.589844 697.507812 C 174.6875 698.007812 174.738281 698.515625 174.738281 699.023438 Z M 178.621094 768.917969 L 236.867188 768.917969 L 236.867188 772.800781 C 235.847656 772.800781 234.835938 772.902344 233.835938 773.101562 C 232.835938 773.300781 231.863281 773.59375 230.921875 773.984375 C 229.980469 774.375 229.085938 774.851562 228.238281 775.421875 C 227.390625 775.988281 226.605469 776.628906 225.882812 777.351562 C 225.164062 778.074219 224.519531 778.859375 223.953125 779.707031 C 223.386719 780.554688 222.90625 781.449219 222.515625 782.390625 C 222.125 783.332031 221.832031 784.304688 221.632812 785.304688 C 221.433594 786.304688 221.335938 787.316406 221.335938 788.335938 L 178.621094 788.335938 Z M 222.925781 796.101562 L 211.996094 796.101562 C 212.203125 795.542969 212.488281 795.027344 212.851562 794.554688 C 213.214844 794.082031 213.640625 793.675781 214.128906 793.335938 C 214.617188 792.996094 215.148438 792.738281 215.714844 792.558594 C 216.285156 792.378906 216.867188 792.289062 217.460938 792.289062 C 218.058594 792.289062 218.640625 792.378906 219.207031 792.558594 C 219.777344 792.738281 220.304688 792.996094 220.792969 793.335938 C 221.28125 793.675781 221.707031 794.082031 222.070312 794.554688 C 222.4375 795.027344 222.722656 795.542969 222.925781 796.101562 Z M 217.453125 803.867188 C 216.851562 803.867188 216.265625 803.773438 215.691406 803.589844 C 215.121094 803.40625 214.589844 803.140625 214.097656 802.792969 C 213.609375 802.445312 213.183594 802.03125 212.820312 801.554688 C 212.457031 801.074219 212.175781 800.550781 211.976562 799.984375 L 222.90625 799.984375 C 222.707031 800.546875 222.425781 801.070312 222.066406 801.550781 C 221.707031 802.027344 221.28125 802.441406 220.792969 802.789062 C 220.304688 803.136719 219.777344 803.402344 219.207031 803.585938 C 218.636719 803.769531 218.050781 803.863281 217.453125 803.867188 Z M 236.867188 780.570312 C 236.867188 781.078125 236.816406 781.582031 236.71875 782.082031 C 236.617188 782.582031 236.472656 783.070312 236.277344 783.539062 C 236.082031 784.011719 235.839844 784.460938 235.558594 784.882812 C 235.273438 785.308594 234.953125 785.699219 234.59375 786.058594 C 234.230469 786.421875 233.839844 786.742188 233.414062 787.027344 C 232.992188 787.308594 232.542969 787.546875 232.074219 787.742188 C 231.601562 787.9375 231.117188 788.085938 230.617188 788.183594 C 230.117188 788.285156 229.609375 788.335938 229.101562 788.335938 L 225.21875 788.335938 C 225.21875 787.570312 225.292969 786.8125 225.441406 786.0625 C 225.589844 785.3125 225.8125 784.582031 226.105469 783.875 C 226.398438 783.171875 226.757812 782.5 227.179688 781.863281 C 227.605469 781.226562 228.089844 780.636719 228.628906 780.097656 C 229.171875 779.554688 229.757812 779.074219 230.394531 778.648438 C 231.03125 778.222656 231.703125 777.863281 232.410156 777.570312 C 233.117188 777.28125 233.84375 777.058594 234.59375 776.910156 C 235.34375 776.761719 236.101562 776.683594 236.867188 776.683594 Z M 236.867188 780.570312 " fill-opacity="1" fill-rule="nonzero"/></g><g clip-path="url(#7403cc17b1)"><path fill="#ffffff" d="M 1482.511719 702.136719 L 1436.378906 694.472656 L 1425.765625 655.527344 C 1424.347656 650.359375 1420.375 646.386719 1415.382812 644.910156 C 1417.425781 642.753906 1418.671875 639.800781 1418.671875 636.621094 L 1418.671875 615.558594 C 1418.671875 608.859375 1413.226562 603.355469 1406.472656 603.355469 L 1383.832031 603.355469 C 1388.488281 599.605469 1391.4375 593.875 1391.4375 587.457031 C 1391.4375 576.160156 1382.300781 567.019531 1371.007812 567.019531 C 1363.121094 567.019531 1356.257812 571.503906 1352.851562 578.089844 C 1349.503906 571.503906 1342.636719 567.019531 1334.75 567.019531 C 1323.457031 567.019531 1314.324219 576.160156 1314.324219 587.457031 C 1314.324219 593.875 1317.273438 599.605469 1321.925781 603.355469 L 1299.511719 603.355469 C 1292.648438 603.355469 1287.085938 608.917969 1287.085938 615.785156 L 1287.085938 636.28125 C 1287.085938 639.289062 1288.164062 642.015625 1289.921875 644.171875 L 1286.121094 644.171875 C 1278.972656 644.171875 1272.785156 649.054688 1271.199219 656.039062 L 1261.4375 698.445312 C 1259.167969 695.777344 1255.820312 694.128906 1252.074219 694.128906 L 1244.980469 694.128906 C 1238.171875 694.128906 1232.613281 699.695312 1232.613281 706.507812 L 1232.613281 759.019531 C 1232.613281 765.832031 1238.171875 771.394531 1244.980469 771.394531 L 1252.074219 771.394531 C 1255.253906 771.394531 1258.089844 770.203125 1260.304688 768.273438 C 1261.550781 772.703125 1265.636719 775.9375 1270.460938 775.9375 L 1273.582031 775.9375 C 1274.773438 793.648438 1289.527344 807.730469 1307.570312 807.730469 C 1325.613281 807.730469 1340.367188 793.648438 1341.558594 775.9375 L 1346.15625 775.9375 L 1346.15625 779.515625 C 1346.15625 782.578125 1348.652344 785.019531 1351.660156 785.019531 L 1390.527344 785.019531 C 1393.59375 785.019531 1396.035156 782.523438 1396.035156 779.515625 L 1396.035156 775.9375 L 1405.167969 775.9375 C 1406.359375 793.648438 1421.113281 807.730469 1439.160156 807.730469 C 1457.203125 807.730469 1471.957031 793.648438 1473.148438 775.9375 L 1480.808594 775.9375 C 1486.652344 775.9375 1491.363281 771.167969 1491.363281 765.378906 L 1491.363281 712.582031 C 1491.363281 707.414062 1487.675781 702.988281 1482.511719 702.136719 Z M 1259.847656 759.019531 C 1259.847656 763.335938 1256.332031 766.855469 1252.019531 766.855469 L 1244.980469 766.855469 C 1240.667969 766.855469 1237.152344 763.335938 1237.152344 759.019531 L 1237.152344 706.507812 C 1237.152344 702.191406 1240.667969 698.671875 1244.980469 698.671875 L 1252.074219 698.671875 C 1256.386719 698.671875 1259.90625 702.191406 1259.90625 706.507812 L 1259.90625 759.019531 Z M 1431.667969 694.1875 L 1381.847656 694.1875 C 1379.632812 694.1875 1377.875 692.425781 1377.875 690.214844 L 1377.875 661.828125 C 1377.875 659.613281 1379.632812 657.855469 1381.847656 657.855469 L 1421.738281 657.855469 Z M 1400.574219 607.894531 L 1406.53125 607.894531 C 1410.730469 607.894531 1414.191406 611.300781 1414.191406 615.558594 L 1414.191406 636.621094 C 1414.191406 640.824219 1410.785156 644.285156 1406.53125 644.285156 L 1400.574219 644.285156 Z M 1391.492188 607.894531 L 1396.035156 607.894531 L 1396.035156 644.230469 L 1391.492188 644.230469 Z M 1386.953125 607.894531 L 1386.953125 644.230469 L 1380.996094 644.230469 C 1376.796875 644.230469 1373.335938 640.824219 1373.335938 636.566406 L 1373.335938 615.503906 C 1373.335938 611.300781 1376.742188 607.839844 1380.996094 607.839844 L 1386.953125 607.839844 Z M 1371.066406 571.5625 C 1379.804688 571.5625 1386.953125 578.714844 1386.953125 587.457031 C 1386.953125 596.199219 1379.804688 603.355469 1371.066406 603.355469 C 1362.328125 603.355469 1355.179688 596.199219 1355.179688 587.457031 C 1355.179688 578.714844 1362.328125 571.5625 1371.066406 571.5625 Z M 1371.007812 608.578125 C 1370.839844 608.351562 1370.667969 608.121094 1370.5 607.894531 C 1370.667969 607.894531 1370.894531 607.894531 1371.066406 607.894531 C 1371.238281 607.894531 1371.351562 607.894531 1371.519531 607.894531 C 1371.351562 608.121094 1371.179688 608.351562 1371.007812 608.578125 Z M 1371.519531 644.230469 L 1370.5 644.230469 C 1370.667969 644.003906 1370.839844 643.773438 1371.007812 643.546875 C 1371.179688 643.773438 1371.351562 644.003906 1371.519531 644.230469 Z M 1368.796875 615.785156 L 1368.796875 636.28125 C 1368.796875 640.652344 1365.277344 644.171875 1360.910156 644.171875 L 1355.179688 644.171875 L 1355.179688 607.839844 L 1360.910156 607.839844 C 1365.277344 607.894531 1368.796875 611.472656 1368.796875 615.785156 Z M 1358.242188 603.355469 L 1347.574219 603.355469 C 1349.789062 601.59375 1351.601562 599.324219 1352.910156 596.824219 C 1354.214844 599.324219 1356.027344 601.59375 1358.242188 603.355469 Z M 1350.636719 607.894531 L 1350.636719 644.230469 L 1346.097656 644.230469 L 1346.097656 607.894531 Z M 1318.863281 587.457031 C 1318.863281 578.714844 1326.011719 571.5625 1334.75 571.5625 C 1343.488281 571.5625 1350.636719 578.714844 1350.636719 587.457031 C 1350.636719 596.199219 1343.488281 603.355469 1334.75 603.355469 C 1326.011719 603.355469 1318.863281 596.199219 1318.863281 587.457031 Z M 1318.863281 607.894531 L 1341.558594 607.894531 L 1341.558594 644.230469 L 1318.863281 644.230469 Z M 1309.785156 607.894531 L 1314.324219 607.894531 L 1314.324219 644.230469 L 1309.785156 644.230469 Z M 1291.625 615.785156 C 1291.625 611.414062 1295.144531 607.894531 1299.511719 607.894531 L 1305.242188 607.894531 L 1305.242188 644.230469 L 1299.511719 644.230469 C 1295.144531 644.230469 1291.625 640.652344 1291.625 636.339844 Z M 1275.453125 657.855469 L 1283.113281 657.855469 C 1285.328125 657.855469 1287.085938 659.613281 1287.085938 661.828125 L 1287.085938 690.214844 C 1287.085938 692.425781 1285.328125 694.1875 1283.113281 694.1875 L 1267.054688 694.1875 Z M 1264.386719 721.4375 L 1278.007812 721.4375 L 1278.007812 735.0625 L 1264.386719 735.0625 Z M 1264.386719 748.6875 L 1268.929688 748.6875 L 1268.929688 753.230469 L 1264.386719 753.230469 Z M 1307.511719 803.1875 C 1291.226562 803.1875 1278.007812 789.960938 1278.007812 773.667969 C 1278.007812 757.375 1291.226562 744.144531 1307.511719 744.144531 C 1323.800781 744.144531 1337.019531 757.375 1337.019531 773.667969 C 1337.019531 789.960938 1323.800781 803.1875 1307.511719 803.1875 Z M 1391.492188 779.515625 C 1391.492188 780.082031 1391.039062 780.480469 1390.527344 780.480469 L 1351.660156 780.480469 C 1351.09375 780.480469 1350.695312 780.023438 1350.695312 779.515625 L 1350.695312 775.9375 L 1391.550781 775.9375 L 1391.550781 779.515625 Z M 1439.160156 803.1875 C 1422.871094 803.1875 1409.652344 789.960938 1409.652344 773.667969 C 1409.652344 757.375 1422.871094 744.144531 1439.160156 744.144531 C 1455.445312 744.144531 1468.664062 757.375 1468.664062 773.667969 C 1468.664062 789.960938 1455.445312 803.1875 1439.160156 803.1875 Z M 1486.824219 757.769531 L 1482.285156 757.769531 L 1482.285156 753.230469 L 1486.824219 753.230469 Z M 1486.824219 748.6875 L 1480.011719 748.6875 C 1478.765625 748.6875 1477.742188 749.710938 1477.742188 750.957031 L 1477.742188 760.042969 C 1477.742188 761.289062 1478.765625 762.3125 1480.011719 762.3125 L 1486.824219 762.3125 L 1486.824219 765.378906 C 1486.824219 768.726562 1484.097656 771.394531 1480.808594 771.394531 L 1473.148438 771.394531 C 1471.957031 753.683594 1457.203125 739.605469 1439.160156 739.605469 C 1421.113281 739.605469 1406.359375 753.683594 1405.167969 771.394531 L 1341.503906 771.394531 C 1340.3125 753.683594 1325.558594 739.605469 1307.511719 739.605469 C 1289.46875 739.605469 1274.714844 753.683594 1273.523438 771.394531 L 1270.402344 771.394531 C 1267.054688 771.394531 1264.386719 768.671875 1264.386719 765.378906 L 1264.386719 757.769531 L 1271.199219 757.769531 C 1272.445312 757.769531 1273.46875 756.75 1273.46875 755.5 L 1273.46875 746.417969 C 1273.46875 745.167969 1272.445312 744.144531 1271.199219 744.144531 L 1264.386719 744.144531 L 1264.386719 739.605469 L 1280.277344 739.605469 C 1281.523438 739.605469 1282.546875 738.582031 1282.546875 737.332031 L 1282.546875 719.167969 C 1282.546875 717.917969 1281.523438 716.894531 1280.277344 716.894531 L 1264.386719 716.894531 L 1264.386719 705.824219 L 1266.035156 698.730469 L 1283.113281 698.730469 C 1287.824219 698.730469 1291.625 694.925781 1291.625 690.214844 L 1291.625 661.828125 C 1291.625 657.117188 1287.824219 653.3125 1283.113281 653.3125 L 1277.324219 653.3125 C 1279.3125 650.53125 1282.488281 648.769531 1286.121094 648.769531 L 1411.070312 648.769531 C 1414.644531 648.769531 1417.878906 650.53125 1419.867188 653.3125 L 1381.847656 653.3125 C 1377.136719 653.3125 1373.335938 657.117188 1373.335938 661.828125 L 1373.335938 690.214844 C 1373.335938 694.925781 1377.136719 698.730469 1381.847656 698.730469 L 1434.449219 698.730469 L 1481.828125 706.621094 C 1484.722656 707.132812 1486.824219 709.574219 1486.878906 712.523438 C 1479.21875 713.601562 1473.261719 720.246094 1473.261719 728.25 C 1473.261719 736.253906 1479.164062 742.898438 1486.878906 743.976562 L 1486.878906 748.6875 Z M 1486.824219 739.378906 C 1481.660156 738.296875 1477.742188 733.757812 1477.742188 728.25 C 1477.742188 722.742188 1481.660156 718.203125 1486.824219 717.121094 Z M 1486.824219 739.378906 " fill-opacity="1" fill-rule="nonzero"/></g><path fill="#ffffff" d="M 1355.746094 653.3125 L 1304.675781 653.3125 C 1299.964844 653.3125 1296.164062 657.117188 1296.164062 661.828125 L 1296.164062 690.214844 C 1296.164062 694.925781 1299.964844 698.730469 1304.675781 698.730469 L 1355.746094 698.730469 C 1360.457031 698.730469 1364.257812 694.925781 1364.257812 690.214844 L 1364.257812 661.828125 C 1364.257812 657.117188 1360.457031 653.3125 1355.746094 653.3125 Z M 1359.71875 690.214844 C 1359.71875 692.425781 1357.957031 694.1875 1355.746094 694.1875 L 1304.675781 694.1875 C 1302.464844 694.1875 1300.703125 692.425781 1300.703125 690.214844 L 1300.703125 661.828125 C 1300.703125 659.613281 1302.464844 657.855469 1304.675781 657.855469 L 1355.746094 657.855469 C 1357.957031 657.855469 1359.71875 659.613281 1359.71875 661.828125 Z M 1359.71875 690.214844 " fill-opacity="1" fill-rule="nonzero"/><path fill="#ffffff" d="M 1316.59375 716.894531 L 1307.511719 716.894531 C 1306.265625 716.894531 1305.242188 717.917969 1305.242188 719.167969 C 1305.242188 720.414062 1306.265625 721.4375 1307.511719 721.4375 L 1316.59375 721.4375 C 1317.839844 721.4375 1318.863281 720.414062 1318.863281 719.167969 C 1318.863281 717.917969 1317.839844 716.894531 1316.59375 716.894531 Z M 1316.59375 716.894531 " fill-opacity="1" fill-rule="nonzero"/><path fill="#ffffff" d="M 1393.761719 716.894531 L 1384.683594 716.894531 C 1383.4375 716.894531 1382.414062 717.917969 1382.414062 719.167969 C 1382.414062 720.414062 1383.4375 721.4375 1384.683594 721.4375 L 1393.761719 721.4375 C 1395.011719 721.4375 1396.035156 720.414062 1396.035156 719.167969 C 1396.035156 717.917969 1395.011719 716.894531 1393.761719 716.894531 Z M 1393.761719 716.894531 " fill-opacity="1" fill-rule="nonzero"/><path fill="#ffffff" d="M 1307.511719 757.769531 C 1298.773438 757.769531 1291.625 764.925781 1291.625 773.667969 C 1291.625 782.410156 1298.773438 789.5625 1307.511719 789.5625 C 1316.253906 789.5625 1323.402344 782.410156 1323.402344 773.667969 C 1323.402344 764.925781 1316.253906 757.769531 1307.511719 757.769531 Z M 1307.511719 785.019531 C 1301.273438 785.019531 1296.164062 779.910156 1296.164062 773.667969 C 1296.164062 767.421875 1301.273438 762.3125 1307.511719 762.3125 C 1313.753906 762.3125 1318.863281 767.421875 1318.863281 773.667969 C 1318.863281 779.910156 1313.753906 785.019531 1307.511719 785.019531 Z M 1307.511719 785.019531 " fill-opacity="1" fill-rule="nonzero"/><path fill="#ffffff" d="M 1439.160156 757.769531 C 1430.417969 757.769531 1423.269531 764.925781 1423.269531 773.667969 C 1423.269531 782.410156 1430.417969 789.5625 1439.160156 789.5625 C 1447.898438 789.5625 1455.046875 782.410156 1455.046875 773.667969 C 1455.046875 764.925781 1447.898438 757.769531 1439.160156 757.769531 Z M 1439.160156 785.019531 C 1432.917969 785.019531 1427.808594 779.910156 1427.808594 773.667969 C 1427.808594 767.421875 1432.917969 762.3125 1439.160156 762.3125 C 1445.398438 762.3125 1450.507812 767.421875 1450.507812 773.667969 C 1450.507812 779.910156 1445.398438 785.019531 1439.160156 785.019531 Z M 1439.160156 785.019531 " fill-opacity="1" fill-rule="nonzero"/><path fill="#ffffff" d="M 1335.773438 598.1875 C 1338.949219 598.1875 1342.128906 596.996094 1344.566406 594.554688 C 1345.476562 593.644531 1345.476562 592.226562 1344.566406 591.320312 C 1343.660156 590.410156 1342.242188 590.410156 1341.332031 591.320312 C 1339.855469 592.792969 1337.871094 593.644531 1335.773438 593.644531 C 1333.671875 593.644531 1331.6875 592.851562 1330.210938 591.320312 C 1329.132812 590.238281 1328.507812 588.765625 1328.507812 587.175781 C 1328.507812 585.585938 1329.132812 584.164062 1330.210938 583.03125 C 1331.003906 582.234375 1332.082031 581.78125 1333.21875 581.78125 C 1334.351562 581.78125 1335.429688 582.234375 1336.226562 583.03125 C 1337.359375 584.164062 1337.359375 586.039062 1336.226562 587.175781 C 1335.316406 588.082031 1335.316406 589.503906 1336.226562 590.410156 C 1337.132812 591.320312 1338.550781 591.320312 1339.460938 590.410156 C 1342.355469 587.515625 1342.355469 582.746094 1339.460938 579.851562 C 1337.816406 578.203125 1335.601562 577.296875 1333.273438 577.296875 C 1330.949219 577.296875 1328.734375 578.203125 1327.089844 579.851562 C 1325.105469 581.839844 1324.027344 584.449219 1324.027344 587.175781 C 1324.027344 589.898438 1325.105469 592.566406 1327.089844 594.496094 C 1329.417969 596.9375 1332.59375 598.1875 1335.773438 598.1875 Z M 1335.773438 598.1875 " fill-opacity="1" fill-rule="nonzero"/><path fill="#ffffff" d="M 1372.085938 598.1875 C 1375.265625 598.1875 1378.441406 596.996094 1380.882812 594.554688 C 1381.789062 593.644531 1381.789062 592.226562 1380.882812 591.320312 C 1379.976562 590.410156 1378.554688 590.410156 1377.648438 591.320312 C 1376.171875 592.792969 1374.1875 593.644531 1372.085938 593.644531 C 1369.988281 593.644531 1368.003906 592.851562 1366.527344 591.320312 C 1365.449219 590.238281 1364.824219 588.765625 1364.824219 587.175781 C 1364.824219 585.585938 1365.449219 584.164062 1366.527344 583.03125 C 1367.320312 582.234375 1368.398438 581.78125 1369.535156 581.78125 C 1370.667969 581.78125 1371.746094 582.234375 1372.542969 583.03125 C 1373.675781 584.164062 1373.675781 586.039062 1372.542969 587.175781 C 1371.632812 588.082031 1371.632812 589.503906 1372.542969 590.410156 C 1373.449219 591.320312 1374.867188 591.320312 1375.777344 590.410156 C 1378.667969 587.515625 1378.667969 582.746094 1375.777344 579.851562 C 1374.128906 578.203125 1371.917969 577.296875 1369.589844 577.296875 C 1367.265625 577.296875 1365.050781 578.203125 1363.40625 579.851562 C 1361.417969 581.839844 1360.339844 584.449219 1360.339844 587.175781 C 1360.339844 589.898438 1361.417969 592.566406 1363.40625 594.496094 C 1365.730469 596.9375 1368.910156 598.1875 1372.085938 598.1875 Z M 1372.085938 598.1875 " fill-opacity="1" fill-rule="nonzero"/><path fill="#ffffff" d="M 170.046875 382.414062 C 169.441406 382.058594 168.671875 382.257812 168.316406 382.863281 C 167.964844 383.460938 168.164062 384.234375 168.765625 384.59375 C 169.011719 384.734375 169.257812 384.882812 169.503906 385.03125 C 168.300781 385.476562 167.113281 385.949219 165.933594 386.457031 C 165.292969 386.730469 164.996094 387.476562 165.269531 388.117188 C 165.476562 388.589844 165.941406 388.878906 166.433594 388.878906 C 166.597656 388.878906 166.765625 388.84375 166.929688 388.773438 C 168.445312 388.125 169.984375 387.527344 171.546875 386.96875 C 171.730469 386.910156 171.886719 386.800781 172.015625 386.679688 C 172.300781 386.878906 172.589844 387.082031 172.875 387.292969 C 173.429688 387.703125 174.21875 387.589844 174.640625 387.019531 C 175.046875 386.449219 174.925781 385.664062 174.359375 385.25 C 172.972656 384.234375 171.519531 383.277344 170.046875 382.414062 " fill-opacity="1" fill-rule="nonzero"/><path fill="#ffffff" d="M 182.898438 446.175781 C 181.726562 447.269531 180.453125 448.296875 179.109375 449.230469 C 178.535156 449.628906 178.394531 450.417969 178.792969 450.992188 C 179.042969 451.34375 179.433594 451.527344 179.832031 451.527344 C 180.078125 451.527344 180.332031 451.457031 180.554688 451.300781 C 181.992188 450.296875 183.351562 449.199219 184.617188 448.03125 C 185.128906 447.5625 185.15625 446.761719 184.6875 446.246094 C 184.222656 445.746094 183.414062 445.703125 182.898438 446.175781 " fill-opacity="1" fill-rule="nonzero"/><path fill="#ffffff" d="M 156.800781 391.179688 C 155.3125 392.109375 153.875 393.082031 152.546875 394.070312 C 151.988281 394.480469 151.871094 395.269531 152.285156 395.839844 C 152.535156 396.167969 152.917969 396.347656 153.300781 396.347656 C 153.5625 396.347656 153.824219 396.265625 154.054688 396.09375 C 155.328125 395.144531 156.699219 394.21875 158.128906 393.324219 C 158.726562 392.957031 158.910156 392.179688 158.542969 391.585938 C 158.167969 390.996094 157.394531 390.8125 156.800781 391.179688 " fill-opacity="1" fill-rule="nonzero"/><path fill="#ffffff" d="M 160.746094 378.011719 C 159.144531 377.398438 157.515625 376.859375 155.871094 376.371094 C 155.207031 376.183594 154.5 376.5625 154.308594 377.230469 C 154.113281 377.902344 154.492188 378.605469 155.160156 378.800781 C 156.742188 379.257812 158.304688 379.78125 159.847656 380.367188 C 159.992188 380.425781 160.152344 380.453125 160.296875 380.453125 C 160.804688 380.453125 161.285156 380.140625 161.472656 379.636719 C 161.726562 378.984375 161.394531 378.257812 160.746094 378.011719 " fill-opacity="1" fill-rule="nonzero"/><path fill="#ffffff" d="M 170.445312 453.597656 C 168.894531 454.109375 167.3125 454.496094 165.742188 454.75 C 165.054688 454.863281 164.585938 455.511719 164.699219 456.195312 C 164.800781 456.816406 165.328125 457.253906 165.941406 457.253906 C 166.003906 457.253906 166.074219 457.25 166.144531 457.238281 C 167.839844 456.964844 169.558594 456.546875 171.234375 455.992188 C 171.898438 455.773438 172.253906 455.054688 172.039062 454.398438 C 171.828125 453.730469 171.078125 453.375 170.445312 453.597656 " fill-opacity="1" fill-rule="nonzero"/><path fill="#ffffff" d="M 182.089844 392.085938 C 181.613281 391.574219 180.808594 391.558594 180.308594 392.027344 C 179.800781 392.503906 179.765625 393.304688 180.246094 393.8125 C 181.382812 395.027344 182.457031 396.292969 183.4375 397.5625 C 183.6875 397.886719 184.058594 398.054688 184.4375 398.054688 C 184.707031 398.054688 184.980469 397.972656 185.207031 397.792969 C 185.761719 397.367188 185.863281 396.578125 185.4375 396.023438 C 184.410156 394.6875 183.28125 393.363281 182.089844 392.085938 " fill-opacity="1" fill-rule="nonzero"/><path fill="#ffffff" d="M 156.195312 454.519531 C 154.625 454.167969 153.109375 453.65625 151.683594 452.992188 C 151.054688 452.707031 150.300781 452.976562 150.007812 453.601562 C 149.710938 454.234375 149.984375 454.992188 150.617188 455.277344 C 152.207031 456.019531 153.902344 456.589844 155.644531 456.984375 C 155.738281 457.007812 155.835938 457.011719 155.921875 457.011719 C 156.5 457.011719 157.019531 456.617188 157.152344 456.027344 C 157.304688 455.347656 156.878906 454.671875 156.195312 454.519531 " fill-opacity="1" fill-rule="nonzero"/><path fill="#ffffff" d="M 200.769531 379.140625 C 199.070312 379.195312 197.367188 379.285156 195.671875 379.425781 C 194.976562 379.480469 194.457031 380.085938 194.515625 380.78125 C 194.566406 381.441406 195.121094 381.945312 195.769531 381.945312 C 195.800781 381.945312 195.835938 381.945312 195.867188 381.9375 C 197.523438 381.808594 199.183594 381.71875 200.851562 381.664062 C 201.546875 381.640625 202.089844 381.058594 202.074219 380.359375 C 202.046875 379.65625 201.425781 379.148438 200.769531 379.140625 " fill-opacity="1" fill-rule="nonzero"/><path fill="#ffffff" d="M 185.535156 380.722656 C 184.035156 381 182.539062 381.296875 181.050781 381.625 L 180.527344 381.746094 C 179.851562 381.902344 179.425781 382.585938 179.589844 383.269531 C 179.730469 383.847656 180.246094 384.234375 180.816406 384.234375 C 180.910156 384.234375 181.007812 384.226562 181.105469 384.203125 L 181.59375 384.089844 C 183.054688 383.765625 184.515625 383.472656 185.988281 383.207031 C 186.675781 383.085938 187.128906 382.417969 187.003906 381.734375 C 186.875 381.058594 186.246094 380.585938 185.535156 380.722656 " fill-opacity="1" fill-rule="nonzero"/><path fill="#ffffff" d="M 216.042969 379.710938 C 214.355469 379.539062 212.660156 379.398438 210.96875 379.289062 C 210.152344 379.316406 209.671875 379.78125 209.621094 380.472656 C 209.585938 381.171875 210.113281 381.769531 210.804688 381.8125 C 212.476562 381.910156 214.128906 382.058594 215.789062 382.230469 C 215.835938 382.234375 215.878906 382.234375 215.914062 382.234375 C 216.558594 382.234375 217.101562 381.75 217.171875 381.101562 C 217.242188 380.410156 216.742188 379.789062 216.042969 379.710938 " fill-opacity="1" fill-rule="nonzero"/><path fill="#ffffff" d="M 193.859375 418.550781 C 193.167969 418.621094 192.660156 419.238281 192.722656 419.929688 C 192.832031 421.082031 192.890625 422.238281 192.890625 423.382812 C 192.890625 423.859375 192.886719 424.324219 192.863281 424.796875 C 192.835938 425.496094 193.378906 426.078125 194.074219 426.113281 C 194.089844 426.113281 194.113281 426.113281 194.121094 426.113281 C 194.804688 426.113281 195.359375 425.578125 195.386719 424.894531 C 195.40625 424.394531 195.417969 423.886719 195.417969 423.378906 C 195.414062 422.144531 195.355469 420.914062 195.234375 419.691406 C 195.164062 419 194.542969 418.476562 193.859375 418.550781 " fill-opacity="1" fill-rule="nonzero"/><path fill="#ffffff" d="M 191.742188 411.25 C 191.882812 411.25 192.027344 411.230469 192.160156 411.179688 C 192.820312 410.941406 193.167969 410.21875 192.929688 409.566406 C 192.363281 407.96875 191.679688 406.367188 190.910156 404.789062 C 190.59375 404.164062 189.851562 403.910156 189.21875 404.210938 C 188.589844 404.515625 188.339844 405.277344 188.640625 405.902344 C 189.375 407.390625 190.019531 408.910156 190.550781 410.414062 C 190.734375 410.933594 191.222656 411.25 191.742188 411.25 " fill-opacity="1" fill-rule="nonzero"/><path fill="#ffffff" d="M 192.667969 433.542969 C 192.027344 433.292969 191.285156 433.628906 191.042969 434.28125 C 190.488281 435.78125 189.796875 437.238281 188.980469 438.636719 C 188.628906 439.242188 188.835938 440.015625 189.433594 440.367188 C 189.632812 440.488281 189.851562 440.539062 190.070312 440.539062 C 190.503906 440.539062 190.925781 440.320312 191.15625 439.914062 C 192.042969 438.390625 192.804688 436.785156 193.410156 435.160156 C 193.652344 434.511719 193.324219 433.78125 192.667969 433.542969 " fill-opacity="1" fill-rule="nonzero"/><path fill="#ffffff" d="M 57.410156 392.234375 C 55.886719 393 54.390625 393.789062 52.90625 394.59375 C 52.292969 394.9375 52.066406 395.699219 52.398438 396.308594 C 52.625 396.730469 53.054688 396.96875 53.503906 396.96875 C 53.710938 396.96875 53.914062 396.917969 54.105469 396.816406 C 55.574219 396.023438 57.050781 395.238281 58.539062 394.488281 C 59.164062 394.171875 59.414062 393.417969 59.097656 392.796875 C 58.78125 392.167969 58.03125 391.929688 57.410156 392.234375 " fill-opacity="1" fill-rule="nonzero"/><path fill="#ffffff" d="M 231.117188 382.367188 C 229.464844 381.960938 227.808594 381.59375 226.132812 381.257812 C 225.414062 381.121094 224.785156 381.558594 224.652344 382.246094 C 224.511719 382.933594 224.957031 383.59375 225.640625 383.734375 C 227.273438 384.058594 228.894531 384.417969 230.515625 384.824219 C 230.617188 384.847656 230.71875 384.855469 230.816406 384.855469 C 231.382812 384.855469 231.902344 384.472656 232.042969 383.894531 C 232.203125 383.21875 231.792969 382.53125 231.117188 382.367188 " fill-opacity="1" fill-rule="nonzero"/><path fill="#ffffff" d="M 144.902344 401.015625 C 143.757812 402.300781 142.667969 403.667969 141.679688 405.066406 C 141.273438 405.640625 141.410156 406.425781 141.976562 406.828125 C 142.199219 406.988281 142.457031 407.0625 142.707031 407.0625 C 143.101562 407.0625 143.488281 406.875 143.738281 406.527344 C 144.671875 405.203125 145.699219 403.910156 146.789062 402.703125 C 147.246094 402.175781 147.203125 401.378906 146.6875 400.914062 C 146.171875 400.453125 145.375 400.5 144.902344 401.015625 " fill-opacity="1" fill-rule="nonzero"/><path fill="#ffffff" d="M 44.113281 399.691406 C 42.667969 400.582031 41.242188 401.496094 39.828125 402.421875 C 39.246094 402.808594 39.082031 403.585938 39.46875 404.164062 C 39.710938 404.539062 40.113281 404.738281 40.519531 404.738281 C 40.757812 404.738281 41 404.667969 41.210938 404.535156 C 42.609375 403.613281 44.019531 402.722656 45.445312 401.84375 C 46.035156 401.46875 46.21875 400.695312 45.851562 400.101562 C 45.484375 399.511719 44.710938 399.316406 44.113281 399.691406 " fill-opacity="1" fill-rule="nonzero"/><path fill="#ffffff" d="M 31.5 408.246094 C 30.386719 409.066406 29.292969 409.910156 28.199219 410.765625 C 27.445312 409.292969 25.933594 408.285156 24.160156 408.285156 C 21.644531 408.285156 19.601562 410.328125 19.601562 412.851562 C 19.601562 415.375 21.644531 417.410156 24.160156 417.410156 C 26.460938 417.410156 28.339844 415.714844 28.660156 413.503906 C 28.785156 413.460938 28.910156 413.402344 29.015625 413.316406 C 30.328125 412.28125 31.652344 411.265625 32.996094 410.273438 C 33.558594 409.863281 33.675781 409.074219 33.261719 408.511719 C 32.851562 407.949219 32.066406 407.835938 31.5 408.246094 " fill-opacity="1" fill-rule="nonzero"/><path fill="#ffffff" d="M 264.085938 429.753906 C 264.238281 429.808594 264.382812 429.835938 264.523438 429.835938 C 265.035156 429.835938 265.523438 429.515625 265.710938 429.007812 C 266.285156 427.445312 266.964844 425.972656 267.730469 424.613281 C 268.070312 424.007812 267.859375 423.242188 267.257812 422.894531 C 266.644531 422.554688 265.878906 422.765625 265.539062 423.378906 C 264.703125 424.84375 263.960938 426.445312 263.347656 428.132812 C 263.101562 428.785156 263.4375 429.511719 264.085938 429.753906 " fill-opacity="1" fill-rule="nonzero"/><path fill="#ffffff" d="M 85.601562 380.75 C 83.980469 381.257812 82.378906 381.789062 80.773438 382.339844 C 80.113281 382.566406 79.761719 383.277344 79.988281 383.9375 C 80.167969 384.460938 80.660156 384.792969 81.183594 384.792969 C 81.324219 384.792969 81.460938 384.777344 81.59375 384.722656 C 83.171875 384.179688 84.757812 383.664062 86.363281 383.15625 C 87.027344 382.949219 87.394531 382.242188 87.183594 381.570312 C 86.980469 380.910156 86.292969 380.550781 85.601562 380.75 " fill-opacity="1" fill-rule="nonzero"/><path fill="#ffffff" d="M 140.550781 376.039062 C 142.203125 376.1875 143.851562 376.398438 145.480469 376.648438 C 145.546875 376.660156 145.605469 376.664062 145.671875 376.664062 C 146.285156 376.664062 146.820312 376.222656 146.917969 375.59375 C 147.027344 374.902344 146.554688 374.265625 145.863281 374.15625 C 144.183594 373.890625 142.488281 373.6875 140.78125 373.523438 C 140.085938 373.410156 139.480469 373.96875 139.410156 374.660156 C 139.347656 375.355469 139.855469 375.972656 140.550781 376.039062 " fill-opacity="1" fill-rule="nonzero"/><path fill="#ffffff" d="M 71.261719 385.898438 C 69.683594 386.542969 68.128906 387.203125 66.578125 387.882812 C 65.949219 388.160156 65.65625 388.90625 65.9375 389.546875 C 66.140625 390.019531 66.605469 390.300781 67.085938 390.300781 C 67.261719 390.300781 67.425781 390.265625 67.59375 390.191406 C 69.125 389.519531 70.65625 388.871094 72.207031 388.238281 C 72.855469 387.976562 73.164062 387.238281 72.898438 386.597656 C 72.640625 385.941406 71.890625 385.628906 71.261719 385.898438 " fill-opacity="1" fill-rule="nonzero"/><path fill="#ffffff" d="M 138.472656 413.527344 C 137.789062 413.289062 137.082031 413.632812 136.855469 414.289062 C 136.277344 415.917969 135.808594 417.609375 135.457031 419.3125 C 135.316406 420 135.753906 420.667969 136.433594 420.808594 C 136.523438 420.828125 136.609375 420.832031 136.6875 420.832031 C 137.277344 420.832031 137.808594 420.425781 137.925781 419.828125 C 138.25 418.238281 138.699219 416.65625 139.234375 415.136719 C 139.46875 414.476562 139.125 413.757812 138.472656 413.527344 " fill-opacity="1" fill-rule="nonzero"/><path fill="#ffffff" d="M 141.296875 443.367188 C 140.945312 442.765625 140.171875 442.574219 139.566406 442.925781 C 138.96875 443.273438 138.769531 444.046875 139.121094 444.652344 C 140.027344 446.183594 141.058594 447.625 142.199219 448.933594 C 142.453125 449.214844 142.796875 449.359375 143.148438 449.359375 C 143.445312 449.359375 143.742188 449.257812 143.984375 449.050781 C 144.503906 448.585938 144.558594 447.792969 144.097656 447.261719 C 143.0625 446.078125 142.121094 444.773438 141.296875 443.367188 " fill-opacity="1" fill-rule="nonzero"/><path fill="#ffffff" d="M 137.25 429.542969 C 137.203125 428.851562 136.722656 428.371094 135.90625 428.359375 C 135.214844 428.402344 134.683594 429.003906 134.722656 429.699219 C 134.832031 431.449219 135.0625 433.191406 135.414062 434.878906 C 135.539062 435.472656 136.0625 435.882812 136.652344 435.882812 C 136.738281 435.882812 136.824219 435.871094 136.90625 435.855469 C 137.589844 435.714844 138.027344 435.042969 137.886719 434.363281 C 137.5625 432.796875 137.347656 431.175781 137.25 429.542969 " fill-opacity="1" fill-rule="nonzero"/><path fill="#ffffff" d="M 115.332031 374.167969 C 113.648438 374.382812 111.96875 374.628906 110.300781 374.898438 C 109.613281 375.011719 109.148438 375.664062 109.257812 376.351562 C 109.359375 376.972656 109.902344 377.40625 110.503906 377.40625 C 110.570312 377.40625 110.636719 377.40625 110.707031 377.394531 C 112.351562 377.125 114 376.878906 115.65625 376.667969 C 116.347656 376.582031 116.835938 375.945312 116.75 375.253906 C 116.652344 374.5625 116.015625 374.09375 115.332031 374.167969 " fill-opacity="1" fill-rule="nonzero"/><path fill="#ffffff" d="M 100.335938 376.820312 C 98.671875 377.1875 97.03125 377.578125 95.386719 377.992188 C 94.714844 378.160156 94.296875 378.847656 94.46875 379.523438 C 94.617188 380.101562 95.128906 380.480469 95.695312 380.480469 C 95.792969 380.480469 95.894531 380.46875 96 380.441406 C 97.617188 380.035156 99.246094 379.648438 100.875 379.285156 C 101.554688 379.132812 101.992188 378.464844 101.835938 377.78125 C 101.6875 377.101562 101.015625 376.675781 100.335938 376.820312 " fill-opacity="1" fill-rule="nonzero"/><path fill="#ffffff" d="M 130.589844 373.101562 L 130.585938 373.101562 C 128.882812 373.113281 127.183594 373.164062 125.480469 373.25 C 124.789062 373.28125 124.25 373.882812 124.28125 374.574219 C 124.320312 375.25 124.878906 375.773438 125.546875 375.773438 C 125.5625 375.773438 125.585938 375.773438 125.613281 375.773438 C 127.269531 375.6875 128.933594 375.636719 130.597656 375.625 C 131.300781 375.621094 131.855469 375.054688 131.851562 374.355469 C 131.851562 373.664062 131.289062 373.101562 130.589844 373.101562 " fill-opacity="1" fill-rule="nonzero"/><path fill="#ffffff" d="M 266.390625 452.40625 C 266.035156 451.808594 265.261719 451.601562 264.664062 451.960938 C 264.0625 452.316406 263.863281 453.089844 264.214844 453.695312 C 265.171875 455.320312 266.339844 456.730469 267.675781 457.882812 C 267.910156 458.09375 268.207031 458.191406 268.5 458.191406 C 268.847656 458.191406 269.199219 458.042969 269.453125 457.753906 C 269.90625 457.222656 269.847656 456.421875 269.320312 455.96875 C 268.191406 454.996094 267.207031 453.800781 266.390625 452.40625 " fill-opacity="1" fill-rule="nonzero"/><path fill="#ffffff" d="M 405.335938 382.324219 C 403.671875 382.484375 402.007812 382.625 400.34375 382.75 C 399.648438 382.796875 399.125 383.402344 399.179688 384.09375 C 399.226562 384.757812 399.777344 385.269531 400.4375 385.269531 C 400.464844 385.269531 400.496094 385.269531 400.527344 385.261719 C 402.214844 385.136719 403.898438 385.003906 405.585938 384.835938 C 406.277344 384.769531 406.785156 384.148438 406.71875 383.457031 C 406.648438 382.765625 406.121094 382.242188 405.335938 382.324219 " fill-opacity="1" fill-rule="nonzero"/><path fill="#ffffff" d="M 420.226562 380.269531 C 418.589844 380.570312 416.9375 380.839844 415.289062 381.089844 C 414.597656 381.191406 414.128906 381.839844 414.230469 382.527344 C 414.324219 383.15625 414.863281 383.601562 415.480469 383.601562 C 415.539062 383.601562 415.601562 383.59375 415.667969 383.585938 C 417.34375 383.332031 419.011719 383.050781 420.679688 382.753906 C 421.367188 382.628906 421.820312 381.964844 421.695312 381.28125 C 421.566406 380.605469 420.945312 380.113281 420.226562 380.269531 " fill-opacity="1" fill-rule="nonzero"/><path fill="#ffffff" d="M 449.25 372.535156 C 447.667969 373.085938 446.089844 373.628906 444.5 374.152344 C 443.832031 374.363281 443.472656 375.074219 443.6875 375.734375 C 443.859375 376.269531 444.359375 376.609375 444.886719 376.609375 C 445.015625 376.609375 445.152344 376.589844 445.277344 376.546875 C 446.890625 376.019531 448.488281 375.476562 450.082031 374.90625 C 450.746094 374.675781 451.09375 373.957031 450.855469 373.304688 C 450.617188 372.648438 449.90625 372.292969 449.25 372.535156 " fill-opacity="1" fill-rule="nonzero"/><path fill="#ffffff" d="M 434.894531 376.988281 C 433.28125 377.414062 431.660156 377.828125 430.039062 378.214844 C 429.359375 378.382812 428.9375 379.058594 429.101562 379.734375 C 429.242188 380.316406 429.757812 380.707031 430.324219 380.707031 C 430.421875 380.707031 430.519531 380.695312 430.617188 380.675781 C 432.269531 380.285156 433.914062 379.863281 435.546875 379.425781 C 436.222656 379.246094 436.617188 378.554688 436.441406 377.878906 C 436.261719 377.210938 435.566406 376.808594 434.894531 376.988281 " fill-opacity="1" fill-rule="nonzero"/><path fill="#ffffff" d="M 360.085938 383.839844 C 360.082031 383.839844 360.070312 383.839844 360.054688 383.839844 L 355.003906 383.980469 C 354.308594 384.007812 353.761719 384.59375 353.785156 385.289062 C 353.804688 385.96875 354.367188 386.511719 355.042969 386.511719 C 355.058594 386.511719 355.070312 386.511719 355.085938 386.511719 L 360.125 386.363281 C 360.820312 386.34375 361.371094 385.769531 361.351562 385.066406 C 361.328125 384.382812 360.769531 383.839844 360.085938 383.839844 " fill-opacity="1" fill-rule="nonzero"/><path fill="#ffffff" d="M 390.359375 383.285156 C 390.347656 383.285156 390.332031 383.285156 390.3125 383.285156 C 388.632812 383.347656 386.957031 383.398438 385.28125 383.441406 C 384.585938 383.460938 384.035156 384.035156 384.054688 384.738281 C 384.074219 385.425781 384.632812 385.964844 385.316406 385.964844 C 385.324219 385.964844 385.335938 385.964844 385.351562 385.964844 C 387.039062 385.921875 388.71875 385.871094 390.40625 385.808594 C 391.105469 385.777344 391.648438 385.199219 391.625 384.496094 C 391.597656 383.8125 391.035156 383.285156 390.359375 383.285156 " fill-opacity="1" fill-rule="nonzero"/><path fill="#ffffff" d="M 344.882812 384.46875 C 343.199219 384.585938 341.511719 384.714844 339.828125 384.863281 C 339.140625 384.921875 338.628906 385.539062 338.6875 386.222656 C 338.75 386.890625 339.292969 387.378906 339.941406 387.378906 C 339.980469 387.378906 340.015625 387.378906 340.050781 387.375 C 341.722656 387.230469 343.386719 387.101562 345.0625 386.980469 C 345.757812 386.933594 346.277344 386.332031 346.226562 385.636719 C 346.179688 384.945312 345.542969 384.339844 344.882812 384.46875 " fill-opacity="1" fill-rule="nonzero"/><path fill="#ffffff" d="M 375.230469 383.625 C 375.226562 383.625 375.21875 383.625 375.214844 383.625 L 370.171875 383.683594 C 369.472656 383.695312 368.914062 384.261719 368.921875 384.960938 C 368.933594 385.652344 369.496094 386.207031 370.1875 386.207031 C 370.1875 386.207031 370.191406 386.207031 370.199219 386.207031 L 375.242188 386.148438 C 375.9375 386.136719 376.5 385.570312 376.488281 384.875 C 376.484375 384.179688 375.921875 383.625 375.230469 383.625 " fill-opacity="1" fill-rule="nonzero"/><path fill="#ffffff" d="M 245.691406 387.011719 C 244.101562 386.386719 242.515625 385.796875 240.898438 385.246094 C 240.269531 385.011719 239.527344 385.371094 239.300781 386.03125 C 239.074219 386.6875 239.425781 387.40625 240.085938 387.628906 C 241.65625 388.175781 243.214844 388.753906 244.773438 389.359375 C 244.921875 389.417969 245.078125 389.449219 245.230469 389.449219 C 245.734375 389.449219 246.214844 389.140625 246.402344 388.640625 C 246.664062 387.996094 246.34375 387.261719 245.691406 387.011719 " fill-opacity="1" fill-rule="nonzero"/><path fill="#ffffff" d="M 463.195312 366.9375 C 461.667969 367.625 460.144531 368.289062 458.601562 368.925781 C 457.957031 369.195312 457.648438 369.9375 457.917969 370.574219 C 458.125 371.058594 458.589844 371.351562 459.082031 371.351562 C 459.242188 371.351562 459.40625 371.324219 459.566406 371.253906 C 461.128906 370.605469 462.683594 369.941406 464.234375 369.246094 C 464.863281 368.957031 465.144531 368.210938 464.863281 367.574219 C 464.578125 366.9375 463.839844 366.65625 463.195312 366.9375 " fill-opacity="1" fill-rule="nonzero"/><path fill="#ffffff" d="M 524.015625 323.570312 C 522.871094 324.796875 521.71875 326 520.546875 327.195312 C 520.058594 327.691406 520.066406 328.488281 520.558594 328.980469 C 520.808594 329.222656 521.125 329.339844 521.449219 329.339844 C 521.773438 329.339844 522.097656 329.210938 522.351562 328.96875 C 523.53125 327.761719 524.703125 326.53125 525.859375 325.292969 C 526.339844 324.78125 526.304688 323.980469 525.796875 323.507812 C 525.289062 323.039062 524.492188 323.054688 524.015625 323.570312 " fill-opacity="1" fill-rule="nonzero"/><path fill="#ffffff" d="M 501.824219 343.828125 C 500.503906 344.84375 499.167969 345.855469 497.820312 346.839844 C 497.253906 347.253906 497.136719 348.042969 497.539062 348.601562 C 497.792969 348.941406 498.171875 349.121094 498.5625 349.121094 C 498.820312 349.121094 499.085938 349.039062 499.304688 348.875 C 500.671875 347.875 502.027344 346.855469 503.367188 345.816406 C 503.925781 345.394531 504.023438 344.601562 503.59375 344.046875 C 503.164062 343.492188 502.375 343.386719 501.824219 343.828125 " fill-opacity="1" fill-rule="nonzero"/><path fill="#ffffff" d="M 489.570312 352.539062 C 488.167969 353.453125 486.761719 354.351562 485.339844 355.226562 C 484.742188 355.59375 484.5625 356.371094 484.925781 356.960938 C 485.160156 357.351562 485.570312 357.566406 486 357.566406 C 486.226562 357.566406 486.453125 357.507812 486.65625 357.378906 C 488.101562 356.492188 489.53125 355.582031 490.953125 354.664062 C 491.527344 354.28125 491.703125 353.496094 491.320312 352.914062 C 490.945312 352.335938 490.167969 352.167969 489.570312 352.539062 " fill-opacity="1" fill-rule="nonzero"/><path fill="#ffffff" d="M 476.671875 360.257812 C 475.203125 361.058594 473.722656 361.839844 472.230469 362.601562 C 471.609375 362.925781 471.371094 363.683594 471.6875 364.304688 C 471.914062 364.738281 472.351562 364.992188 472.808594 364.992188 C 473.003906 364.992188 473.199219 364.949219 473.386719 364.851562 C 474.894531 364.078125 476.386719 363.285156 477.875 362.472656 C 478.484375 362.136719 478.710938 361.375 478.382812 360.765625 C 478.046875 360.148438 477.277344 359.929688 476.671875 360.257812 " fill-opacity="1" fill-rule="nonzero"/><path fill="#ffffff" d="M 513.328125 334.15625 C 512.089844 335.273438 510.84375 336.394531 509.578125 337.480469 C 509.050781 337.9375 508.992188 338.734375 509.445312 339.261719 C 509.699219 339.550781 510.050781 339.699219 510.398438 339.699219 C 510.691406 339.699219 510.988281 339.597656 511.226562 339.390625 C 512.507812 338.285156 513.765625 337.160156 515.023438 336.027344 C 515.542969 335.554688 515.578125 334.761719 515.109375 334.242188 C 514.640625 333.722656 513.839844 333.683594 513.328125 334.15625 " fill-opacity="1" fill-rule="nonzero"/><path fill="#ffffff" d="M 272.527344 403.738281 C 272.949219 403.1875 272.847656 402.394531 272.289062 401.972656 C 270.941406 400.941406 269.566406 399.941406 268.164062 398.96875 C 267.601562 398.582031 266.8125 398.71875 266.410156 399.292969 C 266.015625 399.863281 266.160156 400.648438 266.730469 401.046875 C 268.097656 401.988281 269.445312 402.972656 270.765625 403.976562 C 270.988281 404.148438 271.261719 404.234375 271.527344 404.234375 C 271.90625 404.234375 272.285156 404.0625 272.527344 403.738281 " fill-opacity="1" fill-rule="nonzero"/><path fill="#ffffff" d="M 276.648438 411.0625 C 276.152344 410.570312 275.359375 410.582031 274.867188 411.078125 C 273.644531 412.320312 272.488281 413.605469 271.414062 414.902344 C 270.972656 415.4375 271.042969 416.238281 271.582031 416.675781 C 271.816406 416.875 272.101562 416.96875 272.386719 416.96875 C 272.742188 416.96875 273.105469 416.8125 273.355469 416.507812 C 274.414062 415.246094 275.515625 414.023438 276.664062 412.84375 C 277.15625 412.347656 277.144531 411.546875 276.648438 411.0625 " fill-opacity="1" fill-rule="nonzero"/><g clip-path="url(#6419630976)"><path fill="#ffffff" d="M 282.253906 458.210938 C 280.765625 458.757812 279.246094 459.042969 277.746094 459.066406 C 277.054688 459.078125 276.492188 459.648438 276.496094 460.347656 C 276.507812 461.03125 277.070312 461.589844 277.761719 461.589844 C 277.765625 461.589844 277.773438 461.589844 277.773438 461.589844 C 279.570312 461.566406 281.375 461.222656 283.128906 460.574219 C 283.789062 460.335938 284.117188 459.605469 283.875 458.953125 C 283.632812 458.296875 282.890625 457.96875 282.253906 458.210938 " fill-opacity="1" fill-rule="nonzero"/></g><path fill="#ffffff" d="M 263.675781 438.496094 C 263.722656 437.804688 263.199219 437.199219 262.503906 437.152344 C 261.828125 437.007812 261.207031 437.628906 261.164062 438.324219 C 261.105469 439.125 261.070312 439.933594 261.070312 440.742188 C 261.070312 441.6875 261.109375 442.632812 261.195312 443.5625 C 261.253906 444.214844 261.804688 444.710938 262.449219 444.710938 C 262.488281 444.710938 262.523438 444.710938 262.5625 444.707031 C 263.253906 444.648438 263.765625 444.03125 263.707031 443.335938 C 263.636719 442.480469 263.59375 441.609375 263.59375 440.742188 C 263.59375 439.996094 263.625 439.242188 263.675781 438.496094 " fill-opacity="1" fill-rule="nonzero"/><path fill="#ffffff" d="M 281.601562 409.984375 C 281.109375 409.503906 280.605469 409.03125 280.097656 408.558594 C 279.59375 408.078125 278.792969 408.109375 278.324219 408.625 C 277.84375 409.132812 277.875 409.933594 278.386719 410.402344 C 278.875 410.863281 279.355469 411.320312 279.839844 411.796875 C 280.535156 412.472656 281.238281 413.175781 281.925781 413.886719 C 282.171875 414.152344 282.503906 414.277344 282.832031 414.277344 C 283.152344 414.277344 283.464844 414.164062 283.707031 413.929688 C 284.210938 413.445312 284.230469 412.644531 283.746094 412.140625 C 283.042969 411.414062 282.320312 410.6875 281.601562 409.984375 " fill-opacity="1" fill-rule="nonzero"/><path fill="#ffffff" d="M 259.511719 393.566406 C 258.027344 392.730469 256.523438 391.929688 255 391.167969 C 254.378906 390.859375 253.625 391.109375 253.304688 391.730469 C 252.996094 392.351562 253.246094 393.109375 253.867188 393.429688 C 255.351562 394.167969 256.828125 394.945312 258.269531 395.769531 C 258.464844 395.875 258.679688 395.929688 258.890625 395.929688 C 259.328125 395.929688 259.753906 395.699219 259.988281 395.285156 C 260.328125 394.679688 260.117188 393.914062 259.511719 393.566406 " fill-opacity="1" fill-rule="nonzero"/><path fill="#ffffff" d="M 314.773438 389.148438 C 313.132812 389.589844 311.5 390.070312 309.878906 390.589844 C 309.214844 390.800781 308.847656 391.515625 309.058594 392.179688 C 309.230469 392.714844 309.730469 393.054688 310.261719 393.054688 C 310.394531 393.054688 310.515625 393.035156 310.648438 392.996094 C 312.230469 392.488281 313.828125 392.015625 315.433594 391.578125 C 316.101562 391.402344 316.5 390.710938 316.316406 390.035156 C 316.132812 389.363281 315.476562 388.96875 314.773438 389.148438 " fill-opacity="1" fill-rule="nonzero"/><path fill="#ffffff" d="M 295.109375 433.308594 C 294.421875 433.441406 293.980469 434.105469 294.113281 434.785156 C 294.421875 436.378906 294.585938 437.984375 294.601562 439.5625 C 294.605469 440.257812 295.171875 440.816406 295.859375 440.816406 C 295.863281 440.816406 295.863281 440.816406 295.871094 440.816406 C 296.574219 440.8125 297.128906 440.238281 297.125 439.539062 C 297.105469 437.8125 296.929688 436.050781 296.589844 434.304688 C 296.453125 433.625 295.816406 433.167969 295.109375 433.308594 " fill-opacity="1" fill-rule="nonzero"/><path fill="#ffffff" d="M 300.308594 394.152344 C 298.742188 394.820312 297.199219 395.539062 295.671875 396.296875 C 295.050781 396.601562 294.796875 397.355469 295.101562 397.984375 C 295.320312 398.433594 295.769531 398.6875 296.230469 398.6875 C 296.421875 398.6875 296.609375 398.644531 296.792969 398.550781 C 298.273438 397.816406 299.78125 397.125 301.308594 396.46875 C 301.945312 396.1875 302.242188 395.449219 301.96875 394.8125 C 301.691406 394.167969 300.953125 393.886719 300.308594 394.152344 " fill-opacity="1" fill-rule="nonzero"/><path fill="#ffffff" d="M 329.738281 386.035156 C 328.070312 386.277344 326.390625 386.558594 324.714844 386.867188 C 324.03125 386.996094 323.578125 387.65625 323.699219 388.34375 C 323.816406 388.949219 324.347656 389.375 324.941406 389.375 C 325.019531 389.375 325.101562 389.371094 325.175781 389.351562 C 326.824219 389.046875 328.464844 388.769531 330.105469 388.527344 C 330.792969 388.429688 331.273438 387.792969 331.171875 387.101562 C 331.066406 386.414062 330.480469 385.910156 329.738281 386.035156 " fill-opacity="1" fill-rule="nonzero"/><path fill="#ffffff" d="M 291.878906 426.371094 C 292.085938 426.371094 292.285156 426.324219 292.476562 426.226562 C 293.089844 425.890625 293.320312 425.128906 292.992188 424.511719 C 292.214844 423.058594 291.304688 421.566406 290.285156 420.089844 C 289.886719 419.519531 289.109375 419.382812 288.53125 419.765625 C 287.953125 420.160156 287.8125 420.945312 288.207031 421.519531 C 289.171875 422.929688 290.03125 424.328125 290.765625 425.707031 C 290.992188 426.128906 291.429688 426.371094 291.878906 426.371094 " fill-opacity="1" fill-rule="nonzero"/><path fill="#ffffff" d="M 294.082031 448.148438 C 293.445312 447.835938 292.699219 448.078125 292.382812 448.699219 C 291.65625 450.121094 290.777344 451.457031 289.765625 452.683594 C 289.324219 453.21875 289.398438 454.011719 289.933594 454.457031 C 290.171875 454.652344 290.453125 454.75 290.738281 454.75 C 291.101562 454.75 291.464844 454.589844 291.707031 454.289062 C 292.839844 452.921875 293.824219 451.429688 294.628906 449.851562 C 294.945312 449.230469 294.699219 448.46875 294.082031 448.148438 " fill-opacity="1" fill-rule="nonzero"/><path fill="#ffffff" d="M 288.519531 401.730469 C 288.140625 401.144531 287.351562 400.972656 286.773438 401.359375 C 285.34375 402.300781 283.945312 403.28125 282.582031 404.3125 C 282.027344 404.726562 281.914062 405.515625 282.335938 406.074219 C 282.582031 406.402344 282.960938 406.574219 283.34375 406.574219 C 283.609375 406.574219 283.875 406.496094 284.101562 406.320312 C 285.417969 405.332031 286.769531 404.375 288.15625 403.472656 C 288.734375 403.097656 288.902344 402.308594 288.519531 401.730469 " fill-opacity="1" fill-rule="nonzero"/><path fill="#ffffff" d="M 32.152344 371.390625 C 27.78125 375.785156 20.65625 375.785156 16.285156 371.390625 C 14.082031 369.203125 13.003906 366.335938 13.003906 363.453125 C 13.003906 360.566406 14.082031 357.703125 16.285156 355.511719 C 20.65625 351.121094 27.78125 351.121094 32.152344 355.511719 C 36.539062 359.882812 36.539062 367.019531 32.152344 371.390625 Z M 14.320312 343.203125 C 7.65625 346.394531 2.777344 352.605469 1.421875 359.890625 C 1.097656 361.625 0.949219 363.390625 0.964844 365.160156 C 1.035156 371.8125 3.597656 378.496094 7.78125 383.652344 L 24.21875 403.835938 C 24.21875 403.835938 40.648438 383.664062 40.65625 383.652344 C 49.113281 373.269531 50.257812 357.230469 40.136719 347.527344 C 33.53125 341.195312 23.535156 338.792969 14.320312 343.203125 " fill-opacity="1" fill-rule="nonzero"/><path fill="#ffffff" d="M 574.535156 303.183594 L 570.894531 297.332031 L 572.1875 294.496094 C 572.78125 293.1875 571.765625 292.605469 570.464844 292.007812 C 569.257812 291.457031 568.234375 291.113281 567.613281 292.0625 L 564.8125 287.566406 L 566.292969 284.308594 C 566.886719 283 565.792969 282.601562 564.484375 282.007812 C 563.179688 281.410156 562.152344 280.84375 561.558594 282.152344 L 561.507812 282.253906 L 557.253906 275.417969 C 560.5 269.246094 562.863281 264.75 562.863281 264.75 C 564.316406 261.984375 565.191406 258.941406 565.484375 255.828125 C 565.753906 252.953125 565.925781 248.867188 564.492188 246.261719 C 562.496094 242.644531 558.714844 245.902344 556.554688 247.46875 C 555.332031 248.359375 554.191406 249.375 553.160156 250.496094 C 551.105469 252.722656 549.488281 255.335938 548.390625 258.164062 C 548.320312 258.347656 546.40625 263.265625 543.84375 269.894531 L 537.011719 271.003906 C 537.292969 269.933594 536.363281 269.394531 535.175781 268.851562 C 533.867188 268.257812 532.761719 267.875 532.164062 269.183594 L 530.878906 272.003906 L 525.636719 272.851562 C 525.890625 271.804688 524.960938 271.273438 523.789062 270.738281 C 522.476562 270.140625 521.375 269.761719 520.773438 271.066406 L 519.511719 273.851562 L 514.441406 274.671875 C 513.835938 274.777344 513.089844 275.292969 512.789062 275.828125 L 511.308594 278.445312 C 511.003906 278.980469 511.242188 279.546875 511.835938 279.703125 L 537.40625 286.484375 C 534.902344 292.933594 532.570312 298.949219 531.140625 302.632812 L 521.414062 304.984375 C 520.941406 305.097656 520.558594 305.40625 520.363281 305.832031 L 518.492188 309.945312 C 517.988281 311.054688 518.960938 312.328125 520.242188 312.230469 L 529.863281 313.042969 L 528.542969 317.621094 C 528.246094 318.285156 528.558594 319.078125 529.253906 319.398438 C 529.953125 319.710938 530.757812 319.429688 531.0625 318.765625 L 533.851562 314.441406 L 541.597656 321.964844 C 542.355469 322.992188 543.960938 322.886719 544.464844 321.78125 L 546.335938 317.667969 C 546.527344 317.246094 546.511719 316.75 546.289062 316.316406 L 541.042969 306.222656 C 542.945312 302.613281 545.839844 297.109375 548.910156 291.285156 L 572.660156 307.757812 C 573.164062 308.109375 573.753906 307.925781 573.957031 307.347656 L 574.746094 305.183594 C 574.957031 304.605469 574.859375 303.710938 574.535156 303.183594 " fill-opacity="1" fill-rule="nonzero"/></svg>
