<svg xmlns="http://www.w3.org/2000/svg" xmlns:xlink="http://www.w3.org/1999/xlink" width="500" zoomAndPan="magnify" viewBox="0 0 375 374.999991" height="500" preserveAspectRatio="xMidYMid meet" version="1.0"><defs><clipPath id="eb0cb95fbc"><path d="M 131.40625 131.40625 L 243.90625 131.40625 L 243.90625 243.90625 L 131.40625 243.90625 Z M 131.40625 131.40625 " clip-rule="nonzero"/></clipPath></defs><g clip-path="url(#eb0cb95fbc)"><path fill="#050a30" d="M 216.457031 211.914062 L 216.457031 189.886719 L 239.320312 189.886719 C 238.238281 201.808594 228.496094 211.261719 216.457031 211.914062 Z M 189.886719 239.320312 L 189.886719 216.457031 L 211.914062 216.457031 C 211.261719 228.496094 201.808594 238.238281 189.886719 239.320312 Z M 163.382812 216.457031 L 185.40625 216.457031 L 185.40625 239.320312 C 173.507812 238.238281 164.054688 228.496094 163.382812 216.457031 Z M 135.996094 189.886719 L 158.859375 189.886719 L 158.859375 211.914062 C 146.820312 211.261719 137.078125 201.808594 135.996094 189.886719 Z M 158.859375 163.382812 L 158.859375 185.40625 L 135.996094 185.40625 C 137.078125 173.507812 146.820312 164.054688 158.859375 163.382812 Z M 185.429688 135.996094 L 185.429688 158.859375 L 163.402344 158.859375 C 164.054688 146.820312 173.507812 137.078125 185.429688 135.996094 Z M 211.914062 158.859375 L 189.886719 158.859375 L 189.886719 135.996094 C 201.808594 137.078125 211.261719 146.820312 211.914062 158.859375 Z M 206.242188 185.429688 C 203.699219 184.6875 200.054688 183.15625 196.679688 180.054688 C 192.652344 176.339844 190.785156 172.089844 189.90625 169.09375 L 189.90625 163.359375 L 212.003906 163.359375 L 212.003906 185.453125 L 206.242188 185.453125 Z M 187.703125 199.558594 C 186.511719 197.175781 184.800781 194.632812 182.324219 192.246094 C 180.277344 190.269531 178.117188 188.828125 176.09375 187.769531 C 178.570312 186.578125 181.246094 184.800781 183.699219 182.144531 C 185.589844 180.097656 186.9375 177.9375 187.882812 175.890625 C 189.1875 178.320312 191.03125 180.929688 193.644531 183.316406 C 195.464844 185.003906 197.535156 186.445312 199.742188 187.589844 C 197.378906 188.78125 194.859375 190.46875 192.496094 192.902344 C 190.382812 195.105469 188.828125 197.402344 187.703125 199.558594 Z M 163.3125 163.3125 L 185.40625 163.3125 L 185.40625 169.164062 C 184.867188 171.820312 183.585938 175.621094 180.367188 179.132812 C 176.429688 183.40625 171.726562 184.914062 169.140625 185.429688 L 163.289062 185.429688 L 163.289062 163.3125 Z M 163.3125 189.886719 L 169.117188 189.886719 C 171.820312 190.558594 175.710938 192.070312 179.242188 195.464844 C 183.246094 199.3125 184.824219 203.746094 185.429688 206.199219 L 185.429688 211.980469 L 163.335938 211.980469 L 163.335938 189.886719 Z M 212.003906 212.003906 L 189.90625 212.003906 L 189.90625 206.242188 C 190.652344 203.519531 192.246094 199.605469 195.714844 196.074219 C 199.335938 192.359375 203.386719 190.695312 206.21875 189.929688 L 211.980469 189.929688 L 211.980469 212.003906 Z M 239.320312 185.429688 L 216.457031 185.429688 L 216.457031 163.402344 C 228.496094 164.054688 238.238281 173.507812 239.320312 185.429688 Z M 243.90625 187.65625 C 243.90625 172.199219 231.667969 159.601562 216.390625 158.925781 C 215.714844 143.648438 203.09375 131.40625 187.65625 131.40625 C 172.222656 131.40625 159.601562 143.648438 158.925781 158.925781 C 143.648438 159.601562 131.40625 172.199219 131.40625 187.65625 C 131.40625 203.117188 143.648438 215.714844 158.925781 216.390625 C 159.601562 231.667969 172.222656 243.90625 187.65625 243.90625 C 203.09375 243.90625 215.714844 231.667969 216.390625 216.390625 C 231.667969 215.714844 243.90625 203.09375 243.90625 187.65625 " fill-opacity="1" fill-rule="nonzero"/></g></svg>
