<svg xmlns="http://www.w3.org/2000/svg" xmlns:xlink="http://www.w3.org/1999/xlink" width="1920" zoomAndPan="magnify" viewBox="0 0 1440 809.999993" height="1080" preserveAspectRatio="xMidYMid meet" version="1.0"><defs><clipPath id="65da83481e"><path d="M 1058 235 L 1440 235 L 1440 810 L 1058 810 Z M 1058 235 " clip-rule="nonzero"/></clipPath><clipPath id="5702e537e6"><path d="M 894 561.402344 L 1562.628906 145.359375 L 1838.011719 587.929688 L 1169.382812 1003.972656 Z M 894 561.402344 " clip-rule="nonzero"/></clipPath><clipPath id="1aa70b5915"><path d="M 894 561.402344 L 1562.628906 145.359375 L 1838.011719 587.929688 L 1169.382812 1003.972656 Z M 894 561.402344 " clip-rule="nonzero"/></clipPath><clipPath id="b06da64923"><path d="M 0 0 L 471 0 L 471 224 L 0 224 Z M 0 0 " clip-rule="nonzero"/></clipPath><clipPath id="ea91c5c2f5"><path d="M 535.78125 3.527344 L 252.988281 345.820312 L -89.304688 63.027344 L 193.488281 -279.265625 Z M 535.78125 3.527344 " clip-rule="nonzero"/></clipPath><clipPath id="fd7de68f28"><path d="M 535.78125 3.527344 L 252.988281 345.820312 L -89.304688 63.027344 L 193.488281 -279.265625 Z M 535.78125 3.527344 " clip-rule="nonzero"/></clipPath><clipPath id="a1e81c7b98"><path d="M 0 202 L 242 202 L 242 653.886719 L 0 653.886719 Z M 0 202 " clip-rule="nonzero"/></clipPath><clipPath id="b970e873e4"><path d="M 1126 191 L 1354 191 L 1354 492 L 1126 492 Z M 1126 191 " clip-rule="nonzero"/></clipPath><clipPath id="a536fa8da7"><path d="M 1299.625 543.941406 L 1055.070312 416 L 1195.53125 147.519531 L 1440.085938 275.460938 Z M 1299.625 543.941406 " clip-rule="nonzero"/></clipPath><clipPath id="57a39c3e88"><path d="M 1299.625 543.941406 L 1055.070312 416 L 1195.53125 147.519531 L 1440.085938 275.460938 Z M 1299.625 543.941406 " clip-rule="nonzero"/></clipPath></defs><rect x="-144" width="1728" fill="#ffffff" y="-80.999999" height="971.999992" fill-opacity="1"/><rect x="-144" width="1728" fill="#ffffff" y="-80.999999" height="971.999992" fill-opacity="1"/><rect x="-144" width="1728" fill="#050a30" y="-80.999999" height="971.999992" fill-opacity="1"/><g clip-path="url(#65da83481e)"><g clip-path="url(#5702e537e6)"><g clip-path="url(#1aa70b5915)"><path fill="#f4f6fc" d="M 1144.101562 670.273438 C 1155.933594 662.710938 1168.402344 656.164062 1181.355469 650.726562 C 1201.253906 642.175781 1219.71875 630.6875 1236.269531 616.757812 C 1251.363281 603.734375 1263.863281 588.492188 1275.441406 572.410156 C 1283.890625 560.699219 1285.964844 547.503906 1284.304688 533.808594 C 1282.140625 516.390625 1279.304688 499.191406 1276.234375 481.9375 C 1273.542969 466.261719 1269.414062 450.875 1269.007812 434.988281 C 1268.089844 412.761719 1272.871094 390.621094 1282.859375 370.6875 C 1290.347656 356.140625 1297.367188 341.484375 1304.765625 326.792969 C 1310.085938 316.21875 1317.875 307.339844 1326.351562 299.242188 C 1347.121094 279.457031 1370.679688 264.796875 1398.546875 256.738281 C 1431.351562 247.21875 1464.878906 240.480469 1498.984375 236.609375 C 1524.261719 233.792969 1549.199219 237.242188 1573.878906 242.867188 C 1587.382812 245.761719 1600.5 250.308594 1612.851562 256.542969 C 1626.746094 263.636719 1638.925781 273.8125 1648.035156 286.503906 C 1657.921875 300.121094 1667.132812 313.957031 1671.515625 330.398438 C 1680.113281 362.371094 1678.328125 393.542969 1660.84375 422.175781 C 1654.324219 433.09375 1645.789062 443.042969 1637.21875 452.613281 C 1618.351562 473.835938 1603.054688 497.878906 1591.875 524 C 1583.324219 543.648438 1579.195312 564.574219 1575.632812 585.753906 C 1571.867188 608.878906 1568.71875 632.019531 1563.773438 654.871094 C 1556.609375 687.773438 1546.289062 719.816406 1529.730469 749.285156 C 1520.222656 766.097656 1509.460938 781.871094 1495.039062 794.679688 C 1469.960938 816.941406 1440.945312 828.339844 1407.039062 824.421875 C 1387.996094 822.347656 1369.175781 819.332031 1350.335938 816.933594 C 1333.34375 814.589844 1316.445312 812.394531 1299.230469 814.230469 C 1279.695312 815.898438 1260.945312 822.722656 1244.820312 833.765625 C 1232.765625 842.273438 1221.074219 851.363281 1209.347656 860.074219 C 1196.167969 869.6875 1182.351562 878.28125 1166.78125 883.734375 C 1139.238281 893.609375 1115.105469 887.242188 1093.789062 868.222656 C 1074.378906 850.644531 1064.492188 827.945312 1059.910156 802.753906 C 1057.683594 790.421875 1057.507812 777.820312 1059.367188 765.566406 C 1062.03125 748.777344 1070.355469 734.925781 1081.164062 722.144531 C 1093.15625 708.027344 1107.394531 696.542969 1122.320312 685.84375 Z M 1144.101562 670.273438 " fill-opacity="1" fill-rule="nonzero"/></g></g></g><g clip-path="url(#b06da64923)"><g clip-path="url(#ea91c5c2f5)"><g clip-path="url(#fd7de68f28)"><path fill="#f4f6fc" d="M 260.039062 222.40625 C 166.160156 236.070312 -83.113281 126.078125 -10.257812 -8.390625 C 38.988281 -99.367188 94.078125 -25.515625 232.058594 -18.527344 C 277.753906 -16.253906 435.292969 -128.449219 467.765625 -7.976562 C 486.988281 63.425781 382.777344 204.476562 260.039062 222.40625 Z M 260.039062 222.40625 " fill-opacity="1" fill-rule="nonzero"/></g></g></g><g clip-path="url(#a1e81c7b98)"><path fill="#233dff" d="M -36.945312 388.441406 C -30.398438 387.816406 -24.476562 385.015625 -20.425781 380.027344 C -14.816406 373.796875 -9.828125 366.945312 -5.464844 359.777344 C 8.5625 332.359375 21.652344 304.320312 35.367188 276.59375 C 41.292969 264.441406 47.214844 252.601562 53.757812 240.765625 C 59.058594 231.417969 65.914062 223.003906 74.019531 215.839844 C 84.304688 205.558594 98.957031 200.886719 113.605469 202.753906 C 127.007812 204.933594 137.605469 215.214844 140.410156 228.613281 C 142.90625 242.011719 143.21875 255.40625 141.660156 268.804688 C 140.410156 281.578125 138.230469 294.351562 136.046875 307.125 C 133.867188 320.210938 126.386719 332.050781 115.164062 339.527344 C 108.929688 343.886719 102.074219 347.316406 95.214844 351.367188 C 83.992188 357.910156 72.773438 364.449219 61.863281 370.992188 C 59.058594 372.863281 56.253906 375.355469 54.070312 377.847656 C 49.707031 383.144531 51.578125 388.128906 58.433594 389.0625 C 63.421875 389.6875 68.410156 389.375 73.085938 388.128906 C 82.433594 385.324219 91.476562 381.898438 100.515625 378.160156 C 109.554688 374.421875 117.65625 370.992188 125.761719 366.945312 C 135.734375 361.957031 145.710938 356.664062 155.375 351.367188 C 159.113281 349.183594 163.164062 347.003906 167.21875 345.445312 C 173.140625 342.640625 179.996094 345.132812 182.800781 351.054688 C 183.113281 351.675781 183.113281 352.300781 183.425781 352.613281 C 184.984375 356.351562 185.917969 360.089844 185.917969 364.140625 C 187.476562 380.964844 184.050781 397.789062 176.257812 412.742188 C 171.582031 422.089844 163.476562 428.941406 153.503906 431.746094 C 143.839844 434.550781 133.554688 435.796875 123.269531 435.175781 C 113.917969 434.863281 104.878906 434.550781 95.527344 434.550781 C 92.410156 434.550781 89.292969 435.175781 86.175781 436.109375 C 77.761719 439.222656 76.203125 447.636719 83.683594 452.621094 C 88.667969 455.738281 93.96875 458.539062 99.578125 460.097656 C 105.8125 462.277344 112.046875 463.214844 118.28125 464.773438 C 126.695312 466.953125 135.734375 466.640625 144.152344 464.148438 C 160.671875 460.097656 176.878906 455.738281 193.402344 451.6875 C 200.882812 449.816406 208.671875 448.882812 216.15625 448.570312 C 228.933594 448.257812 237.039062 455.113281 240.15625 467.886719 C 242.648438 477.234375 242.027344 486.890625 239.21875 495.925781 C 232.984375 514.933594 221.453125 532.066406 206.179688 544.839844 C 187.789062 560.730469 166.28125 562.289062 144.464844 554.5 C 131.996094 549.515625 119.839844 543.59375 107.996094 537.050781 C 99.890625 533.003906 93.96875 526.148438 88.667969 518.671875 C 85.550781 514.308594 82.125 510.570312 78.382812 507.144531 C 71.835938 501.847656 67.164062 503.09375 63.734375 510.882812 C 58.746094 522.722656 59.371094 533.9375 68.722656 543.59375 C 80.253906 555.433594 91.476562 567.585938 104.878906 577.242188 C 112.980469 582.851562 120.152344 590.015625 125.761719 598.429688 C 132.929688 609.332031 136.359375 620.859375 132.617188 633.945312 C 130.4375 643.914062 122.332031 651.082031 112.046875 652.328125 C 98.019531 653.886719 84.304688 653.261719 71.214844 646.097656 C 62.488281 641.421875 54.695312 634.570312 49.082031 626.46875 C 41.914062 616.5 35.992188 605.90625 31.003906 594.691406 C 29.757812 591.574219 28.199219 588.769531 27.265625 585.65625 C 22.589844 569.453125 10.746094 562.289062 -5.152344 559.796875 C -15.125 558.238281 -25.414062 557.304688 -35.386719 555.121094 C -47.542969 552.628906 -56.269531 546.085938 -59.074219 533.3125 C -60.011719 528.015625 -59.386719 522.71875 -57.207031 518.046875 C -55.335938 512.4375 -52.84375 506.832031 -50.972656 501.222656 C -46.609375 487.515625 -49.414062 475.675781 -60.324219 466.019531 C -73.101562 455.113281 -85.882812 444.207031 -98.660156 433.304688 C -112.375 422.398438 -123.285156 406.511719 -128.585938 388.441406 C -130.453125 382.210938 -131.390625 375.980469 -131.703125 369.4375 C -132.324219 361.648438 -127.960938 356.351562 -120.792969 353.546875 C -113.3125 350.121094 -104.894531 349.808594 -97.414062 353.234375 C -91.492188 356.039062 -85.570312 359.464844 -79.335938 362.269531 C -69.984375 366.945312 -60.632812 371.617188 -50.972656 375.667969 C -45.050781 378.160156 -40.0625 382.519531 -36.945312 388.441406 Z M -36.945312 388.441406 " fill-opacity="1" fill-rule="nonzero"/></g><g clip-path="url(#b970e873e4)"><g clip-path="url(#a536fa8da7)"><g clip-path="url(#57a39c3e88)"><path fill="#233dff" d="M 1154.027344 422.167969 C 1163.1875 435.761719 1187.332031 462.355469 1204.929688 474.496094 C 1224.9375 488.316406 1250.640625 493.242188 1272.945312 490.25 C 1295.25 487.253906 1314.339844 477.058594 1329.746094 464.03125 C 1338.910156 456.253906 1347.132812 447.21875 1350.933594 436.078125 C 1360.726562 407.753906 1341.027344 374.261719 1334.355469 342.703125 C 1327.351562 309.636719 1323.097656 300.152344 1328.738281 268.816406 C 1331.449219 253.753906 1333.257812 236.683594 1322.28125 222.5625 C 1311.304688 208.4375 1287.710938 195.746094 1269.761719 191.871094 C 1251.515625 187.914062 1219.0625 202.429688 1207.011719 212.113281 C 1137.0625 268.535156 1096.679688 336.652344 1154.027344 422.167969 Z M 1257.453125 217.273438 C 1307.304688 228.761719 1285.386719 287.476562 1297.832031 340.703125 C 1310.277344 393.929688 1339.9375 466.707031 1291.988281 463.058594 C 1119.894531 449.910156 1157.804688 344.746094 1173.386719 290.402344 C 1188.96875 236.054688 1207.597656 205.789062 1257.453125 217.273438 Z M 1257.453125 217.273438 " fill-opacity="1" fill-rule="nonzero"/></g></g></g></svg>