<svg xmlns="http://www.w3.org/2000/svg" xmlns:xlink="http://www.w3.org/1999/xlink" width="500" zoomAndPan="magnify" viewBox="0 0 375 374.999991" height="500" preserveAspectRatio="xMidYMid meet" version="1.0"><defs><clipPath id="341f4fbcca"><path d="M 116.976562 130.390625 L 247.476562 130.390625 L 247.476562 244.390625 L 116.976562 244.390625 Z M 116.976562 130.390625 " clip-rule="nonzero"/></clipPath></defs><g clip-path="url(#341f4fbcca)"><path fill="#332c54" d="M 191.148438 147.003906 L 191.148438 239.722656 L 197.738281 239.722656 L 197.738281 153.707031 L 230.234375 153.707031 L 230.234375 147.964844 L 234.890625 147.964844 L 234.890625 158.355469 L 202.402344 158.355469 L 202.402344 244.367188 L 186.488281 244.367188 L 186.488281 142.355469 L 242.8125 142.355469 L 242.8125 135.054688 L 121.636719 135.054688 L 121.636719 142.058594 L 177.664062 142.058594 L 177.664062 244.367188 L 161.617188 244.367188 L 161.617188 158.652344 L 129.855469 158.652344 L 129.855469 148.265625 L 134.519531 148.265625 L 134.519531 154.003906 L 166.28125 154.003906 L 166.28125 239.722656 L 173.003906 239.722656 L 173.003906 146.707031 L 116.976562 146.707031 L 116.976562 130.410156 L 247.476562 130.410156 L 247.476562 147.003906 Z M 191.148438 147.003906 " fill-opacity="1" fill-rule="nonzero"/></g></svg>